<?xml version="1.0" encoding="utf-8" standalone="no"?>
<!DOCTYPE svg PUBLIC "-//W3C//DTD SVG 1.1//EN"
  "http://www.w3.org/Graphics/SVG/1.1/DTD/svg11.dtd">
<!-- Created with matplotlib (https://matplotlib.org/) -->
<svg height="345.6pt" version="1.1" viewBox="0 0 460.8 345.6" width="460.8pt" xmlns="http://www.w3.org/2000/svg" xmlns:xlink="http://www.w3.org/1999/xlink">
 <metadata>
  <rdf:RDF xmlns:cc="http://creativecommons.org/ns#" xmlns:dc="http://purl.org/dc/elements/1.1/" xmlns:rdf="http://www.w3.org/1999/02/22-rdf-syntax-ns#">
   <cc:Work>
    <dc:type rdf:resource="http://purl.org/dc/dcmitype/StillImage"/>
    <dc:date>2021-10-07T20:18:42.211727</dc:date>
    <dc:format>image/svg+xml</dc:format>
    <dc:creator>
     <cc:Agent>
      <dc:title>Matplotlib v3.3.3, https://matplotlib.org/</dc:title>
     </cc:Agent>
    </dc:creator>
   </cc:Work>
  </rdf:RDF>
 </metadata>
 <defs>
  <style type="text/css">*{stroke-linecap:butt;stroke-linejoin:round;}</style>
 </defs>
 <g id="figure_1">
  <g id="patch_1">
   <path d="M 0 345.6 
L 460.8 345.6 
L 460.8 0 
L 0 0 
z
" style="fill:#ffffff;"/>
  </g>
  <g id="axes_1">
   <g id="patch_2">
    <path d="M 57.6 307.584 
L 414.72 307.584 
L 414.72 41.472 
L 57.6 41.472 
z
" style="fill:#eaeaf2;"/>
   </g>
   <g id="matplotlib.axis_1">
    <g id="xtick_1">
     <g id="line2d_1">
      <path clip-path="url(#paf56cf2d5b)" d="M 73.832727 307.584 
L 73.832727 41.472 
" style="fill:none;stroke:#ffffff;stroke-linecap:round;"/>
     </g>
     <g id="text_1">
      <!-- 0 -->
      <g style="fill:#262626;" transform="translate(70.774212 324.957594)scale(0.11 -0.11)">
       <defs>
        <path d="M 4.15625 35.296875 
Q 4.15625 48 6.765625 55.734375 
Q 9.375 63.484375 14.515625 67.671875 
Q 19.671875 71.875 27.484375 71.875 
Q 33.25 71.875 37.59375 69.546875 
Q 41.9375 67.234375 44.765625 62.859375 
Q 47.609375 58.5 49.21875 52.21875 
Q 50.828125 45.953125 50.828125 35.296875 
Q 50.828125 22.703125 48.234375 14.96875 
Q 45.65625 7.234375 40.5 3 
Q 35.359375 -1.21875 27.484375 -1.21875 
Q 17.140625 -1.21875 11.234375 6.203125 
Q 4.15625 15.140625 4.15625 35.296875 
z
M 13.1875 35.296875 
Q 13.1875 17.671875 17.3125 11.828125 
Q 21.4375 6 27.484375 6 
Q 33.546875 6 37.671875 11.859375 
Q 41.796875 17.71875 41.796875 35.296875 
Q 41.796875 52.984375 37.671875 58.78125 
Q 33.546875 64.59375 27.390625 64.59375 
Q 21.34375 64.59375 17.71875 59.46875 
Q 13.1875 52.9375 13.1875 35.296875 
z
" id="ArialMT-48"/>
       </defs>
       <use xlink:href="#ArialMT-48"/>
      </g>
     </g>
    </g>
    <g id="xtick_2">
     <g id="line2d_2">
      <path clip-path="url(#paf56cf2d5b)" d="M 138.504947 307.584 
L 138.504947 41.472 
" style="fill:none;stroke:#ffffff;stroke-linecap:round;"/>
     </g>
     <g id="text_2">
      <!-- 50 -->
      <g style="fill:#262626;" transform="translate(132.387916 324.957594)scale(0.11 -0.11)">
       <defs>
        <path d="M 4.15625 18.75 
L 13.375 19.53125 
Q 14.40625 12.796875 18.140625 9.390625 
Q 21.875 6 27.15625 6 
Q 33.5 6 37.890625 10.78125 
Q 42.28125 15.578125 42.28125 23.484375 
Q 42.28125 31 38.0625 35.34375 
Q 33.84375 39.703125 27 39.703125 
Q 22.75 39.703125 19.328125 37.765625 
Q 15.921875 35.84375 13.96875 32.765625 
L 5.71875 33.84375 
L 12.640625 70.609375 
L 48.25 70.609375 
L 48.25 62.203125 
L 19.671875 62.203125 
L 15.828125 42.96875 
Q 22.265625 47.46875 29.34375 47.46875 
Q 38.71875 47.46875 45.15625 40.96875 
Q 51.609375 34.46875 51.609375 24.265625 
Q 51.609375 14.546875 45.953125 7.46875 
Q 39.0625 -1.21875 27.15625 -1.21875 
Q 17.390625 -1.21875 11.203125 4.25 
Q 5.03125 9.71875 4.15625 18.75 
z
" id="ArialMT-53"/>
       </defs>
       <use xlink:href="#ArialMT-53"/>
       <use x="55.615234" xlink:href="#ArialMT-48"/>
      </g>
     </g>
    </g>
    <g id="xtick_3">
     <g id="line2d_3">
      <path clip-path="url(#paf56cf2d5b)" d="M 203.177168 307.584 
L 203.177168 41.472 
" style="fill:none;stroke:#ffffff;stroke-linecap:round;"/>
     </g>
     <g id="text_3">
      <!-- 100 -->
      <g style="fill:#262626;" transform="translate(194.001621 324.957594)scale(0.11 -0.11)">
       <defs>
        <path d="M 37.25 0 
L 28.46875 0 
L 28.46875 56 
Q 25.296875 52.984375 20.140625 49.953125 
Q 14.984375 46.921875 10.890625 45.40625 
L 10.890625 53.90625 
Q 18.265625 57.375 23.78125 62.296875 
Q 29.296875 67.234375 31.59375 71.875 
L 37.25 71.875 
z
" id="ArialMT-49"/>
       </defs>
       <use xlink:href="#ArialMT-49"/>
       <use x="55.615234" xlink:href="#ArialMT-48"/>
       <use x="111.230469" xlink:href="#ArialMT-48"/>
      </g>
     </g>
    </g>
    <g id="xtick_4">
     <g id="line2d_4">
      <path clip-path="url(#paf56cf2d5b)" d="M 267.849388 307.584 
L 267.849388 41.472 
" style="fill:none;stroke:#ffffff;stroke-linecap:round;"/>
     </g>
     <g id="text_4">
      <!-- 150 -->
      <g style="fill:#262626;" transform="translate(258.673841 324.957594)scale(0.11 -0.11)">
       <use xlink:href="#ArialMT-49"/>
       <use x="55.615234" xlink:href="#ArialMT-53"/>
       <use x="111.230469" xlink:href="#ArialMT-48"/>
      </g>
     </g>
    </g>
    <g id="xtick_5">
     <g id="line2d_5">
      <path clip-path="url(#paf56cf2d5b)" d="M 332.521608 307.584 
L 332.521608 41.472 
" style="fill:none;stroke:#ffffff;stroke-linecap:round;"/>
     </g>
     <g id="text_5">
      <!-- 200 -->
      <g style="fill:#262626;" transform="translate(323.346061 324.957594)scale(0.11 -0.11)">
       <defs>
        <path d="M 50.34375 8.453125 
L 50.34375 0 
L 3.03125 0 
Q 2.9375 3.171875 4.046875 6.109375 
Q 5.859375 10.9375 9.828125 15.625 
Q 13.8125 20.3125 21.34375 26.46875 
Q 33.015625 36.03125 37.109375 41.625 
Q 41.21875 47.21875 41.21875 52.203125 
Q 41.21875 57.421875 37.46875 61 
Q 33.734375 64.59375 27.734375 64.59375 
Q 21.390625 64.59375 17.578125 60.78125 
Q 13.765625 56.984375 13.71875 50.25 
L 4.6875 51.171875 
Q 5.609375 61.28125 11.65625 66.578125 
Q 17.71875 71.875 27.9375 71.875 
Q 38.234375 71.875 44.234375 66.15625 
Q 50.25 60.453125 50.25 52 
Q 50.25 47.703125 48.484375 43.546875 
Q 46.734375 39.40625 42.65625 34.8125 
Q 38.578125 30.21875 29.109375 22.21875 
Q 21.1875 15.578125 18.9375 13.203125 
Q 16.703125 10.84375 15.234375 8.453125 
z
" id="ArialMT-50"/>
       </defs>
       <use xlink:href="#ArialMT-50"/>
       <use x="55.615234" xlink:href="#ArialMT-48"/>
       <use x="111.230469" xlink:href="#ArialMT-48"/>
      </g>
     </g>
    </g>
    <g id="xtick_6">
     <g id="line2d_6">
      <path clip-path="url(#paf56cf2d5b)" d="M 397.193828 307.584 
L 397.193828 41.472 
" style="fill:none;stroke:#ffffff;stroke-linecap:round;"/>
     </g>
     <g id="text_6">
      <!-- 250 -->
      <g style="fill:#262626;" transform="translate(388.018281 324.957594)scale(0.11 -0.11)">
       <use xlink:href="#ArialMT-50"/>
       <use x="55.615234" xlink:href="#ArialMT-53"/>
       <use x="111.230469" xlink:href="#ArialMT-48"/>
      </g>
     </g>
    </g>
    <g id="text_7">
     <!-- количество -->
     <g style="fill:#262626;" transform="translate(204.747187 339.733219)scale(0.12 -0.12)">
      <defs>
       <path d="M 6.546875 51.859375 
L 15.328125 51.859375 
L 15.328125 29.4375 
Q 19.53125 29.4375 21.21875 31.046875 
Q 22.90625 32.671875 26.171875 40.4375 
Q 28.765625 46.578125 30.375 48.53125 
Q 31.984375 50.484375 34.078125 51.171875 
Q 36.1875 51.859375 40.828125 51.859375 
L 42.578125 51.859375 
L 42.578125 44.578125 
L 40.140625 44.625 
Q 36.671875 44.625 35.6875 43.609375 
Q 34.671875 42.53125 32.5625 37.203125 
Q 30.5625 32.125 28.90625 30.171875 
Q 27.25 28.21875 23.78125 26.609375 
Q 29.4375 25.09375 34.90625 16.0625 
L 44.53125 0 
L 34.859375 0 
L 25.484375 16.0625 
Q 22.609375 20.90625 20.453125 22.4375 
Q 18.3125 23.96875 15.328125 23.96875 
L 15.328125 0 
L 6.546875 0 
z
" id="ArialMT-1082"/>
       <path d="M 3.328125 25.921875 
Q 3.328125 40.328125 11.328125 47.265625 
Q 18.015625 53.03125 27.640625 53.03125 
Q 38.328125 53.03125 45.109375 46.015625 
Q 51.90625 39.015625 51.90625 26.65625 
Q 51.90625 16.65625 48.90625 10.90625 
Q 45.90625 5.171875 40.15625 2 
Q 34.421875 -1.171875 27.640625 -1.171875 
Q 16.75 -1.171875 10.03125 5.8125 
Q 3.328125 12.796875 3.328125 25.921875 
z
M 12.359375 25.921875 
Q 12.359375 15.96875 16.703125 11.015625 
Q 21.046875 6.0625 27.640625 6.0625 
Q 34.1875 6.0625 38.53125 11.03125 
Q 42.875 16.015625 42.875 26.21875 
Q 42.875 35.84375 38.5 40.796875 
Q 34.125 45.75 27.640625 45.75 
Q 21.046875 45.75 16.703125 40.8125 
Q 12.359375 35.890625 12.359375 25.921875 
z
" id="ArialMT-1086"/>
       <path d="M 10.890625 51.859375 
L 51.703125 51.859375 
L 51.703125 0 
L 42.96875 0 
L 42.96875 44.578125 
L 19.671875 44.578125 
L 19.671875 18.75 
Q 19.671875 9.71875 19.078125 6.828125 
Q 18.5 3.953125 15.859375 1.796875 
Q 13.234375 -0.34375 8.25 -0.34375 
Q 5.171875 -0.34375 1.171875 0.046875 
L 1.171875 7.375 
L 5.03125 7.375 
Q 7.765625 7.375 8.9375 7.9375 
Q 10.109375 8.5 10.5 9.71875 
Q 10.890625 10.9375 10.890625 17.671875 
z
" id="ArialMT-1083"/>
       <path d="M 6.59375 51.859375 
L 15.375 51.859375 
L 15.375 12.3125 
L 39.75 51.859375 
L 49.21875 51.859375 
L 49.21875 0 
L 40.4375 0 
L 40.4375 39.3125 
L 16.0625 0 
L 6.59375 0 
z
" id="ArialMT-1080"/>
       <path d="M 3.375 51.859375 
L 12.15625 51.859375 
L 12.15625 42.046875 
Q 12.15625 35.6875 12.90625 32.828125 
Q 13.671875 29.984375 16.546875 27.859375 
Q 19.4375 25.734375 23.78125 25.734375 
Q 28.765625 25.734375 36.671875 28.375 
L 36.671875 51.859375 
L 45.453125 51.859375 
L 45.453125 0 
L 36.671875 0 
L 36.671875 20.90625 
Q 28.5625 18.359375 21.53125 18.359375 
Q 15.625 18.359375 11.109375 21.359375 
Q 6.59375 24.359375 4.984375 28.703125 
Q 3.375 33.0625 3.375 38.28125 
z
" id="ArialMT-1095"/>
       <path d="M 42.09375 16.703125 
L 51.171875 15.578125 
Q 49.03125 7.625 43.21875 3.21875 
Q 37.40625 -1.171875 28.375 -1.171875 
Q 17 -1.171875 10.328125 5.828125 
Q 3.65625 12.84375 3.65625 25.484375 
Q 3.65625 38.578125 10.390625 45.796875 
Q 17.140625 53.03125 27.875 53.03125 
Q 38.28125 53.03125 44.875 45.953125 
Q 51.46875 38.875 51.46875 26.03125 
Q 51.46875 25.25 51.421875 23.6875 
L 12.75 23.6875 
Q 13.234375 15.140625 17.578125 10.59375 
Q 21.921875 6.0625 28.421875 6.0625 
Q 33.25 6.0625 36.671875 8.59375 
Q 40.09375 11.140625 42.09375 16.703125 
z
M 13.234375 30.90625 
L 42.1875 30.90625 
Q 41.609375 37.453125 38.875 40.71875 
Q 34.671875 45.796875 27.984375 45.796875 
Q 21.921875 45.796875 17.796875 41.75 
Q 13.671875 37.703125 13.234375 30.90625 
z
" id="ArialMT-1077"/>
       <path d="M 40.4375 19 
L 49.078125 17.875 
Q 47.65625 8.9375 41.8125 3.875 
Q 35.984375 -1.171875 27.484375 -1.171875 
Q 16.84375 -1.171875 10.375 5.78125 
Q 3.90625 12.75 3.90625 25.734375 
Q 3.90625 34.125 6.6875 40.421875 
Q 9.46875 46.734375 15.15625 49.875 
Q 20.84375 53.03125 27.546875 53.03125 
Q 35.984375 53.03125 41.359375 48.75 
Q 46.734375 44.484375 48.25 36.625 
L 39.703125 35.296875 
Q 38.484375 40.53125 35.375 43.15625 
Q 32.28125 45.796875 27.875 45.796875 
Q 21.234375 45.796875 17.078125 41.03125 
Q 12.9375 36.28125 12.9375 25.984375 
Q 12.9375 15.53125 16.9375 10.796875 
Q 20.953125 6.0625 27.390625 6.0625 
Q 32.5625 6.0625 36.03125 9.234375 
Q 39.5 12.40625 40.4375 19 
z
" id="ArialMT-1089"/>
       <path d="M 1.859375 51.859375 
L 44 51.859375 
L 44 44.578125 
L 27.296875 44.578125 
L 27.296875 0 
L 18.5625 0 
L 18.5625 44.578125 
L 1.859375 44.578125 
z
" id="ArialMT-1090"/>
       <path d="M 6.640625 51.859375 
L 26.90625 51.859375 
Q 34.375 51.859375 38.015625 50.609375 
Q 41.65625 49.359375 44.265625 46.03125 
Q 46.875 42.71875 46.875 38.09375 
Q 46.875 34.375 45.328125 31.609375 
Q 43.796875 28.859375 40.71875 27 
Q 44.390625 25.78125 46.796875 22.4375 
Q 49.21875 19.09375 49.21875 14.5 
Q 48.734375 7.125 43.9375 3.5625 
Q 39.15625 0 30.03125 0 
L 6.640625 0 
z
M 15.4375 30.03125 
L 24.8125 30.03125 
Q 30.421875 30.03125 32.515625 30.609375 
Q 34.625 31.203125 36.28125 32.984375 
Q 37.9375 34.765625 37.9375 37.25 
Q 37.9375 41.359375 35.03125 42.96875 
Q 32.125 44.578125 25.09375 44.578125 
L 15.4375 44.578125 
z
M 15.4375 7.234375 
L 27 7.234375 
Q 34.46875 7.234375 37.25 8.953125 
Q 40.046875 10.6875 40.1875 14.9375 
Q 40.1875 17.4375 38.578125 19.5625 
Q 36.96875 21.6875 34.375 22.234375 
Q 31.78125 22.796875 26.078125 22.796875 
L 15.4375 22.796875 
z
" id="ArialMT-1074"/>
      </defs>
      <use xlink:href="#ArialMT-1082"/>
      <use x="44.875" xlink:href="#ArialMT-1086"/>
      <use x="98.240234" xlink:href="#ArialMT-1083"/>
      <use x="156.589844" xlink:href="#ArialMT-1080"/>
      <use x="212.449219" xlink:href="#ArialMT-1095"/>
      <use x="264.548828" xlink:href="#ArialMT-1077"/>
      <use x="320.164062" xlink:href="#ArialMT-1089"/>
      <use x="370.164062" xlink:href="#ArialMT-1090"/>
      <use x="415.964844" xlink:href="#ArialMT-1074"/>
      <use x="467.964844" xlink:href="#ArialMT-1086"/>
     </g>
    </g>
   </g>
   <g id="matplotlib.axis_2">
    <g id="ytick_1">
     <g id="line2d_7">
      <path clip-path="url(#paf56cf2d5b)" d="M 57.6 280.464574 
L 414.72 280.464574 
" style="fill:none;stroke:#ffffff;stroke-linecap:round;"/>
     </g>
     <g id="text_8">
      <!-- 0.2 -->
      <g style="fill:#262626;" transform="translate(32.81 284.401371)scale(0.11 -0.11)">
       <defs>
        <path d="M 9.078125 0 
L 9.078125 10.015625 
L 19.09375 10.015625 
L 19.09375 0 
z
" id="ArialMT-46"/>
       </defs>
       <use xlink:href="#ArialMT-48"/>
       <use x="55.615234" xlink:href="#ArialMT-46"/>
       <use x="83.398438" xlink:href="#ArialMT-50"/>
      </g>
     </g>
    </g>
    <g id="ytick_2">
     <g id="line2d_8">
      <path clip-path="url(#paf56cf2d5b)" d="M 57.6 249.077847 
L 414.72 249.077847 
" style="fill:none;stroke:#ffffff;stroke-linecap:round;"/>
     </g>
     <g id="text_9">
      <!-- 0.4 -->
      <g style="fill:#262626;" transform="translate(32.81 253.014644)scale(0.11 -0.11)">
       <defs>
        <path d="M 32.328125 0 
L 32.328125 17.140625 
L 1.265625 17.140625 
L 1.265625 25.203125 
L 33.9375 71.578125 
L 41.109375 71.578125 
L 41.109375 25.203125 
L 50.78125 25.203125 
L 50.78125 17.140625 
L 41.109375 17.140625 
L 41.109375 0 
z
M 32.328125 25.203125 
L 32.328125 57.46875 
L 9.90625 25.203125 
z
" id="ArialMT-52"/>
       </defs>
       <use xlink:href="#ArialMT-48"/>
       <use x="55.615234" xlink:href="#ArialMT-46"/>
       <use x="83.398438" xlink:href="#ArialMT-52"/>
      </g>
     </g>
    </g>
    <g id="ytick_3">
     <g id="line2d_9">
      <path clip-path="url(#paf56cf2d5b)" d="M 57.6 217.69112 
L 414.72 217.69112 
" style="fill:none;stroke:#ffffff;stroke-linecap:round;"/>
     </g>
     <g id="text_10">
      <!-- 0.6 -->
      <g style="fill:#262626;" transform="translate(32.81 221.627917)scale(0.11 -0.11)">
       <defs>
        <path d="M 49.75 54.046875 
L 41.015625 53.375 
Q 39.84375 58.546875 37.703125 60.890625 
Q 34.125 64.65625 28.90625 64.65625 
Q 24.703125 64.65625 21.53125 62.3125 
Q 17.390625 59.28125 14.984375 53.46875 
Q 12.59375 47.65625 12.5 36.921875 
Q 15.671875 41.75 20.265625 44.09375 
Q 24.859375 46.4375 29.890625 46.4375 
Q 38.671875 46.4375 44.84375 39.96875 
Q 51.03125 33.5 51.03125 23.25 
Q 51.03125 16.5 48.125 10.71875 
Q 45.21875 4.9375 40.140625 1.859375 
Q 35.0625 -1.21875 28.609375 -1.21875 
Q 17.625 -1.21875 10.6875 6.859375 
Q 3.765625 14.9375 3.765625 33.5 
Q 3.765625 54.25 11.421875 63.671875 
Q 18.109375 71.875 29.4375 71.875 
Q 37.890625 71.875 43.28125 67.140625 
Q 48.6875 62.40625 49.75 54.046875 
z
M 13.875 23.1875 
Q 13.875 18.65625 15.796875 14.5 
Q 17.71875 10.359375 21.1875 8.171875 
Q 24.65625 6 28.46875 6 
Q 34.03125 6 38.03125 10.484375 
Q 42.046875 14.984375 42.046875 22.703125 
Q 42.046875 30.125 38.078125 34.390625 
Q 34.125 38.671875 28.125 38.671875 
Q 22.171875 38.671875 18.015625 34.390625 
Q 13.875 30.125 13.875 23.1875 
z
" id="ArialMT-54"/>
       </defs>
       <use xlink:href="#ArialMT-48"/>
       <use x="55.615234" xlink:href="#ArialMT-46"/>
       <use x="83.398438" xlink:href="#ArialMT-54"/>
      </g>
     </g>
    </g>
    <g id="ytick_4">
     <g id="line2d_10">
      <path clip-path="url(#paf56cf2d5b)" d="M 57.6 186.304393 
L 414.72 186.304393 
" style="fill:none;stroke:#ffffff;stroke-linecap:round;"/>
     </g>
     <g id="text_11">
      <!-- 0.8 -->
      <g style="fill:#262626;" transform="translate(32.81 190.24119)scale(0.11 -0.11)">
       <defs>
        <path d="M 17.671875 38.8125 
Q 12.203125 40.828125 9.5625 44.53125 
Q 6.9375 48.25 6.9375 53.421875 
Q 6.9375 61.234375 12.546875 66.546875 
Q 18.171875 71.875 27.484375 71.875 
Q 36.859375 71.875 42.578125 66.421875 
Q 48.296875 60.984375 48.296875 53.171875 
Q 48.296875 48.1875 45.671875 44.5 
Q 43.0625 40.828125 37.75 38.8125 
Q 44.34375 36.671875 47.78125 31.875 
Q 51.21875 27.09375 51.21875 20.453125 
Q 51.21875 11.28125 44.71875 5.03125 
Q 38.234375 -1.21875 27.640625 -1.21875 
Q 17.046875 -1.21875 10.546875 5.046875 
Q 4.046875 11.328125 4.046875 20.703125 
Q 4.046875 27.6875 7.59375 32.390625 
Q 11.140625 37.109375 17.671875 38.8125 
z
M 15.921875 53.71875 
Q 15.921875 48.640625 19.1875 45.40625 
Q 22.46875 42.1875 27.6875 42.1875 
Q 32.765625 42.1875 36.015625 45.375 
Q 39.265625 48.578125 39.265625 53.21875 
Q 39.265625 58.0625 35.90625 61.359375 
Q 32.5625 64.65625 27.59375 64.65625 
Q 22.5625 64.65625 19.234375 61.421875 
Q 15.921875 58.203125 15.921875 53.71875 
z
M 13.09375 20.65625 
Q 13.09375 16.890625 14.875 13.375 
Q 16.65625 9.859375 20.171875 7.921875 
Q 23.6875 6 27.734375 6 
Q 34.03125 6 38.125 10.046875 
Q 42.234375 14.109375 42.234375 20.359375 
Q 42.234375 26.703125 38.015625 30.859375 
Q 33.796875 35.015625 27.4375 35.015625 
Q 21.234375 35.015625 17.15625 30.90625 
Q 13.09375 26.8125 13.09375 20.65625 
z
" id="ArialMT-56"/>
       </defs>
       <use xlink:href="#ArialMT-48"/>
       <use x="55.615234" xlink:href="#ArialMT-46"/>
       <use x="83.398438" xlink:href="#ArialMT-56"/>
      </g>
     </g>
    </g>
    <g id="ytick_5">
     <g id="line2d_11">
      <path clip-path="url(#paf56cf2d5b)" d="M 57.6 154.917666 
L 414.72 154.917666 
" style="fill:none;stroke:#ffffff;stroke-linecap:round;"/>
     </g>
     <g id="text_12">
      <!-- 1.0 -->
      <g style="fill:#262626;" transform="translate(32.81 158.854463)scale(0.11 -0.11)">
       <use xlink:href="#ArialMT-49"/>
       <use x="55.615234" xlink:href="#ArialMT-46"/>
       <use x="83.398438" xlink:href="#ArialMT-48"/>
      </g>
     </g>
    </g>
    <g id="ytick_6">
     <g id="line2d_12">
      <path clip-path="url(#paf56cf2d5b)" d="M 57.6 123.530939 
L 414.72 123.530939 
" style="fill:none;stroke:#ffffff;stroke-linecap:round;"/>
     </g>
     <g id="text_13">
      <!-- 1.2 -->
      <g style="fill:#262626;" transform="translate(32.81 127.467736)scale(0.11 -0.11)">
       <use xlink:href="#ArialMT-49"/>
       <use x="55.615234" xlink:href="#ArialMT-46"/>
       <use x="83.398438" xlink:href="#ArialMT-50"/>
      </g>
     </g>
    </g>
    <g id="ytick_7">
     <g id="line2d_13">
      <path clip-path="url(#paf56cf2d5b)" d="M 57.6 92.144212 
L 414.72 92.144212 
" style="fill:none;stroke:#ffffff;stroke-linecap:round;"/>
     </g>
     <g id="text_14">
      <!-- 1.4 -->
      <g style="fill:#262626;" transform="translate(32.81 96.081009)scale(0.11 -0.11)">
       <use xlink:href="#ArialMT-49"/>
       <use x="55.615234" xlink:href="#ArialMT-46"/>
       <use x="83.398438" xlink:href="#ArialMT-52"/>
      </g>
     </g>
    </g>
    <g id="ytick_8">
     <g id="line2d_14">
      <path clip-path="url(#paf56cf2d5b)" d="M 57.6 60.757485 
L 414.72 60.757485 
" style="fill:none;stroke:#ffffff;stroke-linecap:round;"/>
     </g>
     <g id="text_15">
      <!-- 1.6 -->
      <g style="fill:#262626;" transform="translate(32.81 64.694282)scale(0.11 -0.11)">
       <use xlink:href="#ArialMT-49"/>
       <use x="55.615234" xlink:href="#ArialMT-46"/>
       <use x="83.398438" xlink:href="#ArialMT-54"/>
      </g>
     </g>
    </g>
    <g id="text_16">
     <!-- дистанция -->
     <g style="fill:#262626;" transform="translate(26.425 203.748)rotate(-90)scale(0.12 -0.12)">
      <defs>
       <path d="M 13.53125 51.859375 
L 49.65625 51.859375 
L 49.65625 7.234375 
L 55.28125 7.234375 
L 55.28125 -14.703125 
L 48.046875 -14.703125 
L 48.046875 0 
L 7.234375 0 
L 7.234375 -14.703125 
L 0 -14.703125 
L 0 7.234375 
L 4.640625 7.234375 
Q 13.921875 19.828125 13.53125 51.859375 
z
M 20.84375 44.578125 
Q 19.875 19.34375 13.03125 7.234375 
L 40.921875 7.234375 
L 40.921875 44.578125 
z
" id="ArialMT-1076"/>
       <path d="M 40.4375 6.390625 
Q 35.546875 2.25 31.03125 0.53125 
Q 26.515625 -1.171875 21.34375 -1.171875 
Q 12.796875 -1.171875 8.203125 3 
Q 3.609375 7.171875 3.609375 13.671875 
Q 3.609375 17.484375 5.34375 20.625 
Q 7.078125 23.78125 9.890625 25.6875 
Q 12.703125 27.59375 16.21875 28.5625 
Q 18.796875 29.25 24.03125 29.890625 
Q 34.671875 31.15625 39.703125 32.90625 
Q 39.75 34.71875 39.75 35.203125 
Q 39.75 40.578125 37.25 42.78125 
Q 33.890625 45.75 27.25 45.75 
Q 21.046875 45.75 18.09375 43.578125 
Q 15.140625 41.40625 13.71875 35.890625 
L 5.125 37.0625 
Q 6.296875 42.578125 8.984375 45.96875 
Q 11.671875 49.359375 16.75 51.1875 
Q 21.828125 53.03125 28.515625 53.03125 
Q 35.15625 53.03125 39.296875 51.46875 
Q 43.453125 49.90625 45.40625 47.53125 
Q 47.359375 45.171875 48.140625 41.546875 
Q 48.578125 39.3125 48.578125 33.453125 
L 48.578125 21.734375 
Q 48.578125 9.46875 49.140625 6.21875 
Q 49.703125 2.984375 51.375 0 
L 42.1875 0 
Q 40.828125 2.734375 40.4375 6.390625 
z
M 39.703125 26.03125 
Q 34.90625 24.078125 25.34375 22.703125 
Q 19.921875 21.921875 17.671875 20.9375 
Q 15.4375 19.96875 14.203125 18.09375 
Q 12.984375 16.21875 12.984375 13.921875 
Q 12.984375 10.40625 15.640625 8.0625 
Q 18.3125 5.71875 23.4375 5.71875 
Q 28.515625 5.71875 32.46875 7.9375 
Q 36.421875 10.15625 38.28125 14.015625 
Q 39.703125 17 39.703125 22.796875 
z
" id="ArialMT-1072"/>
       <path d="M 6.640625 51.859375 
L 15.4375 51.859375 
L 15.4375 30.28125 
L 39.796875 30.28125 
L 39.796875 51.859375 
L 48.578125 51.859375 
L 48.578125 0 
L 39.796875 0 
L 39.796875 23 
L 15.4375 23 
L 15.4375 0 
L 6.640625 0 
z
" id="ArialMT-1085"/>
       <path d="M 6.734375 51.859375 
L 15.53125 51.859375 
L 15.53125 7.234375 
L 39.84375 7.234375 
L 39.84375 51.859375 
L 48.640625 51.859375 
L 48.640625 7.234375 
L 54.296875 7.234375 
L 54.296875 -14.703125 
L 47.078125 -14.703125 
L 47.078125 0 
L 6.734375 0 
z
" id="ArialMT-1094"/>
       <path d="M 47.40625 51.859375 
L 47.40625 0 
L 38.671875 0 
L 38.671875 20.21875 
L 33.59375 20.21875 
Q 28.953125 20.21875 26.6875 19.015625 
Q 24.421875 17.828125 20.0625 11.328125 
L 12.40625 0 
L 1.515625 0 
L 10.984375 13.96875 
Q 15.328125 20.359375 19.625 21.1875 
Q 12.109375 22.21875 8.46875 26.609375 
Q 4.828125 31 4.828125 36.71875 
Q 4.828125 43.453125 9.59375 47.65625 
Q 14.359375 51.859375 23.390625 51.859375 
z
M 38.671875 44.578125 
L 26.171875 44.578125 
Q 18.3125 44.578125 16.03125 42.140625 
Q 13.765625 39.703125 13.765625 36.421875 
Q 13.765625 31.78125 17.109375 29.609375 
Q 20.453125 27.4375 28.953125 27.4375 
L 38.671875 27.4375 
z
" id="ArialMT-1103"/>
      </defs>
      <use xlink:href="#ArialMT-1076"/>
      <use x="58.349609" xlink:href="#ArialMT-1080"/>
      <use x="114.208984" xlink:href="#ArialMT-1089"/>
      <use x="164.208984" xlink:href="#ArialMT-1090"/>
      <use x="208.884766" xlink:href="#ArialMT-1072"/>
      <use x="264.5" xlink:href="#ArialMT-1085"/>
      <use x="319.724609" xlink:href="#ArialMT-1094"/>
      <use x="377" xlink:href="#ArialMT-1080"/>
      <use x="432.859375" xlink:href="#ArialMT-1103"/>
     </g>
    </g>
   </g>
   <g id="line2d_15">
    <path clip-path="url(#paf56cf2d5b)" d="M 73.832727 295.488 
L 75.126172 295.488 
L 76.419616 293.541924 
L 77.71306 293.541924 
L 79.006505 287.86791 
L 80.299949 287.86791 
L 81.593394 283.970933 
L 82.886838 283.970933 
L 84.180283 278.832069 
L 85.473727 278.832069 
L 86.767171 276.70159 
L 88.060616 276.70159 
L 89.35406 275.695889 
L 90.647505 275.695889 
L 91.940949 269.5228 
L 93.234393 269.5228 
L 94.527838 266.80602 
L 95.821282 266.80602 
L 97.114727 265.5665 
L 98.408171 265.5665 
L 99.701615 263.556122 
L 100.99506 263.556122 
L 102.288504 262.801507 
L 103.581949 262.801507 
L 104.875393 261.983286 
L 106.168837 261.983286 
L 107.462282 259.432732 
L 108.755726 259.432732 
L 110.049171 256.999538 
L 113.929504 256.896343 
L 115.222948 255.452385 
L 116.516393 255.452385 
L 117.809837 254.734057 
L 119.103281 254.734057 
L 120.396726 254.529607 
L 121.69017 254.529607 
L 122.983615 254.043127 
L 126.863948 254.025083 
L 128.157392 253.197279 
L 129.450837 252.898584 
L 130.744281 252.898584 
L 132.037725 252.599176 
L 133.33117 252.599176 
L 134.624614 251.634635 
L 135.918059 251.634635 
L 137.211503 250.709128 
L 138.504947 250.709128 
L 139.798392 250.017955 
L 141.091836 249.516409 
L 142.385281 249.335097 
L 143.678725 249.335097 
L 144.97217 248.027688 
L 146.265614 246.373216 
L 147.559058 245.202005 
L 148.852503 244.787814 
L 155.319725 244.589534 
L 156.613169 243.760896 
L 157.906614 243.760896 
L 159.200058 243.347013 
L 160.493502 243.347013 
L 161.786947 243.185007 
L 163.080391 242.6317 
L 164.373836 242.6317 
L 165.66728 242.285113 
L 166.960724 242.285113 
L 168.254169 240.840704 
L 169.547613 240.840704 
L 170.841058 240.364038 
L 172.134502 237.513938 
L 173.427946 237.513938 
L 174.721391 237.298675 
L 177.30828 237.272682 
L 178.601724 237.128065 
L 179.895168 237.128065 
L 181.188613 236.878019 
L 182.482057 236.878019 
L 183.775502 236.707697 
L 185.068946 235.539311 
L 186.36239 235.539311 
L 187.655835 234.914307 
L 188.949279 234.914307 
L 190.242724 233.675158 
L 191.536168 233.675158 
L 192.829612 233.29748 
L 194.123057 233.29748 
L 195.416501 233.125827 
L 199.296834 233.016622 
L 200.590279 232.847373 
L 201.883723 232.400324 
L 203.177168 232.233017 
L 205.764057 232.139501 
L 207.057501 232.072293 
L 208.350945 231.463467 
L 209.64439 231.463467 
L 210.937834 230.68501 
L 213.524723 230.056249 
L 214.818167 229.376812 
L 216.111612 229.376812 
L 218.698501 228.705754 
L 219.991945 227.962483 
L 221.285389 227.962483 
L 222.578834 227.273855 
L 226.459167 227.213528 
L 227.752611 225.303821 
L 229.046056 223.024397 
L 234.219833 222.93441 
L 235.513278 222.814218 
L 239.393611 222.714671 
L 240.687055 221.546525 
L 243.273944 221.478145 
L 244.567389 220.486039 
L 245.860833 220.486039 
L 247.154277 220.109127 
L 248.447722 220.109127 
L 249.741166 219.751319 
L 251.034611 219.751319 
L 252.328055 219.386221 
L 253.621499 219.386221 
L 254.914944 218.727218 
L 256.208388 217.612128 
L 257.501833 217.453471 
L 258.795277 217.453471 
L 260.088721 216.8344 
L 261.382166 216.346611 
L 262.67561 216.346611 
L 263.969055 216.18412 
L 265.262499 216.18412 
L 266.555943 214.795709 
L 267.849388 214.795709 
L 269.142832 213.923443 
L 270.436277 213.923443 
L 271.729721 213.618726 
L 273.023166 213.618726 
L 274.31661 212.398045 
L 275.610054 212.116681 
L 276.903499 211.526712 
L 278.196943 211.497479 
L 279.490388 210.153056 
L 280.783832 210.153056 
L 282.077276 209.940995 
L 284.664165 209.758883 
L 285.95761 208.868058 
L 287.251054 208.868058 
L 288.544498 208.071847 
L 291.131387 207.88507 
L 292.424832 207.694966 
L 293.718276 206.802086 
L 295.01172 206.802086 
L 296.305165 206.617089 
L 298.892054 206.577682 
L 300.185498 205.790706 
L 301.478942 204.045425 
L 302.772387 204.045425 
L 305.359276 203.327096 
L 306.65272 202.428355 
L 307.946164 202.428355 
L 309.239609 202.025687 
L 310.533053 201.163494 
L 311.826498 201.089121 
L 313.119942 199.980864 
L 314.413386 199.980864 
L 315.706831 199.508169 
L 319.587164 199.431763 
L 320.880608 198.740291 
L 322.174053 198.449004 
L 323.467497 197.883031 
L 324.760942 197.883031 
L 326.054386 197.497025 
L 327.34783 195.034566 
L 328.641275 194.165413 
L 329.934719 193.460993 
L 331.228164 192.524794 
L 332.521608 191.207364 
L 333.815053 190.930742 
L 335.108497 190.808708 
L 337.695386 190.184404 
L 338.98883 190.184404 
L 340.282275 190.019653 
L 341.575719 188.220834 
L 342.869163 187.822526 
L 344.162608 186.414261 
L 345.456052 186.357644 
L 346.749497 185.918257 
L 348.042941 184.726725 
L 349.336385 183.828783 
L 350.62983 179.764104 
L 351.923274 178.892863 
L 354.510163 178.872403 
L 355.803607 176.669924 
L 359.683941 175.753042 
L 360.977385 175.163605 
L 362.270829 175.123074 
L 363.564274 174.196154 
L 364.857718 173.800256 
L 366.151163 170.0579 
L 367.444607 168.628684 
L 368.738051 168.573946 
L 371.32494 165.454714 
L 372.618385 164.074707 
L 373.911829 161.741617 
L 376.498718 158.991944 
L 377.792162 156.33417 
L 379.085607 155.536063 
L 380.379051 152.146772 
L 381.672495 149.87429 
L 382.96594 148.371504 
L 385.552829 142.177676 
L 386.846273 136.809831 
L 388.139717 133.933192 
L 389.433162 123.153855 
L 390.726606 120.890899 
L 392.020051 113.009018 
L 393.313495 111.667808 
L 394.60694 109.61609 
L 395.900384 100.930095 
L 397.193828 57.812806 
L 398.487273 53.568 
L 398.487273 53.568 
" style="fill:none;stroke:#4c72b0;stroke-linecap:round;stroke-width:1.5;"/>
   </g>
   <g id="patch_3">
    <path d="M 57.6 307.584 
L 57.6 41.472 
" style="fill:none;stroke:#ffffff;stroke-linecap:square;stroke-linejoin:miter;stroke-width:1.25;"/>
   </g>
   <g id="patch_4">
    <path d="M 414.72 307.584 
L 414.72 41.472 
" style="fill:none;stroke:#ffffff;stroke-linecap:square;stroke-linejoin:miter;stroke-width:1.25;"/>
   </g>
   <g id="patch_5">
    <path d="M 57.6 307.584 
L 414.72 307.584 
" style="fill:none;stroke:#ffffff;stroke-linecap:square;stroke-linejoin:miter;stroke-width:1.25;"/>
   </g>
   <g id="patch_6">
    <path d="M 57.6 41.472 
L 414.72 41.472 
" style="fill:none;stroke:#ffffff;stroke-linecap:square;stroke-linejoin:miter;stroke-width:1.25;"/>
   </g>
  </g>
 </g>
 <defs>
  <clipPath id="paf56cf2d5b">
   <rect height="266.112" width="357.12" x="57.6" y="41.472"/>
  </clipPath>
 </defs>
</svg>
