<?xml version="1.0" encoding="utf-8" standalone="no"?>
<!DOCTYPE svg PUBLIC "-//W3C//DTD SVG 1.1//EN"
  "http://www.w3.org/Graphics/SVG/1.1/DTD/svg11.dtd">
<!-- Created with matplotlib (https://matplotlib.org/) -->
<svg height="345.6pt" version="1.1" viewBox="0 0 460.8 345.6" width="460.8pt" xmlns="http://www.w3.org/2000/svg" xmlns:xlink="http://www.w3.org/1999/xlink">
 <metadata>
  <rdf:RDF xmlns:cc="http://creativecommons.org/ns#" xmlns:dc="http://purl.org/dc/elements/1.1/" xmlns:rdf="http://www.w3.org/1999/02/22-rdf-syntax-ns#">
   <cc:Work>
    <dc:type rdf:resource="http://purl.org/dc/dcmitype/StillImage"/>
    <dc:date>2021-10-06T21:45:42.780962</dc:date>
    <dc:format>image/svg+xml</dc:format>
    <dc:creator>
     <cc:Agent>
      <dc:title>Matplotlib v3.3.3, https://matplotlib.org/</dc:title>
     </cc:Agent>
    </dc:creator>
   </cc:Work>
  </rdf:RDF>
 </metadata>
 <defs>
  <style type="text/css">*{stroke-linecap:butt;stroke-linejoin:round;}</style>
 </defs>
 <g id="figure_1">
  <g id="patch_1">
   <path d="M 0 345.6 
L 460.8 345.6 
L 460.8 0 
L 0 0 
z
" style="fill:#ffffff;"/>
  </g>
  <g id="axes_1">
   <g id="patch_2">
    <path d="M 57.6 307.584 
L 414.72 307.584 
L 414.72 41.472 
L 57.6 41.472 
z
" style="fill:#eaeaf2;"/>
   </g>
   <g id="matplotlib.axis_1">
    <g id="xtick_1">
     <g id="line2d_1">
      <path clip-path="url(#p484430e211)" d="M 73.832727 307.584 
L 73.832727 41.472 
" style="fill:none;stroke:#ffffff;stroke-linecap:round;"/>
     </g>
     <g id="text_1">
      <!-- 0 -->
      <g style="fill:#262626;" transform="translate(70.774212 324.957594)scale(0.11 -0.11)">
       <defs>
        <path d="M 4.15625 35.296875 
Q 4.15625 48 6.765625 55.734375 
Q 9.375 63.484375 14.515625 67.671875 
Q 19.671875 71.875 27.484375 71.875 
Q 33.25 71.875 37.59375 69.546875 
Q 41.9375 67.234375 44.765625 62.859375 
Q 47.609375 58.5 49.21875 52.21875 
Q 50.828125 45.953125 50.828125 35.296875 
Q 50.828125 22.703125 48.234375 14.96875 
Q 45.65625 7.234375 40.5 3 
Q 35.359375 -1.21875 27.484375 -1.21875 
Q 17.140625 -1.21875 11.234375 6.203125 
Q 4.15625 15.140625 4.15625 35.296875 
z
M 13.1875 35.296875 
Q 13.1875 17.671875 17.3125 11.828125 
Q 21.4375 6 27.484375 6 
Q 33.546875 6 37.671875 11.859375 
Q 41.796875 17.71875 41.796875 35.296875 
Q 41.796875 52.984375 37.671875 58.78125 
Q 33.546875 64.59375 27.390625 64.59375 
Q 21.34375 64.59375 17.71875 59.46875 
Q 13.1875 52.9375 13.1875 35.296875 
z
" id="ArialMT-48"/>
       </defs>
       <use xlink:href="#ArialMT-48"/>
      </g>
     </g>
    </g>
    <g id="xtick_2">
     <g id="line2d_2">
      <path clip-path="url(#p484430e211)" d="M 113.913535 307.584 
L 113.913535 41.472 
" style="fill:none;stroke:#ffffff;stroke-linecap:round;"/>
     </g>
     <g id="text_2">
      <!-- 20 -->
      <g style="fill:#262626;" transform="translate(107.796504 324.957594)scale(0.11 -0.11)">
       <defs>
        <path d="M 50.34375 8.453125 
L 50.34375 0 
L 3.03125 0 
Q 2.9375 3.171875 4.046875 6.109375 
Q 5.859375 10.9375 9.828125 15.625 
Q 13.8125 20.3125 21.34375 26.46875 
Q 33.015625 36.03125 37.109375 41.625 
Q 41.21875 47.21875 41.21875 52.203125 
Q 41.21875 57.421875 37.46875 61 
Q 33.734375 64.59375 27.734375 64.59375 
Q 21.390625 64.59375 17.578125 60.78125 
Q 13.765625 56.984375 13.71875 50.25 
L 4.6875 51.171875 
Q 5.609375 61.28125 11.65625 66.578125 
Q 17.71875 71.875 27.9375 71.875 
Q 38.234375 71.875 44.234375 66.15625 
Q 50.25 60.453125 50.25 52 
Q 50.25 47.703125 48.484375 43.546875 
Q 46.734375 39.40625 42.65625 34.8125 
Q 38.578125 30.21875 29.109375 22.21875 
Q 21.1875 15.578125 18.9375 13.203125 
Q 16.703125 10.84375 15.234375 8.453125 
z
" id="ArialMT-50"/>
       </defs>
       <use xlink:href="#ArialMT-50"/>
       <use x="55.615234" xlink:href="#ArialMT-48"/>
      </g>
     </g>
    </g>
    <g id="xtick_3">
     <g id="line2d_3">
      <path clip-path="url(#p484430e211)" d="M 153.994343 307.584 
L 153.994343 41.472 
" style="fill:none;stroke:#ffffff;stroke-linecap:round;"/>
     </g>
     <g id="text_3">
      <!-- 40 -->
      <g style="fill:#262626;" transform="translate(147.877312 324.957594)scale(0.11 -0.11)">
       <defs>
        <path d="M 32.328125 0 
L 32.328125 17.140625 
L 1.265625 17.140625 
L 1.265625 25.203125 
L 33.9375 71.578125 
L 41.109375 71.578125 
L 41.109375 25.203125 
L 50.78125 25.203125 
L 50.78125 17.140625 
L 41.109375 17.140625 
L 41.109375 0 
z
M 32.328125 25.203125 
L 32.328125 57.46875 
L 9.90625 25.203125 
z
" id="ArialMT-52"/>
       </defs>
       <use xlink:href="#ArialMT-52"/>
       <use x="55.615234" xlink:href="#ArialMT-48"/>
      </g>
     </g>
    </g>
    <g id="xtick_4">
     <g id="line2d_4">
      <path clip-path="url(#p484430e211)" d="M 194.075152 307.584 
L 194.075152 41.472 
" style="fill:none;stroke:#ffffff;stroke-linecap:round;"/>
     </g>
     <g id="text_4">
      <!-- 60 -->
      <g style="fill:#262626;" transform="translate(187.95812 324.957594)scale(0.11 -0.11)">
       <defs>
        <path d="M 49.75 54.046875 
L 41.015625 53.375 
Q 39.84375 58.546875 37.703125 60.890625 
Q 34.125 64.65625 28.90625 64.65625 
Q 24.703125 64.65625 21.53125 62.3125 
Q 17.390625 59.28125 14.984375 53.46875 
Q 12.59375 47.65625 12.5 36.921875 
Q 15.671875 41.75 20.265625 44.09375 
Q 24.859375 46.4375 29.890625 46.4375 
Q 38.671875 46.4375 44.84375 39.96875 
Q 51.03125 33.5 51.03125 23.25 
Q 51.03125 16.5 48.125 10.71875 
Q 45.21875 4.9375 40.140625 1.859375 
Q 35.0625 -1.21875 28.609375 -1.21875 
Q 17.625 -1.21875 10.6875 6.859375 
Q 3.765625 14.9375 3.765625 33.5 
Q 3.765625 54.25 11.421875 63.671875 
Q 18.109375 71.875 29.4375 71.875 
Q 37.890625 71.875 43.28125 67.140625 
Q 48.6875 62.40625 49.75 54.046875 
z
M 13.875 23.1875 
Q 13.875 18.65625 15.796875 14.5 
Q 17.71875 10.359375 21.1875 8.171875 
Q 24.65625 6 28.46875 6 
Q 34.03125 6 38.03125 10.484375 
Q 42.046875 14.984375 42.046875 22.703125 
Q 42.046875 30.125 38.078125 34.390625 
Q 34.125 38.671875 28.125 38.671875 
Q 22.171875 38.671875 18.015625 34.390625 
Q 13.875 30.125 13.875 23.1875 
z
" id="ArialMT-54"/>
       </defs>
       <use xlink:href="#ArialMT-54"/>
       <use x="55.615234" xlink:href="#ArialMT-48"/>
      </g>
     </g>
    </g>
    <g id="xtick_5">
     <g id="line2d_5">
      <path clip-path="url(#p484430e211)" d="M 234.15596 307.584 
L 234.15596 41.472 
" style="fill:none;stroke:#ffffff;stroke-linecap:round;"/>
     </g>
     <g id="text_5">
      <!-- 80 -->
      <g style="fill:#262626;" transform="translate(228.038928 324.957594)scale(0.11 -0.11)">
       <defs>
        <path d="M 17.671875 38.8125 
Q 12.203125 40.828125 9.5625 44.53125 
Q 6.9375 48.25 6.9375 53.421875 
Q 6.9375 61.234375 12.546875 66.546875 
Q 18.171875 71.875 27.484375 71.875 
Q 36.859375 71.875 42.578125 66.421875 
Q 48.296875 60.984375 48.296875 53.171875 
Q 48.296875 48.1875 45.671875 44.5 
Q 43.0625 40.828125 37.75 38.8125 
Q 44.34375 36.671875 47.78125 31.875 
Q 51.21875 27.09375 51.21875 20.453125 
Q 51.21875 11.28125 44.71875 5.03125 
Q 38.234375 -1.21875 27.640625 -1.21875 
Q 17.046875 -1.21875 10.546875 5.046875 
Q 4.046875 11.328125 4.046875 20.703125 
Q 4.046875 27.6875 7.59375 32.390625 
Q 11.140625 37.109375 17.671875 38.8125 
z
M 15.921875 53.71875 
Q 15.921875 48.640625 19.1875 45.40625 
Q 22.46875 42.1875 27.6875 42.1875 
Q 32.765625 42.1875 36.015625 45.375 
Q 39.265625 48.578125 39.265625 53.21875 
Q 39.265625 58.0625 35.90625 61.359375 
Q 32.5625 64.65625 27.59375 64.65625 
Q 22.5625 64.65625 19.234375 61.421875 
Q 15.921875 58.203125 15.921875 53.71875 
z
M 13.09375 20.65625 
Q 13.09375 16.890625 14.875 13.375 
Q 16.65625 9.859375 20.171875 7.921875 
Q 23.6875 6 27.734375 6 
Q 34.03125 6 38.125 10.046875 
Q 42.234375 14.109375 42.234375 20.359375 
Q 42.234375 26.703125 38.015625 30.859375 
Q 33.796875 35.015625 27.4375 35.015625 
Q 21.234375 35.015625 17.15625 30.90625 
Q 13.09375 26.8125 13.09375 20.65625 
z
" id="ArialMT-56"/>
       </defs>
       <use xlink:href="#ArialMT-56"/>
       <use x="55.615234" xlink:href="#ArialMT-48"/>
      </g>
     </g>
    </g>
    <g id="xtick_6">
     <g id="line2d_6">
      <path clip-path="url(#p484430e211)" d="M 274.236768 307.584 
L 274.236768 41.472 
" style="fill:none;stroke:#ffffff;stroke-linecap:round;"/>
     </g>
     <g id="text_6">
      <!-- 100 -->
      <g style="fill:#262626;" transform="translate(265.061221 324.957594)scale(0.11 -0.11)">
       <defs>
        <path d="M 37.25 0 
L 28.46875 0 
L 28.46875 56 
Q 25.296875 52.984375 20.140625 49.953125 
Q 14.984375 46.921875 10.890625 45.40625 
L 10.890625 53.90625 
Q 18.265625 57.375 23.78125 62.296875 
Q 29.296875 67.234375 31.59375 71.875 
L 37.25 71.875 
z
" id="ArialMT-49"/>
       </defs>
       <use xlink:href="#ArialMT-49"/>
       <use x="55.615234" xlink:href="#ArialMT-48"/>
       <use x="111.230469" xlink:href="#ArialMT-48"/>
      </g>
     </g>
    </g>
    <g id="xtick_7">
     <g id="line2d_7">
      <path clip-path="url(#p484430e211)" d="M 314.317576 307.584 
L 314.317576 41.472 
" style="fill:none;stroke:#ffffff;stroke-linecap:round;"/>
     </g>
     <g id="text_7">
      <!-- 120 -->
      <g style="fill:#262626;" transform="translate(305.142029 324.957594)scale(0.11 -0.11)">
       <use xlink:href="#ArialMT-49"/>
       <use x="55.615234" xlink:href="#ArialMT-50"/>
       <use x="111.230469" xlink:href="#ArialMT-48"/>
      </g>
     </g>
    </g>
    <g id="xtick_8">
     <g id="line2d_8">
      <path clip-path="url(#p484430e211)" d="M 354.398384 307.584 
L 354.398384 41.472 
" style="fill:none;stroke:#ffffff;stroke-linecap:round;"/>
     </g>
     <g id="text_8">
      <!-- 140 -->
      <g style="fill:#262626;" transform="translate(345.222837 324.957594)scale(0.11 -0.11)">
       <use xlink:href="#ArialMT-49"/>
       <use x="55.615234" xlink:href="#ArialMT-52"/>
       <use x="111.230469" xlink:href="#ArialMT-48"/>
      </g>
     </g>
    </g>
    <g id="xtick_9">
     <g id="line2d_9">
      <path clip-path="url(#p484430e211)" d="M 394.479192 307.584 
L 394.479192 41.472 
" style="fill:none;stroke:#ffffff;stroke-linecap:round;"/>
     </g>
     <g id="text_9">
      <!-- 160 -->
      <g style="fill:#262626;" transform="translate(385.303645 324.957594)scale(0.11 -0.11)">
       <use xlink:href="#ArialMT-49"/>
       <use x="55.615234" xlink:href="#ArialMT-54"/>
       <use x="111.230469" xlink:href="#ArialMT-48"/>
      </g>
     </g>
    </g>
    <g id="text_10">
     <!-- Период -->
     <g style="fill:#262626;" transform="translate(215.120625 339.733219)scale(0.12 -0.12)">
      <defs>
       <path d="M 7.8125 71.578125 
L 64.109375 71.578125 
L 64.109375 0 
L 54.59375 0 
L 54.59375 63.140625 
L 17.28125 63.140625 
L 17.28125 0 
L 7.8125 0 
z
" id="ArialMT-1055"/>
       <path d="M 42.09375 16.703125 
L 51.171875 15.578125 
Q 49.03125 7.625 43.21875 3.21875 
Q 37.40625 -1.171875 28.375 -1.171875 
Q 17 -1.171875 10.328125 5.828125 
Q 3.65625 12.84375 3.65625 25.484375 
Q 3.65625 38.578125 10.390625 45.796875 
Q 17.140625 53.03125 27.875 53.03125 
Q 38.28125 53.03125 44.875 45.953125 
Q 51.46875 38.875 51.46875 26.03125 
Q 51.46875 25.25 51.421875 23.6875 
L 12.75 23.6875 
Q 13.234375 15.140625 17.578125 10.59375 
Q 21.921875 6.0625 28.421875 6.0625 
Q 33.25 6.0625 36.671875 8.59375 
Q 40.09375 11.140625 42.09375 16.703125 
z
M 13.234375 30.90625 
L 42.1875 30.90625 
Q 41.609375 37.453125 38.875 40.71875 
Q 34.671875 45.796875 27.984375 45.796875 
Q 21.921875 45.796875 17.796875 41.75 
Q 13.671875 37.703125 13.234375 30.90625 
z
" id="ArialMT-1077"/>
       <path d="M 6.59375 -19.875 
L 6.59375 51.859375 
L 14.59375 51.859375 
L 14.59375 45.125 
Q 17.4375 49.078125 21 51.046875 
Q 24.5625 53.03125 29.640625 53.03125 
Q 36.28125 53.03125 41.359375 49.609375 
Q 46.4375 46.1875 49.015625 39.953125 
Q 51.609375 33.734375 51.609375 26.3125 
Q 51.609375 18.359375 48.75 11.984375 
Q 45.90625 5.609375 40.453125 2.21875 
Q 35.015625 -1.171875 29 -1.171875 
Q 24.609375 -1.171875 21.109375 0.6875 
Q 17.625 2.546875 15.375 5.375 
L 15.375 -19.875 
z
M 14.546875 25.640625 
Q 14.546875 15.625 18.59375 10.84375 
Q 22.65625 6.0625 28.421875 6.0625 
Q 34.28125 6.0625 38.453125 11.015625 
Q 42.625 15.96875 42.625 26.375 
Q 42.625 36.28125 38.546875 41.203125 
Q 34.46875 46.140625 28.8125 46.140625 
Q 23.1875 46.140625 18.859375 40.890625 
Q 14.546875 35.640625 14.546875 25.640625 
z
" id="ArialMT-1088"/>
       <path d="M 6.59375 51.859375 
L 15.375 51.859375 
L 15.375 12.3125 
L 39.75 51.859375 
L 49.21875 51.859375 
L 49.21875 0 
L 40.4375 0 
L 40.4375 39.3125 
L 16.0625 0 
L 6.59375 0 
z
" id="ArialMT-1080"/>
       <path d="M 3.328125 25.921875 
Q 3.328125 40.328125 11.328125 47.265625 
Q 18.015625 53.03125 27.640625 53.03125 
Q 38.328125 53.03125 45.109375 46.015625 
Q 51.90625 39.015625 51.90625 26.65625 
Q 51.90625 16.65625 48.90625 10.90625 
Q 45.90625 5.171875 40.15625 2 
Q 34.421875 -1.171875 27.640625 -1.171875 
Q 16.75 -1.171875 10.03125 5.8125 
Q 3.328125 12.796875 3.328125 25.921875 
z
M 12.359375 25.921875 
Q 12.359375 15.96875 16.703125 11.015625 
Q 21.046875 6.0625 27.640625 6.0625 
Q 34.1875 6.0625 38.53125 11.03125 
Q 42.875 16.015625 42.875 26.21875 
Q 42.875 35.84375 38.5 40.796875 
Q 34.125 45.75 27.640625 45.75 
Q 21.046875 45.75 16.703125 40.8125 
Q 12.359375 35.890625 12.359375 25.921875 
z
" id="ArialMT-1086"/>
       <path d="M 13.53125 51.859375 
L 49.65625 51.859375 
L 49.65625 7.234375 
L 55.28125 7.234375 
L 55.28125 -14.703125 
L 48.046875 -14.703125 
L 48.046875 0 
L 7.234375 0 
L 7.234375 -14.703125 
L 0 -14.703125 
L 0 7.234375 
L 4.640625 7.234375 
Q 13.921875 19.828125 13.53125 51.859375 
z
M 20.84375 44.578125 
Q 19.875 19.34375 13.03125 7.234375 
L 40.921875 7.234375 
L 40.921875 44.578125 
z
" id="ArialMT-1076"/>
      </defs>
      <use xlink:href="#ArialMT-1055"/>
      <use x="71.875" xlink:href="#ArialMT-1077"/>
      <use x="127.490234" xlink:href="#ArialMT-1088"/>
      <use x="183.105469" xlink:href="#ArialMT-1080"/>
      <use x="238.964844" xlink:href="#ArialMT-1086"/>
      <use x="292.330078" xlink:href="#ArialMT-1076"/>
     </g>
    </g>
   </g>
   <g id="matplotlib.axis_2">
    <g id="ytick_1">
     <g id="line2d_10">
      <path clip-path="url(#p484430e211)" d="M 57.6 305.446953 
L 414.72 305.446953 
" style="fill:none;stroke:#ffffff;stroke-linecap:round;"/>
     </g>
     <g id="text_11">
      <!-- 0.0 -->
      <g style="fill:#262626;" transform="translate(32.81 309.38375)scale(0.11 -0.11)">
       <defs>
        <path d="M 9.078125 0 
L 9.078125 10.015625 
L 19.09375 10.015625 
L 19.09375 0 
z
" id="ArialMT-46"/>
       </defs>
       <use xlink:href="#ArialMT-48"/>
       <use x="55.615234" xlink:href="#ArialMT-46"/>
       <use x="83.398438" xlink:href="#ArialMT-48"/>
      </g>
     </g>
    </g>
    <g id="ytick_2">
     <g id="line2d_11">
      <path clip-path="url(#p484430e211)" d="M 57.6 270.540003 
L 414.72 270.540003 
" style="fill:none;stroke:#ffffff;stroke-linecap:round;"/>
     </g>
     <g id="text_12">
      <!-- 0.2 -->
      <g style="fill:#262626;" transform="translate(32.81 274.4768)scale(0.11 -0.11)">
       <use xlink:href="#ArialMT-48"/>
       <use x="55.615234" xlink:href="#ArialMT-46"/>
       <use x="83.398438" xlink:href="#ArialMT-50"/>
      </g>
     </g>
    </g>
    <g id="ytick_3">
     <g id="line2d_12">
      <path clip-path="url(#p484430e211)" d="M 57.6 235.633053 
L 414.72 235.633053 
" style="fill:none;stroke:#ffffff;stroke-linecap:round;"/>
     </g>
     <g id="text_13">
      <!-- 0.4 -->
      <g style="fill:#262626;" transform="translate(32.81 239.569849)scale(0.11 -0.11)">
       <use xlink:href="#ArialMT-48"/>
       <use x="55.615234" xlink:href="#ArialMT-46"/>
       <use x="83.398438" xlink:href="#ArialMT-52"/>
      </g>
     </g>
    </g>
    <g id="ytick_4">
     <g id="line2d_13">
      <path clip-path="url(#p484430e211)" d="M 57.6 200.726102 
L 414.72 200.726102 
" style="fill:none;stroke:#ffffff;stroke-linecap:round;"/>
     </g>
     <g id="text_14">
      <!-- 0.6 -->
      <g style="fill:#262626;" transform="translate(32.81 204.662899)scale(0.11 -0.11)">
       <use xlink:href="#ArialMT-48"/>
       <use x="55.615234" xlink:href="#ArialMT-46"/>
       <use x="83.398438" xlink:href="#ArialMT-54"/>
      </g>
     </g>
    </g>
    <g id="ytick_5">
     <g id="line2d_14">
      <path clip-path="url(#p484430e211)" d="M 57.6 165.819152 
L 414.72 165.819152 
" style="fill:none;stroke:#ffffff;stroke-linecap:round;"/>
     </g>
     <g id="text_15">
      <!-- 0.8 -->
      <g style="fill:#262626;" transform="translate(32.81 169.755949)scale(0.11 -0.11)">
       <use xlink:href="#ArialMT-48"/>
       <use x="55.615234" xlink:href="#ArialMT-46"/>
       <use x="83.398438" xlink:href="#ArialMT-56"/>
      </g>
     </g>
    </g>
    <g id="ytick_6">
     <g id="line2d_15">
      <path clip-path="url(#p484430e211)" d="M 57.6 130.912202 
L 414.72 130.912202 
" style="fill:none;stroke:#ffffff;stroke-linecap:round;"/>
     </g>
     <g id="text_16">
      <!-- 1.0 -->
      <g style="fill:#262626;" transform="translate(32.81 134.848999)scale(0.11 -0.11)">
       <use xlink:href="#ArialMT-49"/>
       <use x="55.615234" xlink:href="#ArialMT-46"/>
       <use x="83.398438" xlink:href="#ArialMT-48"/>
      </g>
     </g>
    </g>
    <g id="ytick_7">
     <g id="line2d_16">
      <path clip-path="url(#p484430e211)" d="M 57.6 96.005252 
L 414.72 96.005252 
" style="fill:none;stroke:#ffffff;stroke-linecap:round;"/>
     </g>
     <g id="text_17">
      <!-- 1.2 -->
      <g style="fill:#262626;" transform="translate(32.81 99.942049)scale(0.11 -0.11)">
       <use xlink:href="#ArialMT-49"/>
       <use x="55.615234" xlink:href="#ArialMT-46"/>
       <use x="83.398438" xlink:href="#ArialMT-50"/>
      </g>
     </g>
    </g>
    <g id="ytick_8">
     <g id="line2d_17">
      <path clip-path="url(#p484430e211)" d="M 57.6 61.098302 
L 414.72 61.098302 
" style="fill:none;stroke:#ffffff;stroke-linecap:round;"/>
     </g>
     <g id="text_18">
      <!-- 1.4 -->
      <g style="fill:#262626;" transform="translate(32.81 65.035099)scale(0.11 -0.11)">
       <use xlink:href="#ArialMT-49"/>
       <use x="55.615234" xlink:href="#ArialMT-46"/>
       <use x="83.398438" xlink:href="#ArialMT-52"/>
      </g>
     </g>
    </g>
    <g id="text_19">
     <!-- Количество пользователей -->
     <g style="fill:#262626;" transform="translate(26.425 249.83175)rotate(-90)scale(0.12 -0.12)">
      <defs>
       <path d="M 7.859375 71.578125 
L 17.328125 71.578125 
L 17.328125 40.234375 
Q 23.828125 40.234375 26.46875 42.75 
Q 29.109375 45.265625 33.203125 54.828125 
Q 36.1875 61.859375 38.109375 64.765625 
Q 40.046875 67.671875 43.609375 69.640625 
Q 47.171875 71.625 51.46875 71.625 
Q 56.9375 71.625 57.234375 71.53125 
L 57.234375 63.328125 
Q 56.734375 63.328125 55.328125 63.375 
Q 53.765625 63.421875 53.421875 63.421875 
Q 48.875 63.421875 46.6875 61.234375 
Q 44.4375 59.03125 41.546875 51.859375 
Q 37.9375 42.78125 35.4375 40.40625 
Q 32.953125 38.03125 29.5 36.625 
Q 36.421875 34.71875 43.171875 23.828125 
L 57.90625 0 
L 46.140625 0 
L 34.1875 19.4375 
Q 29.25 27.484375 25.921875 30.484375 
Q 22.609375 33.5 17.328125 33.5 
L 17.328125 0 
L 7.859375 0 
z
" id="ArialMT-1050"/>
       <path d="M 10.890625 51.859375 
L 51.703125 51.859375 
L 51.703125 0 
L 42.96875 0 
L 42.96875 44.578125 
L 19.671875 44.578125 
L 19.671875 18.75 
Q 19.671875 9.71875 19.078125 6.828125 
Q 18.5 3.953125 15.859375 1.796875 
Q 13.234375 -0.34375 8.25 -0.34375 
Q 5.171875 -0.34375 1.171875 0.046875 
L 1.171875 7.375 
L 5.03125 7.375 
Q 7.765625 7.375 8.9375 7.9375 
Q 10.109375 8.5 10.5 9.71875 
Q 10.890625 10.9375 10.890625 17.671875 
z
" id="ArialMT-1083"/>
       <path d="M 3.375 51.859375 
L 12.15625 51.859375 
L 12.15625 42.046875 
Q 12.15625 35.6875 12.90625 32.828125 
Q 13.671875 29.984375 16.546875 27.859375 
Q 19.4375 25.734375 23.78125 25.734375 
Q 28.765625 25.734375 36.671875 28.375 
L 36.671875 51.859375 
L 45.453125 51.859375 
L 45.453125 0 
L 36.671875 0 
L 36.671875 20.90625 
Q 28.5625 18.359375 21.53125 18.359375 
Q 15.625 18.359375 11.109375 21.359375 
Q 6.59375 24.359375 4.984375 28.703125 
Q 3.375 33.0625 3.375 38.28125 
z
" id="ArialMT-1095"/>
       <path d="M 40.4375 19 
L 49.078125 17.875 
Q 47.65625 8.9375 41.8125 3.875 
Q 35.984375 -1.171875 27.484375 -1.171875 
Q 16.84375 -1.171875 10.375 5.78125 
Q 3.90625 12.75 3.90625 25.734375 
Q 3.90625 34.125 6.6875 40.421875 
Q 9.46875 46.734375 15.15625 49.875 
Q 20.84375 53.03125 27.546875 53.03125 
Q 35.984375 53.03125 41.359375 48.75 
Q 46.734375 44.484375 48.25 36.625 
L 39.703125 35.296875 
Q 38.484375 40.53125 35.375 43.15625 
Q 32.28125 45.796875 27.875 45.796875 
Q 21.234375 45.796875 17.078125 41.03125 
Q 12.9375 36.28125 12.9375 25.984375 
Q 12.9375 15.53125 16.9375 10.796875 
Q 20.953125 6.0625 27.390625 6.0625 
Q 32.5625 6.0625 36.03125 9.234375 
Q 39.5 12.40625 40.4375 19 
z
" id="ArialMT-1089"/>
       <path d="M 1.859375 51.859375 
L 44 51.859375 
L 44 44.578125 
L 27.296875 44.578125 
L 27.296875 0 
L 18.5625 0 
L 18.5625 44.578125 
L 1.859375 44.578125 
z
" id="ArialMT-1090"/>
       <path d="M 6.640625 51.859375 
L 26.90625 51.859375 
Q 34.375 51.859375 38.015625 50.609375 
Q 41.65625 49.359375 44.265625 46.03125 
Q 46.875 42.71875 46.875 38.09375 
Q 46.875 34.375 45.328125 31.609375 
Q 43.796875 28.859375 40.71875 27 
Q 44.390625 25.78125 46.796875 22.4375 
Q 49.21875 19.09375 49.21875 14.5 
Q 48.734375 7.125 43.9375 3.5625 
Q 39.15625 0 30.03125 0 
L 6.640625 0 
z
M 15.4375 30.03125 
L 24.8125 30.03125 
Q 30.421875 30.03125 32.515625 30.609375 
Q 34.625 31.203125 36.28125 32.984375 
Q 37.9375 34.765625 37.9375 37.25 
Q 37.9375 41.359375 35.03125 42.96875 
Q 32.125 44.578125 25.09375 44.578125 
L 15.4375 44.578125 
z
M 15.4375 7.234375 
L 27 7.234375 
Q 34.46875 7.234375 37.25 8.953125 
Q 40.046875 10.6875 40.1875 14.9375 
Q 40.1875 17.4375 38.578125 19.5625 
Q 36.96875 21.6875 34.375 22.234375 
Q 31.78125 22.796875 26.078125 22.796875 
L 15.4375 22.796875 
z
" id="ArialMT-1074"/>
       <path id="ArialMT-32"/>
       <path d="M 6.640625 51.859375 
L 47.5625 51.859375 
L 47.5625 0 
L 38.765625 0 
L 38.765625 44.578125 
L 15.4375 44.578125 
L 15.4375 0 
L 6.640625 0 
z
" id="ArialMT-1087"/>
       <path d="M 6.453125 51.859375 
L 15.234375 51.859375 
L 15.234375 31.59375 
L 26.375 31.59375 
Q 37.25 31.59375 43.140625 27.359375 
Q 49.03125 23.140625 49.03125 15.71875 
Q 49.03125 9.234375 44.109375 4.609375 
Q 39.203125 0 28.421875 0 
L 6.453125 0 
z
M 15.234375 7.234375 
L 24.46875 7.234375 
Q 32.8125 7.234375 36.375 9.28125 
Q 39.9375 11.328125 39.9375 15.671875 
Q 39.9375 19.046875 37.296875 21.671875 
Q 34.671875 24.3125 25.640625 24.3125 
L 15.234375 24.3125 
z
" id="ArialMT-1100"/>
       <path d="M 18.0625 23.4375 
L 18.0625 30.328125 
Q 23.640625 30.375 25.65625 30.765625 
Q 27.6875 31.15625 29.484375 33.109375 
Q 31.296875 35.0625 31.296875 37.984375 
Q 31.296875 41.546875 28.921875 43.671875 
Q 26.5625 45.796875 22.796875 45.796875 
Q 15.375 45.796875 12.40625 37.0625 
L 4.046875 38.421875 
Q 7.953125 53.03125 22.90625 53.03125 
Q 31.203125 53.03125 35.90625 48.484375 
Q 40.625 43.953125 40.625 37.640625 
Q 40.625 31.296875 34.46875 27.546875 
Q 38.375 25.4375 40.328125 22.1875 
Q 42.28125 18.953125 42.28125 14.5 
Q 42.28125 7.515625 37.203125 3.171875 
Q 32.125 -1.171875 23 -1.171875 
Q 5.28125 -1.171875 2.4375 14.59375 
L 10.6875 16.359375 
Q 11.8125 11.375 15.25 8.640625 
Q 18.703125 5.90625 23.140625 5.90625 
Q 27.59375 5.90625 30.546875 8.421875 
Q 33.5 10.9375 33.5 14.84375 
Q 33.5 17.875 31.640625 20.109375 
Q 29.78125 22.359375 27.6875 22.921875 
Q 25.59375 23.484375 20.0625 23.484375 
Q 19.625 23.484375 18.0625 23.4375 
z
" id="ArialMT-1079"/>
       <path d="M 40.4375 6.390625 
Q 35.546875 2.25 31.03125 0.53125 
Q 26.515625 -1.171875 21.34375 -1.171875 
Q 12.796875 -1.171875 8.203125 3 
Q 3.609375 7.171875 3.609375 13.671875 
Q 3.609375 17.484375 5.34375 20.625 
Q 7.078125 23.78125 9.890625 25.6875 
Q 12.703125 27.59375 16.21875 28.5625 
Q 18.796875 29.25 24.03125 29.890625 
Q 34.671875 31.15625 39.703125 32.90625 
Q 39.75 34.71875 39.75 35.203125 
Q 39.75 40.578125 37.25 42.78125 
Q 33.890625 45.75 27.25 45.75 
Q 21.046875 45.75 18.09375 43.578125 
Q 15.140625 41.40625 13.71875 35.890625 
L 5.125 37.0625 
Q 6.296875 42.578125 8.984375 45.96875 
Q 11.671875 49.359375 16.75 51.1875 
Q 21.828125 53.03125 28.515625 53.03125 
Q 35.15625 53.03125 39.296875 51.46875 
Q 43.453125 49.90625 45.40625 47.53125 
Q 47.359375 45.171875 48.140625 41.546875 
Q 48.578125 39.3125 48.578125 33.453125 
L 48.578125 21.734375 
Q 48.578125 9.46875 49.140625 6.21875 
Q 49.703125 2.984375 51.375 0 
L 42.1875 0 
Q 40.828125 2.734375 40.4375 6.390625 
z
M 39.703125 26.03125 
Q 34.90625 24.078125 25.34375 22.703125 
Q 19.921875 21.921875 17.671875 20.9375 
Q 15.4375 19.96875 14.203125 18.09375 
Q 12.984375 16.21875 12.984375 13.921875 
Q 12.984375 10.40625 15.640625 8.0625 
Q 18.3125 5.71875 23.4375 5.71875 
Q 28.515625 5.71875 32.46875 7.9375 
Q 36.421875 10.15625 38.28125 14.015625 
Q 39.703125 17 39.703125 22.796875 
z
" id="ArialMT-1072"/>
       <path d="M 6.59375 51.859375 
L 15.375 51.859375 
L 15.375 12.3125 
L 39.75 51.859375 
L 49.21875 51.859375 
L 49.21875 0 
L 40.4375 0 
L 40.4375 39.3125 
L 16.0625 0 
L 6.59375 0 
z
M 37.09375 71.484375 
L 43.109375 71.484375 
Q 42.375 65.375 38.640625 62.109375 
Q 34.90625 58.84375 28.703125 58.84375 
Q 22.453125 58.84375 18.71875 62.078125 
Q 14.984375 65.328125 14.25 71.484375 
L 20.25 71.484375 
Q 20.9375 68.171875 22.953125 66.53125 
Q 24.984375 64.890625 28.40625 64.890625 
Q 32.359375 64.890625 34.390625 66.46875 
Q 36.421875 68.0625 37.09375 71.484375 
z
" id="ArialMT-1081"/>
      </defs>
      <use xlink:href="#ArialMT-1050"/>
      <use x="58.251953" xlink:href="#ArialMT-1086"/>
      <use x="111.617188" xlink:href="#ArialMT-1083"/>
      <use x="169.966797" xlink:href="#ArialMT-1080"/>
      <use x="225.826172" xlink:href="#ArialMT-1095"/>
      <use x="277.925781" xlink:href="#ArialMT-1077"/>
      <use x="333.541016" xlink:href="#ArialMT-1089"/>
      <use x="383.541016" xlink:href="#ArialMT-1090"/>
      <use x="429.341797" xlink:href="#ArialMT-1074"/>
      <use x="481.341797" xlink:href="#ArialMT-1086"/>
      <use x="536.957031" xlink:href="#ArialMT-32"/>
      <use x="564.740234" xlink:href="#ArialMT-1087"/>
      <use x="618.890625" xlink:href="#ArialMT-1086"/>
      <use x="672.255859" xlink:href="#ArialMT-1083"/>
      <use x="730.605469" xlink:href="#ArialMT-1100"/>
      <use x="782.705078" xlink:href="#ArialMT-1079"/>
      <use x="827.429688" xlink:href="#ArialMT-1086"/>
      <use x="883.044922" xlink:href="#ArialMT-1074"/>
      <use x="935.044922" xlink:href="#ArialMT-1072"/>
      <use x="988.410156" xlink:href="#ArialMT-1090"/>
      <use x="1033.085938" xlink:href="#ArialMT-1077"/>
      <use x="1085.326172" xlink:href="#ArialMT-1083"/>
      <use x="1143.675781" xlink:href="#ArialMT-1077"/>
      <use x="1199.291016" xlink:href="#ArialMT-1081"/>
     </g>
    </g>
    <g id="text_20">
     <!-- 1e6 -->
     <g style="fill:#262626;" transform="translate(57.6 38.472)scale(0.11 -0.11)">
      <defs>
       <path d="M 42.09375 16.703125 
L 51.171875 15.578125 
Q 49.03125 7.625 43.21875 3.21875 
Q 37.40625 -1.171875 28.375 -1.171875 
Q 17 -1.171875 10.328125 5.828125 
Q 3.65625 12.84375 3.65625 25.484375 
Q 3.65625 38.578125 10.390625 45.796875 
Q 17.140625 53.03125 27.875 53.03125 
Q 38.28125 53.03125 44.875 45.953125 
Q 51.46875 38.875 51.46875 26.03125 
Q 51.46875 25.25 51.421875 23.6875 
L 12.75 23.6875 
Q 13.234375 15.140625 17.578125 10.59375 
Q 21.921875 6.0625 28.421875 6.0625 
Q 33.25 6.0625 36.671875 8.59375 
Q 40.09375 11.140625 42.09375 16.703125 
z
M 13.234375 30.90625 
L 42.1875 30.90625 
Q 41.609375 37.453125 38.875 40.71875 
Q 34.671875 45.796875 27.984375 45.796875 
Q 21.921875 45.796875 17.796875 41.75 
Q 13.671875 37.703125 13.234375 30.90625 
z
" id="ArialMT-101"/>
      </defs>
      <use xlink:href="#ArialMT-49"/>
      <use x="55.615234" xlink:href="#ArialMT-101"/>
      <use x="111.230469" xlink:href="#ArialMT-54"/>
     </g>
    </g>
   </g>
   <g id="line2d_18">
    <path clip-path="url(#p484430e211)" d="M 73.832727 295.012393 
L 75.836768 293.281357 
L 77.840808 294.091373 
L 79.844848 294.462085 
L 81.848889 292.311817 
L 83.852929 292.397513 
L 85.85697 291.293406 
L 87.86101 291.260245 
L 89.865051 292.408683 
L 91.869091 293.089543 
L 93.873131 292.392626 
L 95.877172 290.386175 
L 97.881212 292.619347 
L 99.885253 292.741696 
L 101.889293 293.562184 
L 103.893333 289.943904 
L 105.897374 288.669625 
L 107.901414 289.941111 
L 109.905455 290.114424 
L 111.909495 290.974706 
L 115.917576 287.072982 
L 117.921616 286.794599 
L 119.925657 285.807779 
L 121.929697 285.035114 
L 123.933737 288.499978 
L 125.937778 287.539164 
L 127.941818 285.071941 
L 129.945859 283.61091 
L 131.949899 285.625739 
L 133.953939 284.613089 
L 135.95798 285.670769 
L 137.96202 286.16191 
L 139.966061 284.759872 
L 141.970101 284.209739 
L 143.974141 284.759872 
L 145.978182 288.388624 
L 147.982222 288.695282 
L 149.986263 288.447792 
L 151.990303 287.399536 
L 153.994343 285.585771 
L 155.998384 286.504522 
L 158.002424 284.578531 
L 160.006465 286.07761 
L 162.010505 285.411062 
L 166.018586 286.350757 
L 168.022626 289.260076 
L 170.026667 290.410435 
L 172.030707 289.54579 
L 174.034747 285.944963 
L 176.038788 288.30572 
L 178.042828 287.293593 
L 180.046869 288.673989 
L 182.050909 288.489855 
L 184.054949 289.399006 
L 186.05899 288.773997 
L 188.06303 288.698424 
L 190.067071 290.930898 
L 192.071111 290.569785 
L 194.075152 292.848162 
L 196.079192 292.600323 
L 198.083232 292.889876 
L 200.087273 291.662896 
L 202.091313 292.648669 
L 204.095354 292.867012 
L 206.099394 292.614285 
L 208.103434 291.638112 
L 210.107475 292.760022 
L 212.111515 293.019031 
L 214.115556 293.060745 
L 216.119596 293.626587 
L 218.123636 295.072607 
L 220.127677 294.626846 
L 222.131717 295.234226 
L 224.135758 294.28947 
L 226.139798 294.376563 
L 228.143838 295.149577 
L 230.147879 294.826513 
L 232.151919 295.478052 
L 234.15596 294.935074 
L 236.16 291.82853 
L 238.16404 294.467321 
L 240.168081 295.060739 
L 242.172121 295.488 
L 244.176162 295.042238 
L 248.184242 295.427611 
L 250.188283 295.470372 
L 252.192323 295.230561 
L 254.196364 291.253787 
L 256.200404 293.271234 
L 258.204444 291.921382 
L 260.208485 292.303963 
L 262.212525 292.441321 
L 264.216566 293.956458 
L 266.220606 294.131516 
L 268.224646 293.522739 
L 272.232727 293.195486 
L 274.236768 292.198718 
L 276.240808 291.934996 
L 278.244848 291.967285 
L 280.248889 292.667169 
L 282.252929 292.218964 
L 284.25697 291.192351 
L 286.26101 290.961965 
L 288.265051 293.052018 
L 290.269091 292.473959 
L 292.273131 292.32386 
L 294.277172 291.908641 
L 296.281212 291.337913 
L 298.285253 291.287472 
L 300.289293 289.156752 
L 302.293333 287.786829 
L 304.297374 289.498316 
L 306.301414 288.777313 
L 308.305455 288.706976 
L 310.309495 288.874704 
L 312.313535 287.929773 
L 314.317576 289.072277 
L 316.321616 288.674861 
L 318.325657 287.183462 
L 320.329697 287.525725 
L 322.333737 286.197515 
L 324.337778 285.218375 
L 326.341818 284.572597 
L 328.345859 284.970361 
L 330.349899 284.672081 
L 332.353939 285.733253 
L 334.35798 280.809453 
L 336.36202 284.715366 
L 338.366061 283.694338 
L 340.370101 280.984162 
L 342.374141 277.480028 
L 344.378182 280.010258 
L 346.382222 275.354718 
L 348.386263 276.304187 
L 350.390303 270.339113 
L 352.394343 272.524812 
L 354.398384 271.455961 
L 356.402424 271.935583 
L 358.406465 268.039269 
L 360.410505 268.7217 
L 362.414545 265.587405 
L 364.418586 258.527474 
L 366.422626 259.473627 
L 368.426667 257.535768 
L 370.430707 249.639117 
L 372.434747 247.063682 
L 374.438788 233.446656 
L 378.446869 223.893496 
L 380.450909 195.787293 
L 384.45899 199.92045 
L 388.467071 159.290505 
L 390.471111 134.533798 
L 392.475152 114.944716 
L 394.479192 87.486734 
L 396.483232 66.440287 
L 398.487273 53.568 
L 398.487273 53.568 
" style="fill:none;stroke:#4c72b0;stroke-linecap:round;stroke-width:1.5;"/>
   </g>
   <g id="patch_3">
    <path d="M 57.6 307.584 
L 57.6 41.472 
" style="fill:none;stroke:#ffffff;stroke-linecap:square;stroke-linejoin:miter;stroke-width:1.25;"/>
   </g>
   <g id="patch_4">
    <path d="M 414.72 307.584 
L 414.72 41.472 
" style="fill:none;stroke:#ffffff;stroke-linecap:square;stroke-linejoin:miter;stroke-width:1.25;"/>
   </g>
   <g id="patch_5">
    <path d="M 57.6 307.584 
L 414.72 307.584 
" style="fill:none;stroke:#ffffff;stroke-linecap:square;stroke-linejoin:miter;stroke-width:1.25;"/>
   </g>
   <g id="patch_6">
    <path d="M 57.6 41.472 
L 414.72 41.472 
" style="fill:none;stroke:#ffffff;stroke-linecap:square;stroke-linejoin:miter;stroke-width:1.25;"/>
   </g>
  </g>
 </g>
 <defs>
  <clipPath id="p484430e211">
   <rect height="266.112" width="357.12" x="57.6" y="41.472"/>
  </clipPath>
 </defs>
</svg>
