<?xml version="1.0" encoding="utf-8" standalone="no"?>
<!DOCTYPE svg PUBLIC "-//W3C//DTD SVG 1.1//EN"
  "http://www.w3.org/Graphics/SVG/1.1/DTD/svg11.dtd">
<!-- Created with matplotlib (https://matplotlib.org/) -->
<svg height="345.6pt" version="1.1" viewBox="0 0 460.8 345.6" width="460.8pt" xmlns="http://www.w3.org/2000/svg" xmlns:xlink="http://www.w3.org/1999/xlink">
 <metadata>
  <rdf:RDF xmlns:cc="http://creativecommons.org/ns#" xmlns:dc="http://purl.org/dc/elements/1.1/" xmlns:rdf="http://www.w3.org/1999/02/22-rdf-syntax-ns#">
   <cc:Work>
    <dc:type rdf:resource="http://purl.org/dc/dcmitype/StillImage"/>
    <dc:date>2021-10-06T21:42:43.578207</dc:date>
    <dc:format>image/svg+xml</dc:format>
    <dc:creator>
     <cc:Agent>
      <dc:title>Matplotlib v3.3.3, https://matplotlib.org/</dc:title>
     </cc:Agent>
    </dc:creator>
   </cc:Work>
  </rdf:RDF>
 </metadata>
 <defs>
  <style type="text/css">*{stroke-linecap:butt;stroke-linejoin:round;}</style>
 </defs>
 <g id="figure_1">
  <g id="patch_1">
   <path d="M 0 345.6 
L 460.8 345.6 
L 460.8 0 
L 0 0 
z
" style="fill:#ffffff;"/>
  </g>
  <g id="axes_1">
   <g id="patch_2">
    <path d="M 57.6 307.584 
L 414.72 307.584 
L 414.72 41.472 
L 57.6 41.472 
z
" style="fill:#eaeaf2;"/>
   </g>
   <g id="matplotlib.axis_1">
    <g id="xtick_1">
     <g id="line2d_1">
      <path clip-path="url(#p98cc858df9)" d="M 73.832727 307.584 
L 73.832727 41.472 
" style="fill:none;stroke:#ffffff;stroke-linecap:round;"/>
     </g>
     <g id="text_1">
      <!-- 0 -->
      <g style="fill:#262626;" transform="translate(70.774212 324.957594)scale(0.11 -0.11)">
       <defs>
        <path d="M 4.15625 35.296875 
Q 4.15625 48 6.765625 55.734375 
Q 9.375 63.484375 14.515625 67.671875 
Q 19.671875 71.875 27.484375 71.875 
Q 33.25 71.875 37.59375 69.546875 
Q 41.9375 67.234375 44.765625 62.859375 
Q 47.609375 58.5 49.21875 52.21875 
Q 50.828125 45.953125 50.828125 35.296875 
Q 50.828125 22.703125 48.234375 14.96875 
Q 45.65625 7.234375 40.5 3 
Q 35.359375 -1.21875 27.484375 -1.21875 
Q 17.140625 -1.21875 11.234375 6.203125 
Q 4.15625 15.140625 4.15625 35.296875 
z
M 13.1875 35.296875 
Q 13.1875 17.671875 17.3125 11.828125 
Q 21.4375 6 27.484375 6 
Q 33.546875 6 37.671875 11.859375 
Q 41.796875 17.71875 41.796875 35.296875 
Q 41.796875 52.984375 37.671875 58.78125 
Q 33.546875 64.59375 27.390625 64.59375 
Q 21.34375 64.59375 17.71875 59.46875 
Q 13.1875 52.9375 13.1875 35.296875 
z
" id="ArialMT-48"/>
       </defs>
       <use xlink:href="#ArialMT-48"/>
      </g>
     </g>
    </g>
    <g id="xtick_2">
     <g id="line2d_2">
      <path clip-path="url(#p98cc858df9)" d="M 121.505935 307.584 
L 121.505935 41.472 
" style="fill:none;stroke:#ffffff;stroke-linecap:round;"/>
     </g>
     <g id="text_2">
      <!-- 500 -->
      <g style="fill:#262626;" transform="translate(112.330388 324.957594)scale(0.11 -0.11)">
       <defs>
        <path d="M 4.15625 18.75 
L 13.375 19.53125 
Q 14.40625 12.796875 18.140625 9.390625 
Q 21.875 6 27.15625 6 
Q 33.5 6 37.890625 10.78125 
Q 42.28125 15.578125 42.28125 23.484375 
Q 42.28125 31 38.0625 35.34375 
Q 33.84375 39.703125 27 39.703125 
Q 22.75 39.703125 19.328125 37.765625 
Q 15.921875 35.84375 13.96875 32.765625 
L 5.71875 33.84375 
L 12.640625 70.609375 
L 48.25 70.609375 
L 48.25 62.203125 
L 19.671875 62.203125 
L 15.828125 42.96875 
Q 22.265625 47.46875 29.34375 47.46875 
Q 38.71875 47.46875 45.15625 40.96875 
Q 51.609375 34.46875 51.609375 24.265625 
Q 51.609375 14.546875 45.953125 7.46875 
Q 39.0625 -1.21875 27.15625 -1.21875 
Q 17.390625 -1.21875 11.203125 4.25 
Q 5.03125 9.71875 4.15625 18.75 
z
" id="ArialMT-53"/>
       </defs>
       <use xlink:href="#ArialMT-53"/>
       <use x="55.615234" xlink:href="#ArialMT-48"/>
       <use x="111.230469" xlink:href="#ArialMT-48"/>
      </g>
     </g>
    </g>
    <g id="xtick_3">
     <g id="line2d_3">
      <path clip-path="url(#p98cc858df9)" d="M 169.179143 307.584 
L 169.179143 41.472 
" style="fill:none;stroke:#ffffff;stroke-linecap:round;"/>
     </g>
     <g id="text_3">
      <!-- 1000 -->
      <g style="fill:#262626;" transform="translate(156.94508 324.957594)scale(0.11 -0.11)">
       <defs>
        <path d="M 37.25 0 
L 28.46875 0 
L 28.46875 56 
Q 25.296875 52.984375 20.140625 49.953125 
Q 14.984375 46.921875 10.890625 45.40625 
L 10.890625 53.90625 
Q 18.265625 57.375 23.78125 62.296875 
Q 29.296875 67.234375 31.59375 71.875 
L 37.25 71.875 
z
" id="ArialMT-49"/>
       </defs>
       <use xlink:href="#ArialMT-49"/>
       <use x="55.615234" xlink:href="#ArialMT-48"/>
       <use x="111.230469" xlink:href="#ArialMT-48"/>
       <use x="166.845703" xlink:href="#ArialMT-48"/>
      </g>
     </g>
    </g>
    <g id="xtick_4">
     <g id="line2d_4">
      <path clip-path="url(#p98cc858df9)" d="M 216.852351 307.584 
L 216.852351 41.472 
" style="fill:none;stroke:#ffffff;stroke-linecap:round;"/>
     </g>
     <g id="text_4">
      <!-- 1500 -->
      <g style="fill:#262626;" transform="translate(204.618288 324.957594)scale(0.11 -0.11)">
       <use xlink:href="#ArialMT-49"/>
       <use x="55.615234" xlink:href="#ArialMT-53"/>
       <use x="111.230469" xlink:href="#ArialMT-48"/>
       <use x="166.845703" xlink:href="#ArialMT-48"/>
      </g>
     </g>
    </g>
    <g id="xtick_5">
     <g id="line2d_5">
      <path clip-path="url(#p98cc858df9)" d="M 264.525559 307.584 
L 264.525559 41.472 
" style="fill:none;stroke:#ffffff;stroke-linecap:round;"/>
     </g>
     <g id="text_5">
      <!-- 2000 -->
      <g style="fill:#262626;" transform="translate(252.291496 324.957594)scale(0.11 -0.11)">
       <defs>
        <path d="M 50.34375 8.453125 
L 50.34375 0 
L 3.03125 0 
Q 2.9375 3.171875 4.046875 6.109375 
Q 5.859375 10.9375 9.828125 15.625 
Q 13.8125 20.3125 21.34375 26.46875 
Q 33.015625 36.03125 37.109375 41.625 
Q 41.21875 47.21875 41.21875 52.203125 
Q 41.21875 57.421875 37.46875 61 
Q 33.734375 64.59375 27.734375 64.59375 
Q 21.390625 64.59375 17.578125 60.78125 
Q 13.765625 56.984375 13.71875 50.25 
L 4.6875 51.171875 
Q 5.609375 61.28125 11.65625 66.578125 
Q 17.71875 71.875 27.9375 71.875 
Q 38.234375 71.875 44.234375 66.15625 
Q 50.25 60.453125 50.25 52 
Q 50.25 47.703125 48.484375 43.546875 
Q 46.734375 39.40625 42.65625 34.8125 
Q 38.578125 30.21875 29.109375 22.21875 
Q 21.1875 15.578125 18.9375 13.203125 
Q 16.703125 10.84375 15.234375 8.453125 
z
" id="ArialMT-50"/>
       </defs>
       <use xlink:href="#ArialMT-50"/>
       <use x="55.615234" xlink:href="#ArialMT-48"/>
       <use x="111.230469" xlink:href="#ArialMT-48"/>
       <use x="166.845703" xlink:href="#ArialMT-48"/>
      </g>
     </g>
    </g>
    <g id="xtick_6">
     <g id="line2d_6">
      <path clip-path="url(#p98cc858df9)" d="M 312.198767 307.584 
L 312.198767 41.472 
" style="fill:none;stroke:#ffffff;stroke-linecap:round;"/>
     </g>
     <g id="text_6">
      <!-- 2500 -->
      <g style="fill:#262626;" transform="translate(299.964704 324.957594)scale(0.11 -0.11)">
       <use xlink:href="#ArialMT-50"/>
       <use x="55.615234" xlink:href="#ArialMT-53"/>
       <use x="111.230469" xlink:href="#ArialMT-48"/>
       <use x="166.845703" xlink:href="#ArialMT-48"/>
      </g>
     </g>
    </g>
    <g id="xtick_7">
     <g id="line2d_7">
      <path clip-path="url(#p98cc858df9)" d="M 359.871974 307.584 
L 359.871974 41.472 
" style="fill:none;stroke:#ffffff;stroke-linecap:round;"/>
     </g>
     <g id="text_7">
      <!-- 3000 -->
      <g style="fill:#262626;" transform="translate(347.637912 324.957594)scale(0.11 -0.11)">
       <defs>
        <path d="M 4.203125 18.890625 
L 12.984375 20.0625 
Q 14.5 12.59375 18.140625 9.296875 
Q 21.78125 6 27 6 
Q 33.203125 6 37.46875 10.296875 
Q 41.75 14.59375 41.75 20.953125 
Q 41.75 27 37.796875 30.921875 
Q 33.84375 34.859375 27.734375 34.859375 
Q 25.25 34.859375 21.53125 33.890625 
L 22.515625 41.609375 
Q 23.390625 41.5 23.921875 41.5 
Q 29.546875 41.5 34.03125 44.421875 
Q 38.53125 47.359375 38.53125 53.46875 
Q 38.53125 58.296875 35.25 61.46875 
Q 31.984375 64.65625 26.8125 64.65625 
Q 21.6875 64.65625 18.265625 61.421875 
Q 14.84375 58.203125 13.875 51.765625 
L 5.078125 53.328125 
Q 6.6875 62.15625 12.390625 67.015625 
Q 18.109375 71.875 26.609375 71.875 
Q 32.46875 71.875 37.390625 69.359375 
Q 42.328125 66.84375 44.9375 62.5 
Q 47.5625 58.15625 47.5625 53.265625 
Q 47.5625 48.640625 45.0625 44.828125 
Q 42.578125 41.015625 37.703125 38.765625 
Q 44.046875 37.3125 47.5625 32.6875 
Q 51.078125 28.078125 51.078125 21.140625 
Q 51.078125 11.765625 44.234375 5.25 
Q 37.40625 -1.265625 26.953125 -1.265625 
Q 17.53125 -1.265625 11.296875 4.34375 
Q 5.078125 9.96875 4.203125 18.890625 
z
" id="ArialMT-51"/>
       </defs>
       <use xlink:href="#ArialMT-51"/>
       <use x="55.615234" xlink:href="#ArialMT-48"/>
       <use x="111.230469" xlink:href="#ArialMT-48"/>
       <use x="166.845703" xlink:href="#ArialMT-48"/>
      </g>
     </g>
    </g>
    <g id="xtick_8">
     <g id="line2d_8">
      <path clip-path="url(#p98cc858df9)" d="M 407.545182 307.584 
L 407.545182 41.472 
" style="fill:none;stroke:#ffffff;stroke-linecap:round;"/>
     </g>
     <g id="text_8">
      <!-- 3500 -->
      <g style="fill:#262626;" transform="translate(395.31112 324.957594)scale(0.11 -0.11)">
       <use xlink:href="#ArialMT-51"/>
       <use x="55.615234" xlink:href="#ArialMT-53"/>
       <use x="111.230469" xlink:href="#ArialMT-48"/>
       <use x="166.845703" xlink:href="#ArialMT-48"/>
      </g>
     </g>
    </g>
    <g id="text_9">
     <!-- Период -->
     <g style="fill:#262626;" transform="translate(215.120625 339.733219)scale(0.12 -0.12)">
      <defs>
       <path d="M 7.8125 71.578125 
L 64.109375 71.578125 
L 64.109375 0 
L 54.59375 0 
L 54.59375 63.140625 
L 17.28125 63.140625 
L 17.28125 0 
L 7.8125 0 
z
" id="ArialMT-1055"/>
       <path d="M 42.09375 16.703125 
L 51.171875 15.578125 
Q 49.03125 7.625 43.21875 3.21875 
Q 37.40625 -1.171875 28.375 -1.171875 
Q 17 -1.171875 10.328125 5.828125 
Q 3.65625 12.84375 3.65625 25.484375 
Q 3.65625 38.578125 10.390625 45.796875 
Q 17.140625 53.03125 27.875 53.03125 
Q 38.28125 53.03125 44.875 45.953125 
Q 51.46875 38.875 51.46875 26.03125 
Q 51.46875 25.25 51.421875 23.6875 
L 12.75 23.6875 
Q 13.234375 15.140625 17.578125 10.59375 
Q 21.921875 6.0625 28.421875 6.0625 
Q 33.25 6.0625 36.671875 8.59375 
Q 40.09375 11.140625 42.09375 16.703125 
z
M 13.234375 30.90625 
L 42.1875 30.90625 
Q 41.609375 37.453125 38.875 40.71875 
Q 34.671875 45.796875 27.984375 45.796875 
Q 21.921875 45.796875 17.796875 41.75 
Q 13.671875 37.703125 13.234375 30.90625 
z
" id="ArialMT-1077"/>
       <path d="M 6.59375 -19.875 
L 6.59375 51.859375 
L 14.59375 51.859375 
L 14.59375 45.125 
Q 17.4375 49.078125 21 51.046875 
Q 24.5625 53.03125 29.640625 53.03125 
Q 36.28125 53.03125 41.359375 49.609375 
Q 46.4375 46.1875 49.015625 39.953125 
Q 51.609375 33.734375 51.609375 26.3125 
Q 51.609375 18.359375 48.75 11.984375 
Q 45.90625 5.609375 40.453125 2.21875 
Q 35.015625 -1.171875 29 -1.171875 
Q 24.609375 -1.171875 21.109375 0.6875 
Q 17.625 2.546875 15.375 5.375 
L 15.375 -19.875 
z
M 14.546875 25.640625 
Q 14.546875 15.625 18.59375 10.84375 
Q 22.65625 6.0625 28.421875 6.0625 
Q 34.28125 6.0625 38.453125 11.015625 
Q 42.625 15.96875 42.625 26.375 
Q 42.625 36.28125 38.546875 41.203125 
Q 34.46875 46.140625 28.8125 46.140625 
Q 23.1875 46.140625 18.859375 40.890625 
Q 14.546875 35.640625 14.546875 25.640625 
z
" id="ArialMT-1088"/>
       <path d="M 6.59375 51.859375 
L 15.375 51.859375 
L 15.375 12.3125 
L 39.75 51.859375 
L 49.21875 51.859375 
L 49.21875 0 
L 40.4375 0 
L 40.4375 39.3125 
L 16.0625 0 
L 6.59375 0 
z
" id="ArialMT-1080"/>
       <path d="M 3.328125 25.921875 
Q 3.328125 40.328125 11.328125 47.265625 
Q 18.015625 53.03125 27.640625 53.03125 
Q 38.328125 53.03125 45.109375 46.015625 
Q 51.90625 39.015625 51.90625 26.65625 
Q 51.90625 16.65625 48.90625 10.90625 
Q 45.90625 5.171875 40.15625 2 
Q 34.421875 -1.171875 27.640625 -1.171875 
Q 16.75 -1.171875 10.03125 5.8125 
Q 3.328125 12.796875 3.328125 25.921875 
z
M 12.359375 25.921875 
Q 12.359375 15.96875 16.703125 11.015625 
Q 21.046875 6.0625 27.640625 6.0625 
Q 34.1875 6.0625 38.53125 11.03125 
Q 42.875 16.015625 42.875 26.21875 
Q 42.875 35.84375 38.5 40.796875 
Q 34.125 45.75 27.640625 45.75 
Q 21.046875 45.75 16.703125 40.8125 
Q 12.359375 35.890625 12.359375 25.921875 
z
" id="ArialMT-1086"/>
       <path d="M 13.53125 51.859375 
L 49.65625 51.859375 
L 49.65625 7.234375 
L 55.28125 7.234375 
L 55.28125 -14.703125 
L 48.046875 -14.703125 
L 48.046875 0 
L 7.234375 0 
L 7.234375 -14.703125 
L 0 -14.703125 
L 0 7.234375 
L 4.640625 7.234375 
Q 13.921875 19.828125 13.53125 51.859375 
z
M 20.84375 44.578125 
Q 19.875 19.34375 13.03125 7.234375 
L 40.921875 7.234375 
L 40.921875 44.578125 
z
" id="ArialMT-1076"/>
      </defs>
      <use xlink:href="#ArialMT-1055"/>
      <use x="71.875" xlink:href="#ArialMT-1077"/>
      <use x="127.490234" xlink:href="#ArialMT-1088"/>
      <use x="183.105469" xlink:href="#ArialMT-1080"/>
      <use x="238.964844" xlink:href="#ArialMT-1086"/>
      <use x="292.330078" xlink:href="#ArialMT-1076"/>
     </g>
    </g>
   </g>
   <g id="matplotlib.axis_2">
    <g id="ytick_1">
     <g id="line2d_9">
      <path clip-path="url(#p98cc858df9)" d="M 57.6 296.675198 
L 414.72 296.675198 
" style="fill:none;stroke:#ffffff;stroke-linecap:round;"/>
     </g>
     <g id="text_10">
      <!-- 500 -->
      <g style="fill:#262626;" transform="translate(29.748906 300.611995)scale(0.11 -0.11)">
       <use xlink:href="#ArialMT-53"/>
       <use x="55.615234" xlink:href="#ArialMT-48"/>
       <use x="111.230469" xlink:href="#ArialMT-48"/>
      </g>
     </g>
    </g>
    <g id="ytick_2">
     <g id="line2d_10">
      <path clip-path="url(#p98cc858df9)" d="M 57.6 253.092291 
L 414.72 253.092291 
" style="fill:none;stroke:#ffffff;stroke-linecap:round;"/>
     </g>
     <g id="text_11">
      <!-- 1000 -->
      <g style="fill:#262626;" transform="translate(23.631875 257.029088)scale(0.11 -0.11)">
       <use xlink:href="#ArialMT-49"/>
       <use x="55.615234" xlink:href="#ArialMT-48"/>
       <use x="111.230469" xlink:href="#ArialMT-48"/>
       <use x="166.845703" xlink:href="#ArialMT-48"/>
      </g>
     </g>
    </g>
    <g id="ytick_3">
     <g id="line2d_11">
      <path clip-path="url(#p98cc858df9)" d="M 57.6 209.509384 
L 414.72 209.509384 
" style="fill:none;stroke:#ffffff;stroke-linecap:round;"/>
     </g>
     <g id="text_12">
      <!-- 1500 -->
      <g style="fill:#262626;" transform="translate(23.631875 213.446181)scale(0.11 -0.11)">
       <use xlink:href="#ArialMT-49"/>
       <use x="55.615234" xlink:href="#ArialMT-53"/>
       <use x="111.230469" xlink:href="#ArialMT-48"/>
       <use x="166.845703" xlink:href="#ArialMT-48"/>
      </g>
     </g>
    </g>
    <g id="ytick_4">
     <g id="line2d_12">
      <path clip-path="url(#p98cc858df9)" d="M 57.6 165.926477 
L 414.72 165.926477 
" style="fill:none;stroke:#ffffff;stroke-linecap:round;"/>
     </g>
     <g id="text_13">
      <!-- 2000 -->
      <g style="fill:#262626;" transform="translate(23.631875 169.863274)scale(0.11 -0.11)">
       <use xlink:href="#ArialMT-50"/>
       <use x="55.615234" xlink:href="#ArialMT-48"/>
       <use x="111.230469" xlink:href="#ArialMT-48"/>
       <use x="166.845703" xlink:href="#ArialMT-48"/>
      </g>
     </g>
    </g>
    <g id="ytick_5">
     <g id="line2d_13">
      <path clip-path="url(#p98cc858df9)" d="M 57.6 122.343571 
L 414.72 122.343571 
" style="fill:none;stroke:#ffffff;stroke-linecap:round;"/>
     </g>
     <g id="text_14">
      <!-- 2500 -->
      <g style="fill:#262626;" transform="translate(23.631875 126.280367)scale(0.11 -0.11)">
       <use xlink:href="#ArialMT-50"/>
       <use x="55.615234" xlink:href="#ArialMT-53"/>
       <use x="111.230469" xlink:href="#ArialMT-48"/>
       <use x="166.845703" xlink:href="#ArialMT-48"/>
      </g>
     </g>
    </g>
    <g id="ytick_6">
     <g id="line2d_14">
      <path clip-path="url(#p98cc858df9)" d="M 57.6 78.760664 
L 414.72 78.760664 
" style="fill:none;stroke:#ffffff;stroke-linecap:round;"/>
     </g>
     <g id="text_15">
      <!-- 3000 -->
      <g style="fill:#262626;" transform="translate(23.631875 82.69746)scale(0.11 -0.11)">
       <use xlink:href="#ArialMT-51"/>
       <use x="55.615234" xlink:href="#ArialMT-48"/>
       <use x="111.230469" xlink:href="#ArialMT-48"/>
       <use x="166.845703" xlink:href="#ArialMT-48"/>
      </g>
     </g>
    </g>
    <g id="text_16">
     <!-- Значение индекса -->
     <g style="fill:#262626;" transform="translate(17.246875 225.328312)rotate(-90)scale(0.12 -0.12)">
      <defs>
       <path d="M 3.8125 20.21875 
L 12.84375 22.5625 
Q 13.875 17.328125 18.328125 12.109375 
Q 22.796875 6.890625 30.171875 6.890625 
Q 37.703125 6.890625 42.046875 10.734375 
Q 46.390625 14.59375 46.390625 20.0625 
Q 46.390625 25.984375 41.796875 29.46875 
Q 37.203125 32.953125 29.296875 32.953125 
L 24.75 32.953125 
L 24.75 41.21875 
Q 31.296875 41.21875 34.765625 41.96875 
Q 38.234375 42.71875 40.890625 45.8125 
Q 43.5625 48.921875 43.5625 52.875 
Q 43.5625 57.5625 39.921875 61.03125 
Q 36.28125 64.5 30.078125 64.5 
Q 24.65625 64.5 20.828125 61.78125 
Q 17 59.078125 15.53125 54.609375 
Q 14.0625 50.140625 14.0625 47.953125 
L 4.984375 50 
Q 8.34375 72.796875 30.171875 72.796875 
Q 40.671875 72.796875 46.828125 66.96875 
Q 52.984375 61.140625 52.984375 53.328125 
Q 52.984375 43.3125 43.5 37.796875 
Q 48.96875 36.28125 52.65625 31.609375 
Q 56.34375 26.953125 56.34375 20.453125 
Q 56.34375 11.234375 49.1875 5 
Q 42.046875 -1.21875 30.21875 -1.21875 
Q 9.90625 -1.21875 3.8125 20.21875 
z
" id="ArialMT-1047"/>
       <path d="M 6.640625 51.859375 
L 15.4375 51.859375 
L 15.4375 30.28125 
L 39.796875 30.28125 
L 39.796875 51.859375 
L 48.578125 51.859375 
L 48.578125 0 
L 39.796875 0 
L 39.796875 23 
L 15.4375 23 
L 15.4375 0 
L 6.640625 0 
z
" id="ArialMT-1085"/>
       <path d="M 40.4375 6.390625 
Q 35.546875 2.25 31.03125 0.53125 
Q 26.515625 -1.171875 21.34375 -1.171875 
Q 12.796875 -1.171875 8.203125 3 
Q 3.609375 7.171875 3.609375 13.671875 
Q 3.609375 17.484375 5.34375 20.625 
Q 7.078125 23.78125 9.890625 25.6875 
Q 12.703125 27.59375 16.21875 28.5625 
Q 18.796875 29.25 24.03125 29.890625 
Q 34.671875 31.15625 39.703125 32.90625 
Q 39.75 34.71875 39.75 35.203125 
Q 39.75 40.578125 37.25 42.78125 
Q 33.890625 45.75 27.25 45.75 
Q 21.046875 45.75 18.09375 43.578125 
Q 15.140625 41.40625 13.71875 35.890625 
L 5.125 37.0625 
Q 6.296875 42.578125 8.984375 45.96875 
Q 11.671875 49.359375 16.75 51.1875 
Q 21.828125 53.03125 28.515625 53.03125 
Q 35.15625 53.03125 39.296875 51.46875 
Q 43.453125 49.90625 45.40625 47.53125 
Q 47.359375 45.171875 48.140625 41.546875 
Q 48.578125 39.3125 48.578125 33.453125 
L 48.578125 21.734375 
Q 48.578125 9.46875 49.140625 6.21875 
Q 49.703125 2.984375 51.375 0 
L 42.1875 0 
Q 40.828125 2.734375 40.4375 6.390625 
z
M 39.703125 26.03125 
Q 34.90625 24.078125 25.34375 22.703125 
Q 19.921875 21.921875 17.671875 20.9375 
Q 15.4375 19.96875 14.203125 18.09375 
Q 12.984375 16.21875 12.984375 13.921875 
Q 12.984375 10.40625 15.640625 8.0625 
Q 18.3125 5.71875 23.4375 5.71875 
Q 28.515625 5.71875 32.46875 7.9375 
Q 36.421875 10.15625 38.28125 14.015625 
Q 39.703125 17 39.703125 22.796875 
z
" id="ArialMT-1072"/>
       <path d="M 3.375 51.859375 
L 12.15625 51.859375 
L 12.15625 42.046875 
Q 12.15625 35.6875 12.90625 32.828125 
Q 13.671875 29.984375 16.546875 27.859375 
Q 19.4375 25.734375 23.78125 25.734375 
Q 28.765625 25.734375 36.671875 28.375 
L 36.671875 51.859375 
L 45.453125 51.859375 
L 45.453125 0 
L 36.671875 0 
L 36.671875 20.90625 
Q 28.5625 18.359375 21.53125 18.359375 
Q 15.625 18.359375 11.109375 21.359375 
Q 6.59375 24.359375 4.984375 28.703125 
Q 3.375 33.0625 3.375 38.28125 
z
" id="ArialMT-1095"/>
       <path id="ArialMT-32"/>
       <path d="M 6.546875 51.859375 
L 15.328125 51.859375 
L 15.328125 29.4375 
Q 19.53125 29.4375 21.21875 31.046875 
Q 22.90625 32.671875 26.171875 40.4375 
Q 28.765625 46.578125 30.375 48.53125 
Q 31.984375 50.484375 34.078125 51.171875 
Q 36.1875 51.859375 40.828125 51.859375 
L 42.578125 51.859375 
L 42.578125 44.578125 
L 40.140625 44.625 
Q 36.671875 44.625 35.6875 43.609375 
Q 34.671875 42.53125 32.5625 37.203125 
Q 30.5625 32.125 28.90625 30.171875 
Q 27.25 28.21875 23.78125 26.609375 
Q 29.4375 25.09375 34.90625 16.0625 
L 44.53125 0 
L 34.859375 0 
L 25.484375 16.0625 
Q 22.609375 20.90625 20.453125 22.4375 
Q 18.3125 23.96875 15.328125 23.96875 
L 15.328125 0 
L 6.546875 0 
z
" id="ArialMT-1082"/>
       <path d="M 40.4375 19 
L 49.078125 17.875 
Q 47.65625 8.9375 41.8125 3.875 
Q 35.984375 -1.171875 27.484375 -1.171875 
Q 16.84375 -1.171875 10.375 5.78125 
Q 3.90625 12.75 3.90625 25.734375 
Q 3.90625 34.125 6.6875 40.421875 
Q 9.46875 46.734375 15.15625 49.875 
Q 20.84375 53.03125 27.546875 53.03125 
Q 35.984375 53.03125 41.359375 48.75 
Q 46.734375 44.484375 48.25 36.625 
L 39.703125 35.296875 
Q 38.484375 40.53125 35.375 43.15625 
Q 32.28125 45.796875 27.875 45.796875 
Q 21.234375 45.796875 17.078125 41.03125 
Q 12.9375 36.28125 12.9375 25.984375 
Q 12.9375 15.53125 16.9375 10.796875 
Q 20.953125 6.0625 27.390625 6.0625 
Q 32.5625 6.0625 36.03125 9.234375 
Q 39.5 12.40625 40.4375 19 
z
" id="ArialMT-1089"/>
      </defs>
      <use xlink:href="#ArialMT-1047"/>
      <use x="60.400391" xlink:href="#ArialMT-1085"/>
      <use x="115.625" xlink:href="#ArialMT-1072"/>
      <use x="168.990234" xlink:href="#ArialMT-1095"/>
      <use x="221.089844" xlink:href="#ArialMT-1077"/>
      <use x="276.705078" xlink:href="#ArialMT-1085"/>
      <use x="331.929688" xlink:href="#ArialMT-1080"/>
      <use x="387.789062" xlink:href="#ArialMT-1077"/>
      <use x="443.404297" xlink:href="#ArialMT-32"/>
      <use x="471.1875" xlink:href="#ArialMT-1080"/>
      <use x="527.046875" xlink:href="#ArialMT-1085"/>
      <use x="582.271484" xlink:href="#ArialMT-1076"/>
      <use x="640.621094" xlink:href="#ArialMT-1077"/>
      <use x="696.236328" xlink:href="#ArialMT-1082"/>
      <use x="741.111328" xlink:href="#ArialMT-1089"/>
      <use x="791.111328" xlink:href="#ArialMT-1072"/>
     </g>
    </g>
   </g>
   <g id="line2d_15">
    <path clip-path="url(#p98cc858df9)" d="M 73.832727 199.059075 
L 73.928074 199.763375 
L 74.02342 199.458294 
L 74.118767 200.100706 
L 74.309459 201.868429 
L 74.404806 201.307081 
L 74.500152 199.848797 
L 74.690845 194.491586 
L 74.786191 193.62603 
L 74.881538 194.659816 
L 74.976884 191.981211 
L 75.072231 194.378271 
L 75.167577 194.198709 
L 75.262924 196.004785 
L 75.35827 194.457592 
L 75.453616 196.008272 
L 75.548963 194.753955 
L 75.644309 195.043346 
L 76.216388 187.391059 
L 76.311734 190.045258 
L 76.40708 188.796172 
L 76.597773 184.096191 
L 76.69312 183.970673 
L 76.788466 184.241758 
L 76.883813 186.180326 
L 76.979159 183.382303 
L 77.074505 184.091833 
L 77.169852 182.725073 
L 77.265198 186.243085 
L 77.360545 185.048914 
L 77.551237 191.813853 
L 77.646584 191.846976 
L 77.74193 189.075974 
L 77.837277 192.674179 
L 78.02797 190.727767 
L 78.123316 192.998436 
L 78.218662 192.764832 
L 78.314009 189.869183 
L 78.504702 196.946176 
L 78.600048 193.816923 
L 78.695394 194.09411 
L 78.886087 200.845974 
L 78.981434 197.497064 
L 79.172127 200.215765 
L 79.362819 197.823935 
L 79.458166 197.828294 
L 79.553512 195.883624 
L 79.744205 197.238181 
L 79.839551 197.213775 
L 80.030244 193.929367 
L 80.220937 196.085849 
L 80.316284 194.417495 
L 80.41163 197.470914 
L 80.506976 197.215518 
L 80.602323 196.552186 
L 80.697669 197.681855 
L 80.793016 194.997148 
L 80.983708 196.588796 
L 81.079055 194.773132 
L 81.174401 189.396745 
L 81.269748 190.629269 
L 81.460441 188.906001 
L 81.555787 191.751965 
L 81.74648 187.240262 
L 81.841826 186.895086 
L 81.937173 189.165755 
L 82.032519 183.790239 
L 82.223212 185.292978 
L 82.509251 180.919869 
L 82.604598 181.793271 
L 82.699944 179.104205 
L 82.79529 180.290532 
L 82.890637 179.927051 
L 82.985983 181.48296 
L 83.08133 180.941661 
L 83.367369 185.769775 
L 83.462715 183.415426 
L 83.558062 184.052608 
L 83.844101 177.083702 
L 83.939447 178.510606 
L 84.034794 176.845739 
L 84.13014 177.563985 
L 84.225487 176.437803 
L 84.320833 173.977984 
L 84.416179 174.33362 
L 84.511526 173.135962 
L 84.797565 177.378322 
L 84.892911 176.560707 
L 85.178951 182.850592 
L 85.274297 181.964987 
L 85.46499 185.378401 
L 85.655683 181.890896 
L 85.751029 184.066555 
L 86.037068 178.945563 
L 86.227761 180.332372 
L 86.323108 175.044893 
L 86.418454 175.413605 
L 86.79984 168.549297 
L 87.085879 175.723043 
L 87.181225 173.890818 
L 87.276572 174.693615 
L 87.467265 171.923485 
L 87.562611 172.088229 
L 87.943997 175.614086 
L 88.13469 173.571791 
L 88.230036 173.380898 
L 88.325382 171.928715 
L 88.420729 172.779454 
L 88.611422 182.887202 
L 88.706768 184.375994 
L 88.897461 197.585973 
L 88.992807 203.329328 
L 89.1835 191.622959 
L 89.278847 197.713235 
L 89.374193 193.95726 
L 89.564886 203.030349 
L 89.755579 194.013046 
L 90.041618 202.365274 
L 90.136964 203.505403 
L 90.423004 193.096062 
L 90.51835 193.130928 
L 90.613696 195.971662 
L 90.804389 191.512259 
L 90.899736 193.520559 
L 90.995082 190.069665 
L 91.090429 190.236151 
L 91.185775 189.807296 
L 91.376468 192.991463 
L 91.567161 197.017652 
L 91.662507 197.637401 
L 91.757853 195.941154 
L 91.8532 196.259309 
L 91.948546 199.110503 
L 92.139239 194.045297 
L 92.425278 202.360044 
L 92.520625 200.109423 
L 92.615971 200.573145 
L 92.711318 203.479253 
L 92.806664 202.843815 
L 92.90201 198.757481 
L 93.092703 201.339333 
L 93.283396 198.363492 
L 93.378742 198.314679 
L 93.569435 196.185218 
L 93.664782 198.07323 
L 93.760128 197.738513 
L 93.855475 194.361709 
L 93.950821 195.947255 
L 94.141514 193.422062 
L 94.332207 197.455224 
L 94.522899 192.896452 
L 94.618246 194.45149 
L 94.713592 191.498312 
L 94.904285 193.735859 
L 94.999632 194.378271 
L 95.094978 196.717801 
L 95.285671 194.225731 
L 95.476364 194.922185 
L 95.57171 192.566965 
L 95.667056 193.09519 
L 95.762403 192.560864 
L 96.239135 174.276962 
L 96.334481 175.052738 
L 96.525174 169.74957 
L 96.620521 171.961838 
L 96.715867 170.037217 
L 96.811213 175.091963 
L 96.90656 173.800165 
L 97.001906 175.086733 
L 97.097253 178.40775 
L 97.192599 177.149076 
L 97.383292 172.442994 
L 97.573985 174.548048 
L 97.669331 179.631558 
L 97.764678 179.613254 
L 97.860024 178.792152 
L 97.95537 182.262223 
L 98.050717 180.926842 
L 98.146063 182.375538 
L 98.432103 178.426927 
L 98.622795 179.130355 
L 98.813488 183.273346 
L 98.908835 186.689374 
L 99.004181 186.469717 
L 99.099527 187.067674 
L 99.194874 186.331123 
L 99.29022 187.398032 
L 99.385567 192.668078 
L 99.480913 191.276911 
L 99.957645 195.933309 
L 100.052992 195.600336 
L 100.148338 198.874283 
L 100.243684 194.998891 
L 100.339031 198.240588 
L 100.434377 197.227721 
L 100.529724 193.008896 
L 100.62507 198.780144 
L 100.720416 197.797786 
L 101.006456 203.100082 
L 101.197149 213.330734 
L 101.292495 214.825627 
L 101.387841 209.404785 
L 101.483188 209.916449 
L 101.578534 210.15877 
L 101.769227 218.447367 
L 101.864573 217.172131 
L 101.95992 215.184751 
L 102.055266 221.745721 
L 102.245959 213.925205 
L 102.341306 216.095633 
L 102.531998 212.978584 
L 102.627345 213.986221 
L 102.722691 221.578363 
L 102.913384 218.702763 
L 103.00873 220.432133 
L 103.199423 227.559681 
L 103.29477 226.717659 
L 103.390116 221.251491 
L 103.485463 222.678396 
L 103.676155 220.928978 
L 103.962195 232.633603 
L 104.057541 229.228035 
L 104.248234 243.096988 
L 104.34358 246.727444 
L 104.438927 241.084329 
L 104.534273 247.212957 
L 104.724966 265.824602 
L 104.915659 243.87625 
L 105.011005 246.887829 
L 105.106352 243.877122 
L 105.297044 246.202705 
L 105.392391 251.380355 
L 105.487737 250.681285 
L 105.583084 251.595654 
L 105.773777 259.668952 
L 105.964469 275.340494 
L 106.059816 284.657648 
L 106.155162 279.209784 
L 106.250509 282.173422 
L 106.345855 274.428739 
L 106.631894 287.989997 
L 106.822587 283.38154 
L 107.01328 288.057114 
L 107.108626 295.488 
L 107.203973 293.635726 
L 107.585358 273.408899 
L 107.680705 272.688038 
L 107.776051 279.190608 
L 107.966744 275.623783 
L 108.157437 288.095467 
L 108.252783 288.649842 
L 108.34813 291.370287 
L 108.443476 289.774281 
L 108.729515 295.199481 
L 108.824862 287.534119 
L 108.920208 288.381371 
L 109.015555 289.002863 
L 109.110901 286.50382 
L 109.206247 286.9719 
L 109.301594 290.813297 
L 109.39694 289.709778 
L 109.492287 290.835089 
L 109.587633 290.753153 
L 109.68298 291.241282 
L 109.778326 286.365226 
L 109.873672 287.278724 
L 110.064365 285.441268 
L 110.159712 286.169103 
L 110.350404 284.069278 
L 110.445751 284.26453 
L 110.541097 287.256061 
L 110.636444 286.908269 
L 110.827137 282.612738 
L 111.113176 287.213349 
L 111.208522 286.757472 
L 111.399215 286.256269 
L 111.685254 283.150551 
L 111.875947 287.462644 
L 111.971294 287.206376 
L 112.161986 290.589281 
L 112.257333 289.406441 
L 112.448026 292.001367 
L 112.543372 286.776649 
L 112.638718 287.705836 
L 112.734065 285.9939 
L 112.829411 286.280675 
L 113.020104 285.656568 
L 113.115451 285.690563 
L 113.210797 284.830236 
L 113.306143 285.937242 
L 113.592183 276.800521 
L 113.687529 276.914708 
L 113.782875 280.084057 
L 113.878222 276.434425 
L 113.973568 278.196917 
L 114.164261 285.522332 
L 114.259608 283.903663 
L 114.4503 285.403787 
L 114.545647 285.101322 
L 114.640993 281.656529 
L 114.73634 282.201315 
L 114.831686 283.880129 
L 114.927032 283.23946 
L 115.022379 280.492865 
L 115.117725 281.690523 
L 115.213072 280.212191 
L 115.308418 274.867183 
L 115.499111 276.781345 
L 115.78515 272.927744 
L 115.880497 275.489547 
L 116.166536 266.182853 
L 116.261882 269.149106 
L 116.357229 266.04949 
L 116.452575 266.208131 
L 116.643268 273.71921 
L 116.738614 272.885033 
L 116.833961 271.639433 
L 117.024654 267.218383 
L 117.12 267.37964 
L 117.215346 266.747688 
L 117.501386 259.422273 
L 117.596732 261.385247 
L 117.692078 260.186717 
L 117.787425 261.285878 
L 117.978118 258.941118 
L 118.168811 263.795382 
L 118.359503 259.356027 
L 118.45485 259.804931 
L 118.645543 262.900189 
L 118.931582 256.773304 
L 119.026928 256.836063 
L 119.408314 247.902439 
L 119.599007 253.038249 
L 119.694353 252.901398 
L 119.7897 251.968724 
L 119.980392 244.835074 
L 120.075739 250.096402 
L 120.171085 248.382722 
L 120.266432 248.651193 
L 120.361778 249.52721 
L 120.552471 246.553112 
L 120.743164 235.118701 
L 120.83851 235.782904 
L 120.933857 243.572913 
L 121.029203 242.592297 
L 121.124549 240.516879 
L 121.315242 243.170207 
L 121.505935 241.018083 
L 121.601282 246.284641 
L 121.696628 244.426266 
L 121.887321 251.266168 
L 121.982667 251.585194 
L 122.17336 260.300904 
L 122.268706 254.411982 
L 122.459399 256.564977 
L 122.554746 254.024966 
L 122.650092 255.572159 
L 122.745439 252.004462 
L 123.031478 259.611423 
L 123.126824 259.454524 
L 123.412863 264.307917 
L 123.603556 262.557627 
L 123.698903 258.21677 
L 123.794249 258.432941 
L 124.080288 252.841254 
L 124.175635 254.77372 
L 124.270981 250.3579 
L 124.366328 250.743173 
L 124.461674 249.930787 
L 124.652367 254.24288 
L 124.938406 244.467234 
L 125.033753 244.192662 
L 125.129099 245.756417 
L 125.224445 245.073037 
L 125.319792 243.032485 
L 125.415138 244.271983 
L 125.510485 247.050829 
L 125.701177 244.326026 
L 125.89187 250.006622 
L 125.987217 250.002263 
L 126.082563 250.12168 
L 126.368602 242.585324 
L 126.463949 242.994132 
L 126.654642 246.114668 
L 126.749988 243.388121 
L 126.845334 245.07478 
L 126.940681 243.941624 
L 127.036027 246.407545 
L 127.131374 244.923111 
L 127.22672 245.632641 
L 127.512759 239.150119 
L 127.608106 239.658296 
L 127.989491 234.118909 
L 128.084838 235.21284 
L 128.180184 234.931294 
L 128.275531 238.700344 
L 128.370877 235.404604 
L 128.466223 235.761113 
L 128.56157 237.641279 
L 128.847609 234.547765 
L 128.942956 235.903193 
L 129.038302 234.661952 
L 129.133648 237.765926 
L 129.228995 237.561958 
L 129.705727 221.935743 
L 129.801073 225.138215 
L 129.89642 221.463304 
L 130.087113 225.454627 
L 130.182459 221.25585 
L 130.277805 221.560058 
L 130.373152 220.56201 
L 130.468498 221.794534 
L 130.563845 221.268924 
L 130.659191 221.859909 
L 130.754537 224.038182 
L 130.849884 231.008832 
L 130.94523 227.640745 
L 131.040577 232.418304 
L 131.135923 229.880035 
L 131.23127 234.053534 
L 131.326616 230.559929 
L 131.421962 232.005138 
L 131.612655 224.955167 
L 131.898694 226.047354 
L 131.994041 221.261079 
L 132.089387 222.269588 
L 132.184734 220.682298 
L 132.375427 223.965835 
L 132.470773 222.144069 
L 132.756812 229.651661 
L 132.852159 228.159382 
L 132.947505 228.254393 
L 133.138198 224.697156 
L 133.233544 225.97675 
L 133.328891 223.231027 
L 133.61493 226.735964 
L 133.710276 226.540713 
L 133.805623 226.826617 
L 133.996316 224.127963 
L 134.091662 219.220528 
L 134.187008 221.670759 
L 134.377701 220.149715 
L 134.66374 222.480529 
L 134.94978 220.970817 
L 135.045126 221.537395 
L 135.140473 220.840069 
L 135.235819 214.322681 
L 135.331165 215.814088 
L 135.426512 215.174291 
L 135.712551 211.293669 
L 135.807897 210.901422 
L 136.28463 219.551758 
L 136.379976 218.988667 
L 136.570669 216.533206 
L 136.666015 216.744147 
L 136.761362 215.033082 
L 136.856708 215.516852 
L 137.142747 225.011824 
L 137.238094 223.6163 
L 137.33344 224.56815 
L 137.428787 224.384231 
L 137.524133 226.518921 
L 137.619479 225.26722 
L 137.714826 221.582721 
L 137.905519 223.563129 
L 138.000865 222.257385 
L 138.191558 226.379456 
L 138.66829 220.028555 
L 138.763636 219.582266 
L 138.858983 216.973393 
L 138.954329 217.132035 
L 139.145022 218.582474 
L 139.240368 216.853104 
L 139.335715 218.209404 
L 139.526408 215.148141 
L 139.621754 215.310269 
L 139.907793 217.301137 
L 140.00314 217.810185 
L 140.098486 217.645442 
L 140.193833 216.871409 
L 140.384525 214.407232 
L 140.479872 213.8546 
L 140.670565 211.237883 
L 140.861258 209.62793 
L 141.05195 211.549936 
L 141.242643 209.277523 
L 141.33799 209.566914 
L 141.528682 206.813346 
L 141.719375 213.068365 
L 141.814722 211.782669 
L 141.910068 212.484354 
L 142.005414 214.446456 
L 142.196107 210.881374 
L 142.3868 215.586585 
L 142.482147 213.419643 
L 142.577493 215.08451 
L 142.768186 220.106132 
L 142.863532 221.265438 
L 142.958879 227.935366 
L 143.149571 218.934624 
L 143.244918 220.082598 
L 143.340264 222.409053 
L 143.530957 221.510374 
L 143.72165 230.081388 
L 143.816996 230.001196 
L 143.912343 229.612436 
L 144.007689 235.886631 
L 144.198382 226.420424 
L 144.293728 226.15021 
L 144.389075 224.099198 
L 144.484421 224.720691 
L 144.675114 222.542417 
L 144.961153 226.819643 
L 145.342539 220.726753 
L 145.437885 220.876678 
L 145.533232 222.045572 
L 145.628578 221.04055 
L 145.723925 217.684666 
L 146.10531 222.795198 
L 146.200657 221.416235 
L 146.486696 230.895517 
L 146.772735 224.534156 
L 146.868082 224.521953 
L 146.963428 225.143445 
L 147.058775 224.83575 
L 147.249467 221.023117 
L 147.44016 223.438482 
L 147.535507 224.541129 
L 147.630853 223.756637 
L 147.726199 224.440017 
L 147.916892 219.850737 
L 148.012239 219.89432 
L 148.202932 218.089987 
L 148.298278 218.671383 
L 148.393624 216.626473 
L 148.488971 218.477003 
L 148.584317 215.666778 
L 148.679664 217.158185 
L 148.77501 216.652623 
L 148.870356 216.948987 
L 148.965703 217.957495 
L 149.061049 216.552382 
L 149.347089 220.358042 
L 149.442435 220.713678 
L 149.537781 220.560266 
L 149.633128 218.96949 
L 149.728474 219.376555 
L 149.919167 221.16171 
L 150.014513 221.123357 
L 150.205206 223.92138 
L 150.395899 221.146021 
L 150.491245 220.773823 
L 150.586592 220.936823 
L 150.777285 218.068196 
L 150.872631 217.340361 
L 150.967978 217.472853 
L 151.063324 218.339281 
L 151.254017 214.959863 
L 151.349363 215.278018 
L 151.44471 214.601611 
L 151.540056 215.330318 
L 151.635402 215.054874 
L 151.730749 215.515981 
L 151.826095 216.687489 
L 152.016788 215.271045 
L 152.207481 215.600532 
L 152.302827 215.082767 
L 152.49352 217.344719 
L 152.588867 216.554126 
L 152.874906 212.552343 
L 153.065599 211.67807 
L 153.256292 212.588953 
L 153.351638 211.068781 
L 153.446984 211.446209 
L 153.542331 210.10124 
L 153.637677 210.462978 
L 153.733024 210.252037 
L 153.82837 209.452727 
L 153.923716 210.338331 
L 154.019063 210.076834 
L 154.114409 207.059153 
L 154.209756 207.827084 
L 154.305102 207.047822 
L 154.400449 207.345057 
L 154.591141 208.93409 
L 154.781834 206.571897 
L 154.972527 206.013164 
L 155.16322 201.253039 
L 155.449259 205.241746 
L 155.544606 205.926869 
L 155.639952 204.612409 
L 155.735298 207.187287 
L 155.830645 206.55272 
L 156.021338 204.558366 
L 156.21203 206.295581 
L 156.402723 203.29359 
L 156.49807 203.720703 
L 156.593416 204.745773 
L 156.688763 203.79828 
L 157.070148 194.46718 
L 157.165495 194.132463 
L 157.260841 196.427539 
L 157.356187 195.508811 
L 157.451534 195.881881 
L 157.737573 194.668533 
L 157.83292 195.545421 
L 157.928266 194.96664 
L 158.023612 195.291769 
L 158.309652 193.425548 
L 158.500344 195.253416 
L 158.595691 195.139228 
L 158.88173 190.858515 
L 158.977076 186.893342 
L 159.167769 188.176423 
L 159.263116 185.829919 
L 159.453809 186.459257 
L 159.549155 189.122172 
L 159.644501 187.945434 
L 159.835194 190.660649 
L 160.025887 187.583696 
L 160.21658 190.034798 
L 160.407273 186.373834 
L 160.502619 187.737107 
L 160.693312 186.209091 
L 160.979351 194.101084 
L 161.074698 190.862002 
L 161.170044 191.341414 
L 161.26539 192.426628 
L 161.360737 191.453858 
L 161.55143 192.938292 
L 161.646776 190.975317 
L 161.742123 191.990799 
L 161.837469 190.751301 
L 162.028162 185.291235 
L 162.123508 186.982251 
L 162.314201 185.727935 
L 162.409547 186.41393 
L 162.504894 185.048914 
L 162.60024 185.169203 
L 162.790933 190.337264 
L 162.88628 189.741921 
L 162.981626 192.029152 
L 163.076972 191.624703 
L 163.267665 187.951535 
L 163.363012 187.439872 
L 163.458358 188.472787 
L 163.744397 182.709383 
L 163.839744 182.409533 
L 163.93509 184.393427 
L 164.221129 179.574029 
L 164.316476 178.825275 
L 164.411822 179.157376 
L 164.507169 178.130563 
L 164.602515 179.49558 
L 164.697861 178.48097 
L 164.793208 179.369189 
L 164.888554 183.36487 
L 164.983901 182.5028 
L 165.26994 190.849799 
L 165.460633 184.808336 
L 165.555979 185.050657 
L 165.651326 183.886122 
L 165.937365 188.158118 
L 166.032711 187.748439 
L 166.128058 188.429204 
L 166.414097 196.877315 
L 166.509443 193.7315 
L 166.60479 193.982538 
L 166.795483 198.109839 
L 166.890829 197.983449 
L 167.081522 200.037947 
L 167.272215 198.115069 
L 167.462907 203.134077 
L 167.6536 199.497519 
L 167.748947 200.251503 
L 168.034986 195.01371 
L 168.130332 196.37524 
L 168.225679 195.703191 
L 168.321025 197.914588 
L 168.416372 197.87362 
L 168.702411 192.743912 
L 168.893104 193.674843 
L 168.98845 193.922394 
L 169.083797 194.595314 
L 169.274489 198.514289 
L 169.465182 197.294839 
L 169.560529 200.103321 
L 169.655875 197.830037 
L 169.751221 198.443684 
L 169.941914 195.562854 
L 170.037261 194.988432 
L 170.227954 191.542767 
L 170.3233 191.205435 
L 170.418646 191.604655 
L 170.513993 188.543391 
L 170.704686 191.947216 
L 170.800032 191.5602 
L 170.990725 190.726023 
L 171.086071 190.803601 
L 171.181418 193.154463 
L 171.467457 189.548413 
L 171.562803 189.56236 
L 171.65815 189.728846 
L 171.753496 190.148986 
L 171.848843 191.52882 
L 171.944189 190.299782 
L 172.039535 191.624703 
L 172.134882 189.88836 
L 172.230228 190.921275 
L 172.611614 209.527689 
L 172.70696 209.700278 
L 172.802307 215.488088 
L 172.897653 214.834344 
L 173.088346 208.577582 
L 173.183692 211.149845 
L 173.279039 208.708331 
L 173.469732 214.849162 
L 173.660425 214.381082 
L 173.755771 212.854808 
L 173.851117 214.520547 
L 173.946464 213.097129 
L 174.137157 208.280346 
L 174.327849 205.013372 
L 174.518542 210.134363 
L 174.613889 209.535534 
L 174.804581 204.588003 
L 174.995274 210.102984 
L 175.185967 209.080529 
L 175.281314 207.305833 
L 175.472006 210.102984 
L 175.567353 207.770426 
L 175.662699 208.877432 
L 175.853392 224.572509 
L 176.234778 217.553917 
L 176.616163 229.93495 
L 176.902203 219.89432 
L 176.997549 221.358705 
L 177.092895 218.530175 
L 177.188242 219.204838 
L 177.283588 215.443633 
L 177.378935 217.96011 
L 177.474281 216.025901 
L 177.664974 216.58289 
L 177.855667 211.007765 
L 177.951013 212.806867 
L 178.141706 207.284913 
L 178.237052 207.193389 
L 178.427745 213.319402 
L 178.713785 207.678031 
L 178.809131 207.689362 
L 178.904477 212.054626 
L 178.999824 210.417652 
L 179.190517 210.870914 
L 179.285863 210.569321 
L 179.476556 211.660637 
L 179.571902 212.947204 
L 179.667249 219.048811 
L 179.762595 218.059479 
L 179.857942 217.854639 
L 179.953288 218.857918 
L 180.048634 217.281088 
L 180.143981 212.453846 
L 180.239327 213.460611 
L 180.43002 209.050021 
L 180.525366 209.006438 
L 180.620713 207.949988 
L 180.811406 214.008012 
L 180.906752 213.313301 
L 181.097445 222.587743 
L 181.192791 220.094801 
L 181.288138 220.629999 
L 181.383484 218.782955 
L 181.574177 220.252571 
L 181.669523 217.224431 
L 181.860216 219.695581 
L 181.955563 219.971025 
L 182.050909 219.094137 
L 182.241602 219.944004 
L 182.432295 218.049891 
L 182.622988 213.811889 
L 182.81368 214.830857 
L 182.909027 214.177985 
L 183.004373 211.779182 
L 183.09972 212.103439 
L 183.290412 213.047445 
L 183.385759 212.480867 
L 183.671798 209.008181 
L 183.767145 210.345305 
L 183.862491 209.850203 
L 183.957837 210.43247 
L 184.14853 208.456421 
L 184.243877 208.497389 
L 184.339223 209.46493 
L 184.434569 208.558405 
L 184.529916 205.618303 
L 184.625262 205.961736 
L 184.720609 203.479253 
L 185.101994 205.747308 
L 185.197341 207.337212 
L 185.292687 204.153045 
L 185.388034 204.608922 
L 185.578726 202.701734 
L 185.674073 203.458334 
L 185.769419 202.82551 
L 185.960112 206.240666 
L 186.055459 200.799776 
L 186.150805 201.178948 
L 186.246151 202.598879 
L 186.627537 198.836802 
L 186.722883 205.03865 
L 187.104269 199.058203 
L 187.199616 198.658984 
L 187.294962 198.855107 
L 187.390308 199.358925 
L 187.771694 206.876977 
L 187.962387 203.646612 
L 188.057733 204.669067 
L 188.248426 209.127598 
L 188.534465 205.595639 
L 188.629812 208.222817 
L 188.725158 207.335469 
L 188.820505 209.592192 
L 188.915851 208.715304 
L 189.011197 210.710529 
L 189.106544 208.853026 
L 189.20189 209.250502 
L 189.297237 209.087502 
L 189.392583 211.381706 
L 189.48793 211.371246 
L 189.583276 212.14615 
L 189.773969 209.194716 
L 189.964662 213.212188 
L 190.060008 212.814712 
L 190.155354 213.693344 
L 190.346047 211.763492 
L 190.727433 219.440186 
L 190.822779 219.216169 
L 190.918126 219.46372 
L 191.013472 217.818901 
L 191.299511 223.904819 
L 191.394858 223.592765 
L 191.490204 224.239535 
L 191.680897 229.628998 
L 191.776243 227.075911 
L 191.87159 227.143029 
L 191.966936 230.111896 
L 192.157629 228.577778 
L 192.252976 227.6852 
L 192.348322 224.938605 
L 192.634361 226.98613 
L 192.729708 226.052584 
L 192.825054 227.3069 
L 193.20644 223.604968 
L 193.397133 222.741155 
L 193.587825 219.450646 
L 193.683172 218.971234 
L 194.064557 224.227332 
L 194.25525 221.152122 
L 194.350597 223.164781 
L 194.636636 214.962478 
L 194.731982 214.358419 
L 194.827329 215.138553 
L 195.018022 217.022206 
L 195.113368 216.850489 
L 195.304061 218.30703 
L 195.5901 215.385232 
L 195.685447 215.786195 
L 195.780793 215.335547 
L 195.876139 216.858334 
L 196.066832 221.632406 
L 196.257525 219.543913 
L 196.448218 215.811473 
L 196.543564 217.671591 
L 196.638911 217.381329 
L 196.734257 218.739372 
L 197.020296 213.879878 
L 197.115643 213.783996 
L 197.210989 213.349039 
L 197.306336 214.300018 
L 197.497028 212.852193 
L 197.592375 213.747386 
L 197.687721 213.472814 
L 197.783068 214.018472 
L 197.878414 215.386104 
L 198.069107 213.851114 
L 198.164453 213.937408 
L 198.2598 213.546033 
L 198.355146 214.035034 
L 198.450493 213.767434 
L 198.736532 216.275195 
L 198.831878 214.678317 
L 198.927225 214.919767 
L 199.022571 216.30919 
L 199.213264 211.727754 
L 199.499303 211.386936 
L 199.59465 210.289518 
L 199.689996 206.648602 
L 200.357421 211.588289 
L 200.452767 214.011499 
L 200.738807 210.575422 
L 200.834153 210.988588 
L 201.024846 212.819942 
L 201.120192 211.63623 
L 201.215539 211.715551 
L 201.310885 212.038936 
L 201.406231 213.196498 
L 201.501578 212.795536 
L 201.692271 214.281713 
L 201.97831 211.744316 
L 202.073656 213.253156 
L 202.169003 211.912546 
L 202.359696 213.87029 
L 202.455042 214.198905 
L 202.741081 216.380666 
L 202.836428 216.181056 
L 203.122467 213.951354 
L 203.31316 217.863356 
L 203.408506 217.855511 
L 203.503853 217.484185 
L 203.694545 220.614309 
L 203.980585 218.300057 
L 204.075931 218.666153 
L 204.36197 216.729329 
L 204.64801 219.709528 
L 204.743356 219.133362 
L 204.934049 216.713639 
L 205.029395 217.121575 
L 205.124742 214.857879 
L 205.220088 214.87444 
L 205.315435 214.6112 
L 205.506127 213.85983 
L 205.601474 211.96746 
L 205.69682 212.950691 
L 205.887513 211.907316 
L 205.982859 210.924086 
L 206.078206 211.454054 
L 206.173552 210.383658 
L 206.364245 211.895984 
L 206.459592 211.787027 
L 206.554938 211.475845 
L 206.650284 211.782669 
L 206.745631 211.438364 
L 206.936324 208.106887 
L 207.03167 209.110165 
L 207.127016 208.583684 
L 207.222363 207.146319 
L 207.413056 208.05633 
L 207.699095 206.118634 
L 207.794441 207.096635 
L 207.889788 206.476014 
L 207.985134 206.693057 
L 208.175827 204.005735 
L 208.36652 205.798736 
L 208.557213 205.213853 
L 208.652559 206.615479 
L 208.747905 205.901591 
L 208.938598 207.528977 
L 209.224638 208.159186 
L 209.319984 206.321731 
L 209.510677 208.862614 
L 209.606023 208.575839 
L 209.70137 207.58825 
L 209.892062 210.107342 
L 209.987409 209.695919 
L 210.082755 209.384737 
L 210.178102 210.560604 
L 210.273448 210.475182 
L 210.368795 210.602444 
L 210.559487 212.461691 
L 210.75018 210.08555 
L 210.845527 210.141337 
L 210.940873 208.992491 
L 211.131566 209.868508 
L 211.226912 209.289727 
L 211.322259 209.808363 
L 211.512952 214.273868 
L 211.608298 213.101488 
L 211.703644 213.125022 
L 211.989684 216.480906 
L 212.08503 216.086045 
L 212.275723 214.73759 
L 212.371069 215.810601 
L 212.466416 215.72605 
L 212.561762 216.39897 
L 212.657109 215.787938 
L 212.847801 217.241864 
L 213.038494 215.877719 
L 213.324533 222.205085 
L 213.41988 222.19724 
L 213.610573 223.788016 
L 213.705919 223.484679 
L 213.801266 223.734845 
L 213.896612 223.539594 
L 213.991958 220.147972 
L 214.087305 220.636101 
L 214.182651 220.56201 
L 214.277998 221.442384 
L 214.373344 219.386143 
L 214.46869 219.783619 
L 214.659383 217.009131 
L 214.850076 215.372157 
L 214.945423 215.886435 
L 215.326808 220.497507 
L 215.517501 217.619292 
L 215.708194 214.370622 
L 215.898887 219.774031 
L 215.994233 220.087828 
L 216.089579 218.763779 
L 216.280272 221.608871 
L 216.470965 223.601482 
L 216.566312 223.312963 
L 216.757004 225.116423 
L 216.852351 222.978246 
L 216.947697 223.648551 
L 217.13839 228.031248 
L 217.424429 223.897845 
L 217.519776 224.854054 
L 217.615122 227.258087 
L 217.710469 227.020125 
L 217.805815 227.607622 
L 218.282547 223.826369 
L 218.377893 223.694749 
L 218.47324 223.78453 
L 218.568586 222.615636 
L 218.663933 223.021829 
L 218.759279 222.504936 
L 218.854626 222.918102 
L 218.949972 223.964091 
L 219.236011 218.079527 
L 219.331358 217.60273 
L 219.426704 215.476756 
L 219.52205 216.725842 
L 219.617397 216.11481 
L 219.712743 216.778142 
L 219.80809 216.613398 
L 219.998783 218.084757 
L 220.094129 217.937447 
L 220.189475 218.076912 
L 220.380168 220.17848 
L 220.475515 218.376763 
L 220.666207 218.994768 
L 220.8569 221.497299 
L 220.952247 221.454588 
L 221.333632 216.147933 
L 221.524325 219.760084 
L 221.619672 219.706913 
L 221.810364 220.054705 
L 221.905711 218.528431 
L 222.001057 218.653078 
L 222.287097 220.842684 
L 222.382443 220.604721 
L 222.477789 221.316866 
L 222.763829 220.5254 
L 222.859175 216.351901 
L 222.954521 216.356259 
L 223.145214 213.579156 
L 223.240561 213.508552 
L 223.335907 213.748258 
L 223.431254 214.658269 
L 223.5266 211.950899 
L 223.621946 212.114771 
L 223.812639 210.803797 
L 224.098678 212.492199 
L 224.289371 210.930187 
L 224.480064 212.723188 
L 224.57541 211.928236 
L 224.766103 213.301969 
L 225.052143 209.375149 
L 225.147489 209.416989 
L 225.242835 207.874154 
L 225.433528 208.58717 
L 225.624221 206.56318 
L 225.719567 208.347464 
L 225.814914 206.18488 
L 225.91026 206.435046 
L 226.005607 207.208207 
L 226.1963 209.340283 
L 226.386992 208.506106 
L 226.482339 207.958705 
L 226.673032 208.670849 
L 226.768378 208.188822 
L 226.959071 209.344641 
L 227.054417 208.832106 
L 227.24511 211.140257 
L 227.340457 209.473646 
L 227.435803 212.365808 
L 227.721842 208.486929 
L 227.817189 208.533999 
L 227.912535 208.932347 
L 228.007881 210.026278 
L 228.103228 209.142416 
L 228.198574 209.299315 
L 228.389267 211.664995 
L 228.484614 210.902294 
L 228.675306 211.814049 
L 228.865999 214.795119 
L 228.961346 215.723435 
L 229.247385 212.479124 
L 229.342731 212.775487 
L 229.438078 213.890338 
L 229.533424 213.850242 
L 229.724117 211.202145 
L 229.91481 209.44924 
L 230.010156 209.82754 
L 230.200849 208.795496 
L 230.486888 209.986181 
L 230.582235 209.213892 
L 230.772928 212.763284 
L 230.96362 212.17753 
L 231.058967 211.489792 
L 231.154313 212.031963 
L 231.24966 210.749754 
L 231.345006 211.215219 
L 231.440352 210.829947 
L 231.631045 209.195588 
L 231.917085 210.143952 
L 232.203124 212.724931 
L 232.29847 212.68222 
L 232.489163 214.660884 
L 232.584509 214.583306 
L 232.870549 211.407856 
L 232.965895 211.610081 
L 233.156588 209.676743 
L 233.251934 211.359915 
L 233.442627 208.856513 
L 233.537974 209.139801 
L 233.728666 211.166407 
L 233.919359 210.467337 
L 234.300745 214.328782 
L 234.396091 227.917933 
L 234.491438 222.014192 
L 234.586784 222.487502 
L 234.872823 226.184205 
L 235.158863 232.396512 
L 235.349555 223.816781 
L 235.444902 225.284653 
L 235.540248 225.155648 
L 235.730941 227.124724 
L 235.921634 222.637428 
L 236.01698 224.159343 
L 236.30302 220.34148 
L 236.398366 220.550678 
L 236.493712 221.186117 
L 236.589059 219.759213 
L 236.684405 222.602561 
L 236.779752 222.38116 
L 236.875098 222.684497 
L 236.970445 221.04055 
L 237.065791 221.5034 
L 237.256484 225.982852 
L 237.35183 224.9726 
L 237.447177 224.356338 
L 237.542523 222.014192 
L 237.923909 226.895478 
L 238.019255 228.675404 
L 238.209948 226.525895 
L 238.305294 226.418681 
L 238.400641 226.520665 
L 238.495987 227.091601 
L 238.591334 225.323878 
L 238.782026 220.717165 
L 238.877373 220.37809 
L 239.068066 219.175202 
L 239.163412 219.795822 
L 239.354105 217.018719 
L 239.544798 214.74805 
L 239.640144 215.563922 
L 239.830837 213.923461 
L 239.926183 216.716254 
L 240.02153 215.964013 
L 240.116876 214.095178 
L 240.212223 215.434045 
L 240.402915 211.87768 
L 240.498262 211.619669 
L 240.593608 212.063343 
L 240.784301 210.782877 
L 240.974994 209.406529 
L 241.165687 210.696583 
L 241.35638 209.937369 
L 241.547072 210.703556 
L 241.642419 207.868052 
L 241.833112 211.847172 
L 241.928458 211.486305 
L 242.023805 211.568241 
L 242.119151 210.998177 
L 242.309844 208.248095 
L 242.40519 210.422011 
L 242.595883 208.049357 
L 242.691229 208.343106 
L 242.786576 209.952187 
L 242.881922 209.525074 
L 243.072615 211.621412 
L 243.167962 211.712936 
L 243.454001 219.577036 
L 243.644694 217.652415 
L 243.74004 217.458907 
L 243.930733 221.543497 
L 244.026079 220.855758 
L 244.121426 219.782747 
L 244.312119 220.419929 
L 244.407465 220.058191 
L 244.693504 224.019877 
L 245.456276 214.948531 
L 245.646968 212.843477 
L 245.742315 214.164039 
L 245.837661 213.460611 
L 245.933008 214.449943 
L 246.028354 214.049852 
L 246.314393 218.888426 
L 246.40974 218.195458 
L 246.600433 213.227878 
L 246.695779 211.713808 
L 246.791125 212.581108 
L 246.981818 212.250749 
L 247.077165 213.899926 
L 247.172511 213.125022 
L 247.267857 213.50245 
L 247.363204 211.487177 
L 247.553897 213.987092 
L 247.74459 217.107628 
L 247.935282 214.57982 
L 248.125975 215.244895 
L 248.221322 217.504233 
L 248.316668 217.26104 
L 248.507361 220.287437 
L 248.602707 219.563089 
L 248.698054 216.643906 
L 249.079439 221.343015 
L 249.270132 218.735014 
L 249.460825 221.683834 
L 249.556171 219.557859 
L 249.651518 220.286566 
L 249.746864 219.677277 
L 249.937557 220.586416 
L 250.12825 218.725426 
L 250.604982 210.277315 
L 250.795675 209.730786 
L 250.891021 209.761294 
L 250.986368 208.170518 
L 251.081714 208.221074 
L 251.17706 208.303881 
L 251.272407 210.183176 
L 251.844485 206.116019 
L 252.035178 206.931891 
L 252.130525 206.246768 
L 252.225871 206.7471 
L 252.321217 206.57364 
L 252.51191 202.264162 
L 252.607257 200.196589 
L 252.79795 206.964143 
L 252.988642 211.669353 
L 253.083989 210.655615 
L 253.370028 216.047692 
L 253.465374 214.362777 
L 253.560721 217.023949 
L 253.656067 211.490663 
L 253.942107 218.382864 
L 254.132799 217.48157 
L 254.323492 215.354724 
L 254.418839 218.521458 
L 254.704878 205.378597 
L 254.800224 208.169646 
L 254.895571 208.357052 
L 255.276956 201.539814 
L 255.467649 203.323227 
L 255.753688 194.534298 
L 255.849035 197.099588 
L 255.944381 194.349506 
L 256.135074 197.336679 
L 256.230421 196.635865 
L 256.325767 198.586636 
L 256.707153 187.242877 
L 256.802499 187.844321 
L 256.897845 188.384749 
L 257.088538 183.115576 
L 257.183885 180.031649 
L 257.374577 183.898325 
L 257.469924 182.516747 
L 257.755963 185.786337 
L 257.85131 188.046546 
L 258.232695 182.688464 
L 258.328042 186.902931 
L 258.423388 186.798332 
L 258.90012 198.36262 
L 258.995467 199.93422 
L 259.090813 199.773835 
L 259.186159 197.993037 
L 259.281506 200.098092 
L 259.376852 198.296374 
L 259.472199 200.54438 
L 259.567545 199.169776 
L 259.662891 199.441733 
L 259.853584 203.27267 
L 260.139624 195.397239 
L 260.425663 192.020436 
L 260.521009 192.456265 
L 260.807048 195.822608 
L 260.902395 193.977308 
L 260.997741 196.662015 
L 261.188434 193.227682 
L 261.283781 195.86009 
L 261.474473 191.183644 
L 261.665166 195.332736 
L 261.760513 193.58419 
L 262.046552 194.604902 
L 262.237245 190.176007 
L 262.332591 190.828879 
L 262.427938 193.211121 
L 262.523284 191.333569 
L 262.61863 191.673516 
L 262.809323 194.031351 
L 262.90467 192.820618 
L 263.095362 195.61864 
L 263.190709 197.579871 
L 263.381402 195.069496 
L 263.572095 196.289817 
L 263.667441 195.477432 
L 263.762787 195.770309 
L 263.858134 199.991749 
L 263.95348 199.316214 
L 264.048827 197.008935 
L 264.144173 198.276326 
L 264.525559 195.213319 
L 264.716252 196.239261 
L 264.811598 195.799074 
L 264.906944 194.794052 
L 265.097637 195.550651 
L 265.192984 195.298742 
L 265.28833 194.534298 
L 265.574369 198.004369 
L 265.669716 196.918283 
L 265.765062 197.748101 
L 265.860408 196.037908 
L 265.955755 197.33232 
L 266.051101 197.214646 
L 266.432487 201.228632 
L 266.718526 197.047288 
L 266.813873 196.695138 
L 266.909219 197.199828 
L 267.004565 196.208753 
L 267.099912 196.427539 
L 267.195258 198.460246 
L 267.385951 197.687085 
L 267.67199 202.107264 
L 268.053376 194.778362 
L 268.148722 195.236854 
L 268.339415 192.680281 
L 268.434762 194.193479 
L 268.625455 191.900147 
L 268.816147 192.281061 
L 269.00684 190.989264 
L 269.102187 191.383253 
L 269.292879 194.354736 
L 269.388226 192.462366 
L 269.578919 197.816962 
L 270.055651 189.184932 
L 270.246344 192.876404 
L 270.34169 191.154879 
L 270.437036 192.236607 
L 270.532383 191.973366 
L 270.723076 190.121092 
L 270.913769 190.502007 
L 271.009115 189.483039 
L 271.104461 190.658906 
L 271.199808 189.303477 
L 271.295154 189.53098 
L 271.962579 199.36677 
L 272.153272 197.047288 
L 272.343965 199.698 
L 272.534658 194.631052 
L 272.72535 193.007153 
L 272.820697 189.597226 
L 272.916043 191.152264 
L 273.202082 189.294761 
L 273.392775 190.674595 
L 273.488122 190.104531 
L 273.583468 191.209793 
L 273.678815 191.021515 
L 273.774161 189.857852 
L 273.869507 191.0189 
L 274.0602 189.756739 
L 274.155547 191.326596 
L 274.250893 191.0712 
L 274.536932 186.298872 
L 274.727625 187.592412 
L 275.109011 189.620761 
L 275.204357 188.607022 
L 275.39505 182.446143 
L 275.490396 182.383383 
L 275.585743 181.03057 
L 275.681089 177.426263 
L 275.776436 182.483624 
L 275.871782 180.436971 
L 275.967129 180.892848 
L 276.157821 185.883091 
L 276.253168 185.715732 
L 276.348514 185.963283 
L 276.443861 184.472748 
L 276.7299 190.440119 
L 276.825246 189.13176 
L 276.920593 189.209338 
L 277.111286 191.317879 
L 277.397325 185.018406 
L 277.588018 190.602248 
L 277.683364 190.0409 
L 277.77871 187.905337 
L 278.06475 189.356648 
L 278.160096 186.551652 
L 278.255443 186.727727 
L 278.350789 189.063771 
L 278.446135 187.357936 
L 278.541482 187.842578 
L 278.636828 193.598137 
L 278.732175 192.92173 
L 278.922867 193.75242 
L 279.018214 200.064097 
L 279.208907 196.821529 
L 279.304253 198.143834 
L 279.494946 190.50898 
L 279.590292 190.632756 
L 279.685639 191.639521 
L 279.971678 184.674101 
L 280.257717 188.036086 
L 280.353064 184.411732 
L 280.44841 185.051529 
L 280.639103 190.040028 
L 280.734449 189.3889 
L 280.829796 191.066842 
L 281.211181 185.947593 
L 281.306528 182.731175 
L 281.497221 184.218224 
L 281.687913 181.408869 
L 281.878606 183.597603 
L 282.164646 179.509526 
L 282.259992 180.497115 
L 282.546031 173.808882 
L 282.641378 176.124878 
L 282.736724 175.982797 
L 283.022763 178.560291 
L 283.308803 173.420994 
L 283.404149 174.250813 
L 283.499495 174.340594 
L 283.690188 177.548295 
L 283.785535 177.586648 
L 283.976227 179.419745 
L 284.16692 177.157793 
L 284.262267 178.411237 
L 284.357613 177.55091 
L 284.45296 178.383344 
L 284.548306 178.114873 
L 284.643652 178.229932 
L 285.025038 171.78402 
L 285.311077 175.284599 
L 285.50177 169.39742 
L 285.597117 170.277795 
L 285.692463 168.780286 
L 285.978502 171.612304 
L 286.073849 168.55104 
L 286.550581 175.92091 
L 286.645927 173.854208 
L 286.741274 174.477444 
L 286.931966 173.306807 
L 287.027313 173.858567 
L 287.122659 173.14032 
L 287.408698 177.394884 
L 287.885431 171.545186 
L 288.076123 175.23753 
L 288.266816 175.790161 
L 288.552855 170.149661 
L 289.029588 177.27721 
L 289.124934 176.641771 
L 289.315627 174.292652 
L 289.410973 174.930706 
L 289.50632 172.963374 
L 289.697012 179.722211 
L 290.173744 173.991059 
L 290.364437 176.436931 
L 290.459784 176.176306 
L 290.650477 173.499443 
L 290.745823 171.299378 
L 290.841169 171.515549 
L 290.936516 170.941998 
L 291.031862 171.082335 
L 291.127209 171.498988 
L 291.317901 173.327727 
L 291.413248 172.228566 
L 291.508594 172.298298 
L 291.794634 171.2741 
L 291.88998 169.89688 
L 291.985326 170.75372 
L 292.080673 170.514886 
L 292.176019 173.536925 
L 292.271366 172.973834 
L 292.366712 170.725827 
L 292.462058 170.780742 
L 292.557405 169.675479 
L 292.652751 169.725164 
L 292.748098 170.923694 
L 293.034137 167.906885 
L 293.129483 168.03589 
L 293.415523 169.437516 
L 293.606215 166.840847 
L 293.701562 167.356868 
L 293.796908 167.185152 
L 293.892255 166.50613 
L 294.178294 168.402858 
L 294.27364 167.939136 
L 294.655026 161.241315 
L 294.750372 161.501069 
L 295.036412 165.534231 
L 295.131758 165.535975 
L 295.322451 167.498949 
L 295.417797 167.062248 
L 295.60849 166.129574 
L 295.703837 163.721182 
L 295.989876 168.060297 
L 296.085222 167.610521 
L 296.180569 166.264681 
L 296.275915 167.844125 
L 296.371262 167.077066 
L 296.466608 167.232221 
L 296.561954 168.031532 
L 296.657301 167.33159 
L 296.752647 167.66805 
L 296.94334 165.802702 
L 297.134033 167.986206 
L 297.324726 169.678966 
L 297.420072 168.619029 
L 297.515419 168.759366 
L 297.610765 169.666763 
L 297.706111 169.613591 
L 297.801458 169.169917 
L 297.896804 167.91473 
L 297.992151 168.122184 
L 298.373536 166.199306 
L 298.564229 169.176891 
L 298.659575 170.050292 
L 298.754922 168.721885 
L 298.945615 162.088567 
L 299.231654 164.439429 
L 299.422347 162.199267 
L 299.517693 162.588898 
L 299.899079 156.951014 
L 300.185118 158.356998 
L 300.566504 152.125514 
L 300.66185 152.646766 
L 300.757197 151.935493 
L 300.947889 147.74979 
L 301.138582 144.394778 
L 301.233929 145.961148 
L 301.329275 145.248131 
L 301.424622 145.755436 
L 301.519968 147.125683 
L 301.615314 146.195624 
L 301.710661 147.41856 
L 301.901354 150.831102 
L 301.9967 150.423166 
L 302.092046 149.414657 
L 302.187393 149.976877 
L 302.378086 145.641249 
L 302.473432 141.046739 
L 302.854818 147.512699 
L 302.950164 145.225468 
L 303.236203 148.912582 
L 303.522243 151.100444 
L 303.808282 153.192424 
L 304.189668 142.736013 
L 304.38036 146.977501 
L 304.475707 145.731902 
L 304.571053 146.962683 
L 304.6664 146.173832 
L 304.761746 147.577202 
L 304.857093 146.857212 
L 305.143132 151.789054 
L 305.238478 151.85007 
L 305.429171 153.977788 
L 305.524517 152.984097 
L 305.71521 155.545901 
L 305.810557 154.79366 
L 306.001249 157.812212 
L 306.096596 162.808556 
L 306.191942 160.70786 
L 306.287289 161.655353 
L 306.382635 160.967614 
L 306.477982 161.793075 
L 306.573328 163.761279 
L 306.764021 168.196275 
L 306.954714 165.81752 
L 307.05006 166.572376 
L 307.336099 162.202754 
L 307.431446 161.736417 
L 307.526792 160.563165 
L 307.717485 162.459893 
L 307.812831 164.779375 
L 307.908178 163.090102 
L 308.194217 166.283857 
L 308.38491 163.687188 
L 308.480256 161.017299 
L 308.575603 161.159379 
L 308.956988 170.46956 
L 309.052335 170.746747 
L 309.147681 173.223128 
L 309.243028 170.919335 
L 309.43372 173.204823 
L 309.71976 167.707275 
L 309.910453 163.579974 
L 310.005799 164.909252 
L 310.196492 163.586075 
L 310.291838 166.479109 
L 310.387185 166.024975 
L 310.482531 165.716408 
L 310.577877 163.46753 
L 310.76857 166.398916 
L 310.863917 165.65452 
L 311.340649 170.240314 
L 311.435995 169.399164 
L 311.722034 171.65763 
L 311.817381 171.089309 
L 311.912727 171.774432 
L 312.10342 177.28767 
L 312.198767 176.223375 
L 312.484806 177.395755 
L 312.675499 176.095241 
L 312.961538 181.806345 
L 313.056884 181.362671 
L 313.247577 178.30751 
L 313.342924 178.930745 
L 313.533616 177.479434 
L 313.628963 178.095697 
L 313.819656 175.342129 
L 314.010348 176.429958 
L 314.201041 173.126374 
L 314.391734 172.619069 
L 314.48708 173.55523 
L 314.868466 169.420955 
L 314.963813 169.352966 
L 315.059159 169.490688 
L 315.154505 170.484378 
L 315.249852 170.120025 
L 315.345198 170.588977 
L 315.440545 172.452582 
L 315.535891 171.875544 
L 315.631237 172.574614 
L 315.82193 170.710137 
L 315.917277 173.183031 
L 316.012623 172.940711 
L 316.203316 168.935441 
L 316.298662 168.952003 
L 316.394009 169.980559 
L 316.584702 166.83213 
L 316.870741 170.735415 
L 316.966087 170.132228 
L 317.061434 170.260362 
L 317.347473 171.966197 
L 317.633512 169.542115 
L 317.919551 167.046558 
L 318.014898 166.874842 
L 318.205591 163.989653 
L 318.396284 165.637087 
L 318.49163 165.576071 
L 318.586976 164.653857 
L 318.682323 165.040001 
L 318.968362 160.801128 
L 319.159055 161.372064 
L 319.254401 161.236085 
L 319.349748 160.776721 
L 319.445094 161.656224 
L 319.635787 160.675609 
L 319.731133 161.426107 
L 319.921826 159.726373 
L 320.017173 158.855587 
L 320.112519 159.681919 
L 320.207865 159.198148 
L 320.303212 159.326282 
L 320.493905 159.206865 
L 320.684598 157.745094 
L 320.779944 157.533281 
L 320.87529 158.350897 
L 320.970637 157.116629 
L 321.065983 157.649212 
L 321.256676 156.652907 
L 321.542715 159.586908 
L 321.638062 159.665357 
L 322.019447 161.856706 
L 322.114794 159.932956 
L 322.21014 160.238908 
L 322.305487 160.320844 
L 322.400833 158.71525 
L 322.496179 159.559886 
L 322.591526 158.852972 
L 322.782219 151.717578 
L 322.877565 149.921962 
L 323.068258 151.314872 
L 323.163604 151.384605 
L 323.258951 154.442381 
L 323.354297 154.363932 
L 323.54499 154.560927 
L 323.735683 151.966001 
L 323.831029 152.977124 
L 323.926376 151.877963 
L 324.021722 153.2116 
L 324.117068 152.899547 
L 324.307761 157.155853 
L 324.403108 156.687773 
L 324.498454 155.517136 
L 324.593801 156.016596 
L 324.689147 155.107457 
L 324.784493 156.935324 
L 324.87984 156.774939 
L 325.070533 151.914573 
L 325.165879 154.42582 
L 325.261225 152.641536 
L 325.547265 155.626965 
L 325.737958 157.786934 
L 325.92865 156.768837 
L 326.023997 157.468779 
L 326.119343 156.672083 
L 326.21469 156.957987 
L 326.310036 156.360901 
L 326.596075 147.847416 
L 326.977461 143.055911 
L 327.072807 143.130002 
L 327.168154 143.447286 
L 327.358847 139.997263 
L 327.454193 140.96829 
L 327.549539 139.026236 
L 327.644886 139.868257 
L 327.835579 138.030802 
L 328.026272 141.147852 
L 328.121618 141.48867 
L 328.312311 139.552717 
L 328.59835 145.160094 
L 328.693696 143.730575 
L 328.884389 148.744352 
L 329.265775 142.788312 
L 329.456468 143.706168 
L 329.551814 142.381248 
L 329.742507 136.567288 
L 329.837853 135.142999 
L 329.9332 136.125357 
L 330.028546 140.055664 
L 330.123893 139.959782 
L 330.219239 140.749504 
L 330.314586 138.946043 
L 330.505278 140.541177 
L 330.695971 138.206877 
L 330.791318 138.08746 
L 330.98201 142.174665 
L 331.077357 140.247429 
L 331.172703 141.370124 
L 331.363396 138.960861 
L 331.649435 144.932591 
L 331.744782 143.045451 
L 331.840128 144.202142 
L 331.935475 141.989002 
L 332.030821 142.306285 
L 332.126167 143.556243 
L 332.31686 142.775237 
L 332.412207 140.103605 
L 332.507553 141.412836 
L 332.602899 158.004848 
L 332.793592 149.177566 
L 332.888939 147.617298 
L 333.079632 153.403365 
L 333.270324 144.876805 
L 333.365671 145.830399 
L 333.461017 145.646479 
L 333.65171 143.806409 
L 333.747056 143.829944 
L 333.937749 139.646856 
L 334.033096 140.012081 
L 334.128442 139.164829 
L 334.223789 139.217129 
L 334.319135 142.036943 
L 334.509828 140.027771 
L 334.605174 139.603273 
L 334.700521 138.650551 
L 334.891213 134.754239 
L 334.98656 136.548983 
L 335.081906 136.430438 
L 335.177253 137.727465 
L 335.367946 136.932513 
L 335.463292 137.434588 
L 335.653985 140.298857 
L 335.844678 138.793503 
L 336.03537 139.985931 
L 336.130717 139.525696 
L 336.226063 140.182926 
L 336.32141 137.716133 
L 336.512103 138.430021 
L 336.607449 138.375979 
L 336.702795 142.573013 
L 336.893488 141.388429 
L 337.465567 146.626223 
L 337.560913 143.588494 
L 337.65626 144.488917 
L 337.751606 144.162917 
L 337.942299 145.788559 
L 338.323684 138.093561 
L 338.419031 139.63291 
L 338.514377 139.42284 
L 338.609724 135.692143 
L 338.70507 135.821149 
L 338.800416 133.398811 
L 338.895763 134.096137 
L 339.086456 137.853855 
L 339.181802 135.729625 
L 339.372495 138.824883 
L 339.658534 144.325045 
L 339.753881 143.154409 
L 340.03992 140.380792 
L 340.135266 140.4113 
L 340.230613 140.149803 
L 340.325959 137.936663 
L 340.421306 138.453556 
L 340.516652 140.199487 
L 340.611998 139.951937 
L 340.707345 139.787193 
L 340.802691 138.714182 
L 340.898038 140.386022 
L 340.993384 138.941685 
L 341.08873 141.95152 
L 341.184077 141.031049 
L 341.279423 141.269012 
L 341.470116 143.168355 
L 341.565463 143.688735 
L 341.851502 140.033001 
L 341.946848 143.259879 
L 342.328234 135.554421 
L 342.42358 137.081566 
L 342.614273 135.760133 
L 342.900312 137.976759 
L 342.995659 137.874775 
L 343.091005 136.651839 
L 343.186352 136.709368 
L 343.281698 136.235186 
L 343.663084 130.835264 
L 343.75843 130.674879 
L 343.853777 130.982574 
L 344.044469 128.444306 
L 344.139816 127.20568 
L 344.235162 128.681397 
L 344.425855 124.491336 
L 344.521201 124.765037 
L 344.616548 126.728011 
L 344.711894 122.87441 
L 344.902587 126.623412 
L 344.997934 126.328792 
L 345.09328 127.239674 
L 345.283973 133.982822 
L 345.379319 130.796911 
L 345.474666 132.014618 
L 345.570012 129.55567 
L 345.665358 130.064718 
L 346.046744 139.290348 
L 346.142091 136.596053 
L 346.237437 137.023165 
L 346.332783 140.367718 
L 346.42813 138.289685 
L 346.523476 139.778477 
L 346.714169 134.605186 
L 346.904862 129.987141 
L 347.000208 127.108054 
L 347.095555 127.693808 
L 347.286247 131.599708 
L 347.381594 133.244527 
L 347.572287 132.677078 
L 347.667633 133.442394 
L 347.76298 133.34564 
L 347.858326 136.150635 
L 348.049019 133.716094 
L 348.239712 139.035824 
L 348.525751 131.185671 
L 348.621097 131.713896 
L 348.81179 127.278899 
L 348.907137 127.089749 
L 349.002483 129.987141 
L 349.097829 128.332734 
L 349.288522 131.560484 
L 349.383869 133.644618 
L 349.479215 132.934217 
L 349.765254 135.393165 
L 349.860601 134.67056 
L 350.051294 135.665122 
L 350.241986 140.573429 
L 350.814065 130.493574 
L 350.909411 131.958831 
L 351.195451 127.185631 
L 351.48149 128.044215 
L 351.672183 124.643876 
L 351.767529 125.111085 
L 351.862875 125.069246 
L 351.958222 123.085352 
L 352.053568 123.850667 
L 352.148915 122.497854 
L 352.244261 124.364946 
L 352.5303 120.504372 
L 352.720993 120.293431 
L 352.81634 118.223242 
L 352.911686 118.880473 
L 353.102379 122.097763 
L 353.197725 121.452736 
L 353.293072 119.439206 
L 353.483765 125.758727 
L 353.579111 123.201282 
L 353.769804 125.956594 
L 353.86515 123.40525 
L 353.960497 124.938497 
L 354.151189 122.811651 
L 354.246536 122.864822 
L 354.437229 123.627523 
L 354.723268 125.28716 
L 354.818614 122.863079 
L 355.009307 125.312438 
L 355.2 124.905374 
L 355.295346 126.02284 
L 355.581386 122.929325 
L 355.772078 121.662806 
L 355.867425 122.979881 
L 355.962771 122.55364 
L 356.058118 121.242666 
L 356.153464 123.434887 
L 356.344157 122.596351 
L 356.53485 119.922976 
L 356.820889 118.770644 
L 357.106928 115.494081 
L 357.202275 117.858889 
L 357.297621 117.138028 
L 357.392968 118.410649 
L 357.58366 116.393632 
L 357.679007 117.043889 
L 357.774353 116.773675 
L 357.965046 114.718305 
L 358.155739 117.031686 
L 358.251085 116.789365 
L 358.346432 116.256782 
L 358.441778 117.172894 
L 358.632471 115.287498 
L 358.727817 115.392097 
L 358.91851 118.470793 
L 359.109203 121.57041 
L 359.204549 116.910525 
L 359.299896 117.593905 
L 359.395242 115.273551 
L 359.490589 115.589963 
L 359.585935 116.09814 
L 359.776628 110.2528 
L 359.871974 112.004833 
L 359.967321 111.949919 
L 360.062667 110.754876 
L 360.158014 112.774507 
L 360.348706 108.43888 
L 360.444053 107.932446 
L 360.539399 102.301535 
L 360.730092 104.750023 
L 360.920785 102.329428 
L 361.206824 99.823411 
L 361.397517 101.919749 
L 361.492863 99.533149 
L 361.58821 99.757165 
L 361.683556 97.919709 
L 361.778903 99.573245 
L 361.874249 99.449469 
L 361.969596 100.20694 
L 362.160288 97.966779 
L 362.255635 99.170539 
L 362.446328 95.33873 
L 362.63702 92.464873 
L 362.92306 94.218649 
L 363.018406 94.210804 
L 363.304445 99.990769 
L 363.399792 100.039582 
L 363.590485 104.684648 
L 363.685831 104.860723 
L 363.781177 106.283269 
L 363.876524 104.818012 
L 363.97187 106.400071 
L 364.353256 101.887497 
L 364.448602 101.467358 
L 364.543949 102.345989 
L 364.734642 109.341918 
L 364.829988 106.361719 
L 364.925334 107.091296 
L 365.020681 105.198927 
L 365.116027 106.679002 
L 365.211374 105.788167 
L 365.30672 106.643264 
L 365.497413 111.397288 
L 365.592759 112.302069 
L 365.783452 107.277831 
L 365.974145 107.078222 
L 366.164838 108.550452 
L 366.260184 108.453698 
L 366.450877 103.668295 
L 366.832263 96.772607 
L 366.927609 95.578436 
L 367.118302 97.359233 
L 367.213648 97.281656 
L 367.308995 94.707649 
L 367.499688 96.913816 
L 367.595034 93.202296 
L 367.881073 96.649704 
L 367.97642 96.506752 
L 368.167113 100.157256 
L 368.262459 99.655181 
L 368.357805 98.573453 
L 368.548498 100.797925 
L 368.643845 99.782443 
L 368.834537 104.259279 
L 368.929884 105.559793 
L 369.02523 103.235081 
L 369.120577 104.222669 
L 369.31127 103.035471 
L 369.501962 105.131809 
L 369.883348 100.298465 
L 369.978694 99.580218 
L 370.264734 89.4777 
L 370.36008 89.794984 
L 370.455427 91.23322 
L 370.646119 86.505346 
L 370.741466 88.001983 
L 371.122851 78.016267 
L 371.313544 82.120034 
L 371.599584 85.520372 
L 371.69493 84.442131 
L 371.790276 85.343426 
L 371.885623 83.843302 
L 371.980969 84.298308 
L 372.267008 82.655232 
L 372.457701 84.945078 
L 372.553048 85.074083 
L 372.648394 84.39419 
L 372.74374 85.631073 
L 372.839087 88.917224 
L 373.220473 83.552168 
L 373.315819 84.653073 
L 373.697205 78.223722 
L 373.887897 76.675657 
L 373.983244 78.029342 
L 374.07859 77.372112 
L 374.173937 75.813587 
L 374.36463 76.07247 
L 374.459976 76.000122 
L 374.555322 74.361405 
L 374.650669 74.762368 
L 374.936708 69.167194 
L 375.127401 67.981739 
L 375.222747 65.538481 
L 375.318094 67.449156 
L 375.41344 67.199862 
L 375.699479 59.591158 
L 375.794826 60.523832 
L 375.985519 66.452851 
L 376.080865 66.017022 
L 376.176211 71.337623 
L 376.366904 67.533707 
L 376.652944 72.585837 
L 376.843636 68.801969 
L 377.129676 73.320645 
L 377.320368 68.102899 
L 377.511061 70.316039 
L 377.606408 69.167194 
L 377.701754 72.306035 
L 377.892447 67.85622 
L 377.987793 69.518472 
L 378.369179 97.49434 
L 378.464525 99.177512 
L 378.655218 93.752312 
L 378.750565 94.738157 
L 378.845911 103.209803 
L 379.13195 140.962188 
L 379.227297 138.348957 
L 379.513336 156.10812 
L 379.704029 137.021422 
L 379.799375 143.843019 
L 379.990068 126.467385 
L 380.085414 123.217844 
L 380.180761 130.963398 
L 380.276107 128.153172 
L 380.371454 121.57564 
L 380.4668 124.643876 
L 380.752839 111.657913 
L 380.848186 110.598849 
L 381.038879 104.756124 
L 381.229571 111.112255 
L 381.324918 110.852501 
L 381.420264 122.435966 
L 381.515611 121.031725 
L 381.610957 119.295382 
L 381.706304 120.079874 
L 381.80165 123.387817 
L 381.992343 113.678417 
L 382.087689 116.936675 
L 382.183036 116.162643 
L 382.373728 108.12334 
L 382.469075 109.219886 
L 382.564421 111.479223 
L 382.659768 108.962746 
L 382.755114 110.828966 
L 382.850461 110.663351 
L 383.041153 109.962538 
L 383.231846 114.471626 
L 383.327193 114.157829 
L 383.517885 103.888824 
L 383.613232 98.73994 
L 383.803925 104.092792 
L 383.899271 99.860892 
L 383.994618 100.199967 
L 384.089964 101.334866 
L 384.18531 97.938886 
L 384.280657 101.874422 
L 384.376003 100.531197 
L 384.566696 93.484713 
L 384.662042 99.134801 
L 384.852735 96.51634 
L 384.948082 96.551206 
L 385.043428 97.485624 
L 385.234121 103.249027 
L 385.329467 100.700299 
L 385.52016 102.789663 
L 385.806199 96.893768 
L 385.901546 99.615085 
L 385.996892 99.52879 
L 386.092239 98.987491 
L 386.187585 101.144845 
L 386.473624 93.127333 
L 386.664317 94.813991 
L 386.759664 97.72533 
L 386.85501 96.11189 
L 387.045703 101.028042 
L 387.141049 100.734294 
L 387.331742 98.391277 
L 387.617781 93.173531 
L 388.094513 85.871651 
L 388.18986 88.991315 
L 388.571245 79.390001 
L 388.666592 79.76307 
L 388.857285 82.179307 
L 389.143324 71.749045 
L 389.334017 74.187945 
L 389.429363 74.341357 
L 389.52471 73.832308 
L 389.620056 79.31068 
L 389.715402 79.143321 
L 389.810749 76.196245 
L 389.906095 76.228497 
L 390.001442 74.230656 
L 390.287481 81.706868 
L 390.382827 80.939809 
L 390.668867 85.598822 
L 390.764213 84.662661 
L 390.954906 89.563123 
L 391.336292 80.453424 
L 391.431638 80.938937 
L 391.526984 81.223969 
L 391.622331 82.962927 
L 391.717677 90.643979 
L 391.90837 86.048597 
L 392.003716 86.365009 
L 392.099063 87.753561 
L 392.194409 85.10895 
L 392.575795 91.624594 
L 392.766488 88.088277 
L 392.861834 92.482306 
L 392.957181 92.150204 
L 393.052527 93.222344 
L 393.147873 92.171996 
L 393.24322 93.64597 
L 393.338566 91.305567 
L 393.529259 96.233923 
L 393.624606 96.693286 
L 393.719952 95.927099 
L 393.815298 97.3941 
L 394.005991 94.738157 
L 394.482723 105.730638 
L 394.864109 87.859031 
L 395.054802 78.881824 
L 395.245495 76.509171 
L 395.340841 76.562342 
L 395.436187 71.810062 
L 395.531534 74.208865 
L 395.62688 71.728126 
L 395.722227 74.708325 
L 395.817573 74.31172 
L 395.91292 74.65864 
L 396.198959 66.677738 
L 396.294305 66.323845 
L 396.389652 69.383365 
L 396.580344 62.233154 
L 396.675691 64.581401 
L 396.866384 61.756357 
L 396.96173 63.104812 
L 397.247769 54.652343 
L 397.438462 57.133953 
L 397.629155 54.121503 
L 397.724501 54.899022 
L 397.819848 62.514699 
L 398.010541 56.786162 
L 398.105887 58.112826 
L 398.391926 54.818829 
L 398.487273 53.568 
L 398.487273 53.568 
" style="fill:none;stroke:#4c72b0;stroke-linecap:round;stroke-width:1.5;"/>
   </g>
   <g id="patch_3">
    <path d="M 57.6 307.584 
L 57.6 41.472 
" style="fill:none;stroke:#ffffff;stroke-linecap:square;stroke-linejoin:miter;stroke-width:1.25;"/>
   </g>
   <g id="patch_4">
    <path d="M 414.72 307.584 
L 414.72 41.472 
" style="fill:none;stroke:#ffffff;stroke-linecap:square;stroke-linejoin:miter;stroke-width:1.25;"/>
   </g>
   <g id="patch_5">
    <path d="M 57.6 307.584 
L 414.72 307.584 
" style="fill:none;stroke:#ffffff;stroke-linecap:square;stroke-linejoin:miter;stroke-width:1.25;"/>
   </g>
   <g id="patch_6">
    <path d="M 57.6 41.472 
L 414.72 41.472 
" style="fill:none;stroke:#ffffff;stroke-linecap:square;stroke-linejoin:miter;stroke-width:1.25;"/>
   </g>
  </g>
 </g>
 <defs>
  <clipPath id="p98cc858df9">
   <rect height="266.112" width="357.12" x="57.6" y="41.472"/>
  </clipPath>
 </defs>
</svg>
