<?xml version="1.0" encoding="utf-8" standalone="no"?>
<!DOCTYPE svg PUBLIC "-//W3C//DTD SVG 1.1//EN"
  "http://www.w3.org/Graphics/SVG/1.1/DTD/svg11.dtd">
<!-- Created with matplotlib (https://matplotlib.org/) -->
<svg height="345.6pt" version="1.1" viewBox="0 0 460.8 345.6" width="460.8pt" xmlns="http://www.w3.org/2000/svg" xmlns:xlink="http://www.w3.org/1999/xlink">
 <metadata>
  <rdf:RDF xmlns:cc="http://creativecommons.org/ns#" xmlns:dc="http://purl.org/dc/elements/1.1/" xmlns:rdf="http://www.w3.org/1999/02/22-rdf-syntax-ns#">
   <cc:Work>
    <dc:type rdf:resource="http://purl.org/dc/dcmitype/StillImage"/>
    <dc:date>2021-10-07T20:32:43.867591</dc:date>
    <dc:format>image/svg+xml</dc:format>
    <dc:creator>
     <cc:Agent>
      <dc:title>Matplotlib v3.3.3, https://matplotlib.org/</dc:title>
     </cc:Agent>
    </dc:creator>
   </cc:Work>
  </rdf:RDF>
 </metadata>
 <defs>
  <style type="text/css">*{stroke-linecap:butt;stroke-linejoin:round;}</style>
 </defs>
 <g id="figure_1">
  <g id="patch_1">
   <path d="M 0 345.6 
L 460.8 345.6 
L 460.8 0 
L 0 0 
z
" style="fill:#ffffff;"/>
  </g>
  <g id="axes_1">
   <g id="patch_2">
    <path d="M 57.6 307.584 
L 414.72 307.584 
L 414.72 41.472 
L 57.6 41.472 
z
" style="fill:#eaeaf2;"/>
   </g>
   <g id="matplotlib.axis_1">
    <g id="xtick_1">
     <g id="line2d_1">
      <path clip-path="url(#p4259450924)" d="M 73.832727 307.584 
L 73.832727 41.472 
" style="fill:none;stroke:#ffffff;stroke-linecap:round;"/>
     </g>
     <g id="text_1">
      <!-- 0 -->
      <g style="fill:#262626;" transform="translate(70.774212 324.957594)scale(0.11 -0.11)">
       <defs>
        <path d="M 4.15625 35.296875 
Q 4.15625 48 6.765625 55.734375 
Q 9.375 63.484375 14.515625 67.671875 
Q 19.671875 71.875 27.484375 71.875 
Q 33.25 71.875 37.59375 69.546875 
Q 41.9375 67.234375 44.765625 62.859375 
Q 47.609375 58.5 49.21875 52.21875 
Q 50.828125 45.953125 50.828125 35.296875 
Q 50.828125 22.703125 48.234375 14.96875 
Q 45.65625 7.234375 40.5 3 
Q 35.359375 -1.21875 27.484375 -1.21875 
Q 17.140625 -1.21875 11.234375 6.203125 
Q 4.15625 15.140625 4.15625 35.296875 
z
M 13.1875 35.296875 
Q 13.1875 17.671875 17.3125 11.828125 
Q 21.4375 6 27.484375 6 
Q 33.546875 6 37.671875 11.859375 
Q 41.796875 17.71875 41.796875 35.296875 
Q 41.796875 52.984375 37.671875 58.78125 
Q 33.546875 64.59375 27.390625 64.59375 
Q 21.34375 64.59375 17.71875 59.46875 
Q 13.1875 52.9375 13.1875 35.296875 
z
" id="ArialMT-48"/>
       </defs>
       <use xlink:href="#ArialMT-48"/>
      </g>
     </g>
    </g>
    <g id="xtick_2">
     <g id="line2d_2">
      <path clip-path="url(#p4259450924)" d="M 138.504947 307.584 
L 138.504947 41.472 
" style="fill:none;stroke:#ffffff;stroke-linecap:round;"/>
     </g>
     <g id="text_2">
      <!-- 50 -->
      <g style="fill:#262626;" transform="translate(132.387916 324.957594)scale(0.11 -0.11)">
       <defs>
        <path d="M 4.15625 18.75 
L 13.375 19.53125 
Q 14.40625 12.796875 18.140625 9.390625 
Q 21.875 6 27.15625 6 
Q 33.5 6 37.890625 10.78125 
Q 42.28125 15.578125 42.28125 23.484375 
Q 42.28125 31 38.0625 35.34375 
Q 33.84375 39.703125 27 39.703125 
Q 22.75 39.703125 19.328125 37.765625 
Q 15.921875 35.84375 13.96875 32.765625 
L 5.71875 33.84375 
L 12.640625 70.609375 
L 48.25 70.609375 
L 48.25 62.203125 
L 19.671875 62.203125 
L 15.828125 42.96875 
Q 22.265625 47.46875 29.34375 47.46875 
Q 38.71875 47.46875 45.15625 40.96875 
Q 51.609375 34.46875 51.609375 24.265625 
Q 51.609375 14.546875 45.953125 7.46875 
Q 39.0625 -1.21875 27.15625 -1.21875 
Q 17.390625 -1.21875 11.203125 4.25 
Q 5.03125 9.71875 4.15625 18.75 
z
" id="ArialMT-53"/>
       </defs>
       <use xlink:href="#ArialMT-53"/>
       <use x="55.615234" xlink:href="#ArialMT-48"/>
      </g>
     </g>
    </g>
    <g id="xtick_3">
     <g id="line2d_3">
      <path clip-path="url(#p4259450924)" d="M 203.177168 307.584 
L 203.177168 41.472 
" style="fill:none;stroke:#ffffff;stroke-linecap:round;"/>
     </g>
     <g id="text_3">
      <!-- 100 -->
      <g style="fill:#262626;" transform="translate(194.001621 324.957594)scale(0.11 -0.11)">
       <defs>
        <path d="M 37.25 0 
L 28.46875 0 
L 28.46875 56 
Q 25.296875 52.984375 20.140625 49.953125 
Q 14.984375 46.921875 10.890625 45.40625 
L 10.890625 53.90625 
Q 18.265625 57.375 23.78125 62.296875 
Q 29.296875 67.234375 31.59375 71.875 
L 37.25 71.875 
z
" id="ArialMT-49"/>
       </defs>
       <use xlink:href="#ArialMT-49"/>
       <use x="55.615234" xlink:href="#ArialMT-48"/>
       <use x="111.230469" xlink:href="#ArialMT-48"/>
      </g>
     </g>
    </g>
    <g id="xtick_4">
     <g id="line2d_4">
      <path clip-path="url(#p4259450924)" d="M 267.849388 307.584 
L 267.849388 41.472 
" style="fill:none;stroke:#ffffff;stroke-linecap:round;"/>
     </g>
     <g id="text_4">
      <!-- 150 -->
      <g style="fill:#262626;" transform="translate(258.673841 324.957594)scale(0.11 -0.11)">
       <use xlink:href="#ArialMT-49"/>
       <use x="55.615234" xlink:href="#ArialMT-53"/>
       <use x="111.230469" xlink:href="#ArialMT-48"/>
      </g>
     </g>
    </g>
    <g id="xtick_5">
     <g id="line2d_5">
      <path clip-path="url(#p4259450924)" d="M 332.521608 307.584 
L 332.521608 41.472 
" style="fill:none;stroke:#ffffff;stroke-linecap:round;"/>
     </g>
     <g id="text_5">
      <!-- 200 -->
      <g style="fill:#262626;" transform="translate(323.346061 324.957594)scale(0.11 -0.11)">
       <defs>
        <path d="M 50.34375 8.453125 
L 50.34375 0 
L 3.03125 0 
Q 2.9375 3.171875 4.046875 6.109375 
Q 5.859375 10.9375 9.828125 15.625 
Q 13.8125 20.3125 21.34375 26.46875 
Q 33.015625 36.03125 37.109375 41.625 
Q 41.21875 47.21875 41.21875 52.203125 
Q 41.21875 57.421875 37.46875 61 
Q 33.734375 64.59375 27.734375 64.59375 
Q 21.390625 64.59375 17.578125 60.78125 
Q 13.765625 56.984375 13.71875 50.25 
L 4.6875 51.171875 
Q 5.609375 61.28125 11.65625 66.578125 
Q 17.71875 71.875 27.9375 71.875 
Q 38.234375 71.875 44.234375 66.15625 
Q 50.25 60.453125 50.25 52 
Q 50.25 47.703125 48.484375 43.546875 
Q 46.734375 39.40625 42.65625 34.8125 
Q 38.578125 30.21875 29.109375 22.21875 
Q 21.1875 15.578125 18.9375 13.203125 
Q 16.703125 10.84375 15.234375 8.453125 
z
" id="ArialMT-50"/>
       </defs>
       <use xlink:href="#ArialMT-50"/>
       <use x="55.615234" xlink:href="#ArialMT-48"/>
       <use x="111.230469" xlink:href="#ArialMT-48"/>
      </g>
     </g>
    </g>
    <g id="xtick_6">
     <g id="line2d_6">
      <path clip-path="url(#p4259450924)" d="M 397.193828 307.584 
L 397.193828 41.472 
" style="fill:none;stroke:#ffffff;stroke-linecap:round;"/>
     </g>
     <g id="text_6">
      <!-- 250 -->
      <g style="fill:#262626;" transform="translate(388.018281 324.957594)scale(0.11 -0.11)">
       <use xlink:href="#ArialMT-50"/>
       <use x="55.615234" xlink:href="#ArialMT-53"/>
       <use x="111.230469" xlink:href="#ArialMT-48"/>
      </g>
     </g>
    </g>
    <g id="text_7">
     <!-- количество -->
     <g style="fill:#262626;" transform="translate(204.747187 339.733219)scale(0.12 -0.12)">
      <defs>
       <path d="M 6.546875 51.859375 
L 15.328125 51.859375 
L 15.328125 29.4375 
Q 19.53125 29.4375 21.21875 31.046875 
Q 22.90625 32.671875 26.171875 40.4375 
Q 28.765625 46.578125 30.375 48.53125 
Q 31.984375 50.484375 34.078125 51.171875 
Q 36.1875 51.859375 40.828125 51.859375 
L 42.578125 51.859375 
L 42.578125 44.578125 
L 40.140625 44.625 
Q 36.671875 44.625 35.6875 43.609375 
Q 34.671875 42.53125 32.5625 37.203125 
Q 30.5625 32.125 28.90625 30.171875 
Q 27.25 28.21875 23.78125 26.609375 
Q 29.4375 25.09375 34.90625 16.0625 
L 44.53125 0 
L 34.859375 0 
L 25.484375 16.0625 
Q 22.609375 20.90625 20.453125 22.4375 
Q 18.3125 23.96875 15.328125 23.96875 
L 15.328125 0 
L 6.546875 0 
z
" id="ArialMT-1082"/>
       <path d="M 3.328125 25.921875 
Q 3.328125 40.328125 11.328125 47.265625 
Q 18.015625 53.03125 27.640625 53.03125 
Q 38.328125 53.03125 45.109375 46.015625 
Q 51.90625 39.015625 51.90625 26.65625 
Q 51.90625 16.65625 48.90625 10.90625 
Q 45.90625 5.171875 40.15625 2 
Q 34.421875 -1.171875 27.640625 -1.171875 
Q 16.75 -1.171875 10.03125 5.8125 
Q 3.328125 12.796875 3.328125 25.921875 
z
M 12.359375 25.921875 
Q 12.359375 15.96875 16.703125 11.015625 
Q 21.046875 6.0625 27.640625 6.0625 
Q 34.1875 6.0625 38.53125 11.03125 
Q 42.875 16.015625 42.875 26.21875 
Q 42.875 35.84375 38.5 40.796875 
Q 34.125 45.75 27.640625 45.75 
Q 21.046875 45.75 16.703125 40.8125 
Q 12.359375 35.890625 12.359375 25.921875 
z
" id="ArialMT-1086"/>
       <path d="M 10.890625 51.859375 
L 51.703125 51.859375 
L 51.703125 0 
L 42.96875 0 
L 42.96875 44.578125 
L 19.671875 44.578125 
L 19.671875 18.75 
Q 19.671875 9.71875 19.078125 6.828125 
Q 18.5 3.953125 15.859375 1.796875 
Q 13.234375 -0.34375 8.25 -0.34375 
Q 5.171875 -0.34375 1.171875 0.046875 
L 1.171875 7.375 
L 5.03125 7.375 
Q 7.765625 7.375 8.9375 7.9375 
Q 10.109375 8.5 10.5 9.71875 
Q 10.890625 10.9375 10.890625 17.671875 
z
" id="ArialMT-1083"/>
       <path d="M 6.59375 51.859375 
L 15.375 51.859375 
L 15.375 12.3125 
L 39.75 51.859375 
L 49.21875 51.859375 
L 49.21875 0 
L 40.4375 0 
L 40.4375 39.3125 
L 16.0625 0 
L 6.59375 0 
z
" id="ArialMT-1080"/>
       <path d="M 3.375 51.859375 
L 12.15625 51.859375 
L 12.15625 42.046875 
Q 12.15625 35.6875 12.90625 32.828125 
Q 13.671875 29.984375 16.546875 27.859375 
Q 19.4375 25.734375 23.78125 25.734375 
Q 28.765625 25.734375 36.671875 28.375 
L 36.671875 51.859375 
L 45.453125 51.859375 
L 45.453125 0 
L 36.671875 0 
L 36.671875 20.90625 
Q 28.5625 18.359375 21.53125 18.359375 
Q 15.625 18.359375 11.109375 21.359375 
Q 6.59375 24.359375 4.984375 28.703125 
Q 3.375 33.0625 3.375 38.28125 
z
" id="ArialMT-1095"/>
       <path d="M 42.09375 16.703125 
L 51.171875 15.578125 
Q 49.03125 7.625 43.21875 3.21875 
Q 37.40625 -1.171875 28.375 -1.171875 
Q 17 -1.171875 10.328125 5.828125 
Q 3.65625 12.84375 3.65625 25.484375 
Q 3.65625 38.578125 10.390625 45.796875 
Q 17.140625 53.03125 27.875 53.03125 
Q 38.28125 53.03125 44.875 45.953125 
Q 51.46875 38.875 51.46875 26.03125 
Q 51.46875 25.25 51.421875 23.6875 
L 12.75 23.6875 
Q 13.234375 15.140625 17.578125 10.59375 
Q 21.921875 6.0625 28.421875 6.0625 
Q 33.25 6.0625 36.671875 8.59375 
Q 40.09375 11.140625 42.09375 16.703125 
z
M 13.234375 30.90625 
L 42.1875 30.90625 
Q 41.609375 37.453125 38.875 40.71875 
Q 34.671875 45.796875 27.984375 45.796875 
Q 21.921875 45.796875 17.796875 41.75 
Q 13.671875 37.703125 13.234375 30.90625 
z
" id="ArialMT-1077"/>
       <path d="M 40.4375 19 
L 49.078125 17.875 
Q 47.65625 8.9375 41.8125 3.875 
Q 35.984375 -1.171875 27.484375 -1.171875 
Q 16.84375 -1.171875 10.375 5.78125 
Q 3.90625 12.75 3.90625 25.734375 
Q 3.90625 34.125 6.6875 40.421875 
Q 9.46875 46.734375 15.15625 49.875 
Q 20.84375 53.03125 27.546875 53.03125 
Q 35.984375 53.03125 41.359375 48.75 
Q 46.734375 44.484375 48.25 36.625 
L 39.703125 35.296875 
Q 38.484375 40.53125 35.375 43.15625 
Q 32.28125 45.796875 27.875 45.796875 
Q 21.234375 45.796875 17.078125 41.03125 
Q 12.9375 36.28125 12.9375 25.984375 
Q 12.9375 15.53125 16.9375 10.796875 
Q 20.953125 6.0625 27.390625 6.0625 
Q 32.5625 6.0625 36.03125 9.234375 
Q 39.5 12.40625 40.4375 19 
z
" id="ArialMT-1089"/>
       <path d="M 1.859375 51.859375 
L 44 51.859375 
L 44 44.578125 
L 27.296875 44.578125 
L 27.296875 0 
L 18.5625 0 
L 18.5625 44.578125 
L 1.859375 44.578125 
z
" id="ArialMT-1090"/>
       <path d="M 6.640625 51.859375 
L 26.90625 51.859375 
Q 34.375 51.859375 38.015625 50.609375 
Q 41.65625 49.359375 44.265625 46.03125 
Q 46.875 42.71875 46.875 38.09375 
Q 46.875 34.375 45.328125 31.609375 
Q 43.796875 28.859375 40.71875 27 
Q 44.390625 25.78125 46.796875 22.4375 
Q 49.21875 19.09375 49.21875 14.5 
Q 48.734375 7.125 43.9375 3.5625 
Q 39.15625 0 30.03125 0 
L 6.640625 0 
z
M 15.4375 30.03125 
L 24.8125 30.03125 
Q 30.421875 30.03125 32.515625 30.609375 
Q 34.625 31.203125 36.28125 32.984375 
Q 37.9375 34.765625 37.9375 37.25 
Q 37.9375 41.359375 35.03125 42.96875 
Q 32.125 44.578125 25.09375 44.578125 
L 15.4375 44.578125 
z
M 15.4375 7.234375 
L 27 7.234375 
Q 34.46875 7.234375 37.25 8.953125 
Q 40.046875 10.6875 40.1875 14.9375 
Q 40.1875 17.4375 38.578125 19.5625 
Q 36.96875 21.6875 34.375 22.234375 
Q 31.78125 22.796875 26.078125 22.796875 
L 15.4375 22.796875 
z
" id="ArialMT-1074"/>
      </defs>
      <use xlink:href="#ArialMT-1082"/>
      <use x="44.875" xlink:href="#ArialMT-1086"/>
      <use x="98.240234" xlink:href="#ArialMT-1083"/>
      <use x="156.589844" xlink:href="#ArialMT-1080"/>
      <use x="212.449219" xlink:href="#ArialMT-1095"/>
      <use x="264.548828" xlink:href="#ArialMT-1077"/>
      <use x="320.164062" xlink:href="#ArialMT-1089"/>
      <use x="370.164062" xlink:href="#ArialMT-1090"/>
      <use x="415.964844" xlink:href="#ArialMT-1074"/>
      <use x="467.964844" xlink:href="#ArialMT-1086"/>
     </g>
    </g>
   </g>
   <g id="matplotlib.axis_2">
    <g id="ytick_1">
     <g id="line2d_7">
      <path clip-path="url(#p4259450924)" d="M 57.6 300.496234 
L 414.72 300.496234 
" style="fill:none;stroke:#ffffff;stroke-linecap:round;"/>
     </g>
     <g id="text_8">
      <!-- 0.0 -->
      <g style="fill:#262626;" transform="translate(32.81 304.433031)scale(0.11 -0.11)">
       <defs>
        <path d="M 9.078125 0 
L 9.078125 10.015625 
L 19.09375 10.015625 
L 19.09375 0 
z
" id="ArialMT-46"/>
       </defs>
       <use xlink:href="#ArialMT-48"/>
       <use x="55.615234" xlink:href="#ArialMT-46"/>
       <use x="83.398438" xlink:href="#ArialMT-48"/>
      </g>
     </g>
    </g>
    <g id="ytick_2">
     <g id="line2d_8">
      <path clip-path="url(#p4259450924)" d="M 57.6 248.219558 
L 414.72 248.219558 
" style="fill:none;stroke:#ffffff;stroke-linecap:round;"/>
     </g>
     <g id="text_9">
      <!-- 0.5 -->
      <g style="fill:#262626;" transform="translate(32.81 252.156355)scale(0.11 -0.11)">
       <use xlink:href="#ArialMT-48"/>
       <use x="55.615234" xlink:href="#ArialMT-46"/>
       <use x="83.398438" xlink:href="#ArialMT-53"/>
      </g>
     </g>
    </g>
    <g id="ytick_3">
     <g id="line2d_9">
      <path clip-path="url(#p4259450924)" d="M 57.6 195.942882 
L 414.72 195.942882 
" style="fill:none;stroke:#ffffff;stroke-linecap:round;"/>
     </g>
     <g id="text_10">
      <!-- 1.0 -->
      <g style="fill:#262626;" transform="translate(32.81 199.879679)scale(0.11 -0.11)">
       <use xlink:href="#ArialMT-49"/>
       <use x="55.615234" xlink:href="#ArialMT-46"/>
       <use x="83.398438" xlink:href="#ArialMT-48"/>
      </g>
     </g>
    </g>
    <g id="ytick_4">
     <g id="line2d_10">
      <path clip-path="url(#p4259450924)" d="M 57.6 143.666206 
L 414.72 143.666206 
" style="fill:none;stroke:#ffffff;stroke-linecap:round;"/>
     </g>
     <g id="text_11">
      <!-- 1.5 -->
      <g style="fill:#262626;" transform="translate(32.81 147.603003)scale(0.11 -0.11)">
       <use xlink:href="#ArialMT-49"/>
       <use x="55.615234" xlink:href="#ArialMT-46"/>
       <use x="83.398438" xlink:href="#ArialMT-53"/>
      </g>
     </g>
    </g>
    <g id="ytick_5">
     <g id="line2d_11">
      <path clip-path="url(#p4259450924)" d="M 57.6 91.38953 
L 414.72 91.38953 
" style="fill:none;stroke:#ffffff;stroke-linecap:round;"/>
     </g>
     <g id="text_12">
      <!-- 2.0 -->
      <g style="fill:#262626;" transform="translate(32.81 95.326327)scale(0.11 -0.11)">
       <use xlink:href="#ArialMT-50"/>
       <use x="55.615234" xlink:href="#ArialMT-46"/>
       <use x="83.398438" xlink:href="#ArialMT-48"/>
      </g>
     </g>
    </g>
    <g id="text_13">
     <!-- дистанция -->
     <g style="fill:#262626;" transform="translate(26.425 203.748)rotate(-90)scale(0.12 -0.12)">
      <defs>
       <path d="M 13.53125 51.859375 
L 49.65625 51.859375 
L 49.65625 7.234375 
L 55.28125 7.234375 
L 55.28125 -14.703125 
L 48.046875 -14.703125 
L 48.046875 0 
L 7.234375 0 
L 7.234375 -14.703125 
L 0 -14.703125 
L 0 7.234375 
L 4.640625 7.234375 
Q 13.921875 19.828125 13.53125 51.859375 
z
M 20.84375 44.578125 
Q 19.875 19.34375 13.03125 7.234375 
L 40.921875 7.234375 
L 40.921875 44.578125 
z
" id="ArialMT-1076"/>
       <path d="M 40.4375 6.390625 
Q 35.546875 2.25 31.03125 0.53125 
Q 26.515625 -1.171875 21.34375 -1.171875 
Q 12.796875 -1.171875 8.203125 3 
Q 3.609375 7.171875 3.609375 13.671875 
Q 3.609375 17.484375 5.34375 20.625 
Q 7.078125 23.78125 9.890625 25.6875 
Q 12.703125 27.59375 16.21875 28.5625 
Q 18.796875 29.25 24.03125 29.890625 
Q 34.671875 31.15625 39.703125 32.90625 
Q 39.75 34.71875 39.75 35.203125 
Q 39.75 40.578125 37.25 42.78125 
Q 33.890625 45.75 27.25 45.75 
Q 21.046875 45.75 18.09375 43.578125 
Q 15.140625 41.40625 13.71875 35.890625 
L 5.125 37.0625 
Q 6.296875 42.578125 8.984375 45.96875 
Q 11.671875 49.359375 16.75 51.1875 
Q 21.828125 53.03125 28.515625 53.03125 
Q 35.15625 53.03125 39.296875 51.46875 
Q 43.453125 49.90625 45.40625 47.53125 
Q 47.359375 45.171875 48.140625 41.546875 
Q 48.578125 39.3125 48.578125 33.453125 
L 48.578125 21.734375 
Q 48.578125 9.46875 49.140625 6.21875 
Q 49.703125 2.984375 51.375 0 
L 42.1875 0 
Q 40.828125 2.734375 40.4375 6.390625 
z
M 39.703125 26.03125 
Q 34.90625 24.078125 25.34375 22.703125 
Q 19.921875 21.921875 17.671875 20.9375 
Q 15.4375 19.96875 14.203125 18.09375 
Q 12.984375 16.21875 12.984375 13.921875 
Q 12.984375 10.40625 15.640625 8.0625 
Q 18.3125 5.71875 23.4375 5.71875 
Q 28.515625 5.71875 32.46875 7.9375 
Q 36.421875 10.15625 38.28125 14.015625 
Q 39.703125 17 39.703125 22.796875 
z
" id="ArialMT-1072"/>
       <path d="M 6.640625 51.859375 
L 15.4375 51.859375 
L 15.4375 30.28125 
L 39.796875 30.28125 
L 39.796875 51.859375 
L 48.578125 51.859375 
L 48.578125 0 
L 39.796875 0 
L 39.796875 23 
L 15.4375 23 
L 15.4375 0 
L 6.640625 0 
z
" id="ArialMT-1085"/>
       <path d="M 6.734375 51.859375 
L 15.53125 51.859375 
L 15.53125 7.234375 
L 39.84375 7.234375 
L 39.84375 51.859375 
L 48.640625 51.859375 
L 48.640625 7.234375 
L 54.296875 7.234375 
L 54.296875 -14.703125 
L 47.078125 -14.703125 
L 47.078125 0 
L 6.734375 0 
z
" id="ArialMT-1094"/>
       <path d="M 47.40625 51.859375 
L 47.40625 0 
L 38.671875 0 
L 38.671875 20.21875 
L 33.59375 20.21875 
Q 28.953125 20.21875 26.6875 19.015625 
Q 24.421875 17.828125 20.0625 11.328125 
L 12.40625 0 
L 1.515625 0 
L 10.984375 13.96875 
Q 15.328125 20.359375 19.625 21.1875 
Q 12.109375 22.21875 8.46875 26.609375 
Q 4.828125 31 4.828125 36.71875 
Q 4.828125 43.453125 9.59375 47.65625 
Q 14.359375 51.859375 23.390625 51.859375 
z
M 38.671875 44.578125 
L 26.171875 44.578125 
Q 18.3125 44.578125 16.03125 42.140625 
Q 13.765625 39.703125 13.765625 36.421875 
Q 13.765625 31.78125 17.109375 29.609375 
Q 20.453125 27.4375 28.953125 27.4375 
L 38.671875 27.4375 
z
" id="ArialMT-1103"/>
      </defs>
      <use xlink:href="#ArialMT-1076"/>
      <use x="58.349609" xlink:href="#ArialMT-1080"/>
      <use x="114.208984" xlink:href="#ArialMT-1089"/>
      <use x="164.208984" xlink:href="#ArialMT-1090"/>
      <use x="208.884766" xlink:href="#ArialMT-1072"/>
      <use x="264.5" xlink:href="#ArialMT-1085"/>
      <use x="319.724609" xlink:href="#ArialMT-1094"/>
      <use x="377" xlink:href="#ArialMT-1080"/>
      <use x="432.859375" xlink:href="#ArialMT-1103"/>
     </g>
    </g>
   </g>
   <g id="line2d_12">
    <path clip-path="url(#p4259450924)" d="M 73.832727 295.488 
L 75.126172 295.488 
L 76.419616 291.173357 
L 77.71306 291.173357 
L 79.006505 290.333815 
L 80.299949 290.333815 
L 81.593394 290.220455 
L 82.886838 290.220455 
L 84.180283 289.186899 
L 85.473727 289.186899 
L 86.767171 286.478747 
L 88.060616 286.478747 
L 89.35406 284.257966 
L 93.234393 284.217494 
L 94.527838 282.072391 
L 95.821282 282.072391 
L 97.114727 279.913966 
L 98.408171 279.913966 
L 99.701615 279.129262 
L 100.99506 279.129262 
L 102.288504 273.633752 
L 103.581949 273.633752 
L 104.875393 272.146222 
L 106.168837 272.146222 
L 108.755726 271.524938 
L 110.049171 271.524938 
L 111.342615 271.08819 
L 115.222948 270.989013 
L 116.516393 270.221371 
L 117.809837 270.221371 
L 119.103281 269.84693 
L 122.983615 269.839864 
L 124.277059 269.167998 
L 126.863948 269.14794 
L 128.157392 268.39046 
L 129.450837 268.39046 
L 130.744281 267.336269 
L 132.037725 266.921166 
L 133.33117 266.921166 
L 134.624614 266.809531 
L 135.918059 266.809531 
L 137.211503 265.859961 
L 141.091836 265.795433 
L 142.385281 264.200932 
L 143.678725 264.200932 
L 144.97217 263.362867 
L 146.265614 263.362867 
L 147.559058 262.848274 
L 150.145947 262.76925 
L 151.439392 262.395728 
L 152.732836 261.820685 
L 154.02628 261.749482 
L 155.319725 260.849802 
L 159.200058 260.836882 
L 161.786947 259.790508 
L 163.080391 259.790508 
L 164.373836 258.970336 
L 165.66728 258.648379 
L 166.960724 258.648379 
L 168.254169 258.252561 
L 169.547613 258.252561 
L 170.841058 257.904363 
L 172.134502 257.904363 
L 173.427946 257.347241 
L 176.014835 257.302253 
L 177.30828 256.966316 
L 179.895168 256.701062 
L 181.188613 256.701062 
L 182.482057 256.569001 
L 186.36239 256.465402 
L 187.655835 255.305596 
L 188.949279 255.024096 
L 190.242724 255.024096 
L 191.536168 254.35785 
L 192.829612 254.35785 
L 194.123057 254.164743 
L 195.416501 254.164743 
L 196.709946 253.301511 
L 198.00339 253.056255 
L 199.296834 253.056255 
L 200.590279 252.392607 
L 201.883723 252.392607 
L 203.177168 252.096679 
L 205.764057 252.018981 
L 208.350945 251.992207 
L 209.64439 251.656678 
L 213.524723 251.570535 
L 214.818167 251.399238 
L 216.111612 251.399238 
L 217.405056 251.230945 
L 218.698501 251.230945 
L 219.991945 250.860518 
L 222.578834 250.489678 
L 223.872278 250.489678 
L 225.165723 249.978836 
L 227.752611 249.881967 
L 230.3395 248.896241 
L 231.632945 248.896241 
L 232.926389 248.444359 
L 234.219833 248.444359 
L 235.513278 248.15905 
L 236.806722 248.0464 
L 238.100167 248.0464 
L 239.393611 247.876258 
L 240.687055 247.499373 
L 241.9805 247.499373 
L 243.273944 246.430107 
L 244.567389 246.430107 
L 245.860833 245.937361 
L 247.154277 245.937361 
L 248.447722 245.692421 
L 251.034611 245.641343 
L 252.328055 244.897195 
L 253.621499 244.897195 
L 256.208388 244.16297 
L 258.795277 243.052146 
L 261.382166 242.418423 
L 262.67561 242.418423 
L 263.969055 241.687145 
L 265.262499 241.687145 
L 266.555943 241.230566 
L 267.849388 240.494234 
L 271.729721 240.413535 
L 276.903499 239.999716 
L 278.196943 239.710574 
L 282.077276 239.506635 
L 284.664165 239.135299 
L 285.95761 237.929824 
L 287.251054 237.857528 
L 288.544498 237.302384 
L 289.837943 236.949062 
L 291.131387 236.826003 
L 292.424832 236.826003 
L 293.718276 236.62379 
L 297.598609 236.408336 
L 298.892054 236.032433 
L 300.185498 235.876113 
L 302.772387 235.203097 
L 304.065831 235.203097 
L 305.359276 234.716225 
L 309.239609 234.37108 
L 310.533053 233.817652 
L 313.119942 230.956359 
L 315.706831 230.136741 
L 317.000275 229.718791 
L 318.29372 229.718791 
L 319.587164 229.607032 
L 323.467497 229.598671 
L 326.054386 228.974447 
L 327.34783 228.974447 
L 328.641275 228.263549 
L 335.108497 227.151891 
L 336.401941 227.140058 
L 337.695386 225.836352 
L 338.98883 225.713484 
L 340.282275 225.225801 
L 341.575719 225.225801 
L 342.869163 224.554368 
L 344.162608 224.554368 
L 345.456052 224.362479 
L 346.749497 223.015251 
L 349.336385 221.812935 
L 350.62983 221.795075 
L 351.923274 219.595146 
L 353.216719 219.450537 
L 354.510163 219.450537 
L 355.803607 219.162776 
L 357.097052 218.131126 
L 358.390496 218.018602 
L 359.683941 218.018602 
L 360.977385 215.713245 
L 362.270829 215.713245 
L 363.564274 209.889504 
L 364.857718 209.538091 
L 366.151163 209.0674 
L 368.738051 208.967028 
L 370.031496 208.583082 
L 371.32494 207.698155 
L 372.618385 205.144192 
L 376.498718 203.894513 
L 377.792162 203.721543 
L 379.085607 200.908979 
L 380.379051 200.433731 
L 381.672495 199.674341 
L 382.96594 199.674341 
L 385.552829 199.112738 
L 386.846273 174.148318 
L 388.139717 174.148318 
L 389.433162 173.411211 
L 390.726606 173.411211 
L 392.020051 172.685967 
L 393.313495 169.77321 
L 394.60694 161.522369 
L 395.900384 146.406826 
L 397.193828 78.699126 
L 398.487273 53.568 
L 398.487273 53.568 
" style="fill:none;stroke:#4c72b0;stroke-linecap:round;stroke-width:1.5;"/>
   </g>
   <g id="patch_3">
    <path d="M 57.6 307.584 
L 57.6 41.472 
" style="fill:none;stroke:#ffffff;stroke-linecap:square;stroke-linejoin:miter;stroke-width:1.25;"/>
   </g>
   <g id="patch_4">
    <path d="M 414.72 307.584 
L 414.72 41.472 
" style="fill:none;stroke:#ffffff;stroke-linecap:square;stroke-linejoin:miter;stroke-width:1.25;"/>
   </g>
   <g id="patch_5">
    <path d="M 57.6 307.584 
L 414.72 307.584 
" style="fill:none;stroke:#ffffff;stroke-linecap:square;stroke-linejoin:miter;stroke-width:1.25;"/>
   </g>
   <g id="patch_6">
    <path d="M 57.6 41.472 
L 414.72 41.472 
" style="fill:none;stroke:#ffffff;stroke-linecap:square;stroke-linejoin:miter;stroke-width:1.25;"/>
   </g>
  </g>
 </g>
 <defs>
  <clipPath id="p4259450924">
   <rect height="266.112" width="357.12" x="57.6" y="41.472"/>
  </clipPath>
 </defs>
</svg>
